<svg width="30" height="30" viewBox="0 0 30 30" fill="none" xmlns="http://www.w3.org/2000/svg">
<path d="M29.9181 8.82012C29.8478 7.22605 29.5901 6.13025 29.2207 5.1806C28.8398 4.17265 28.2537 3.27024 27.486 2.52003C26.7357 1.75816 25.8274 1.16613 24.8311 0.791173C23.876 0.421959 22.7859 0.164095 21.1918 0.0938859C19.5859 0.0175816 19.0761 0 15.003 0C10.9299 0 10.4201 0.0175816 8.82012 0.0879081C7.22611 0.158235 6.13025 0.416216 5.1809 0.785196C4.17265 1.16613 3.27024 1.75219 2.52003 2.52003C1.75816 3.27018 1.16642 4.17857 0.791174 5.17486C0.421959 6.13025 0.164154 7.22019 0.0938859 8.81414C0.0176402 10.4201 0 10.9299 0 15.003C0 19.0761 0.0176402 19.5859 0.0879082 21.1859C0.158235 22.7799 0.416216 23.8757 0.785489 24.8254C1.16642 25.8333 1.75816 26.7357 2.52003 27.4859C3.27024 28.2478 4.17863 28.8398 5.17492 29.2148C6.13019 29.584 7.22013 29.8419 8.81444 29.9121C10.4141 29.9827 10.9242 30 14.9973 30C19.0704 30 19.5802 29.9827 21.1802 29.9121C22.7742 29.8418 23.8701 29.5841 24.8194 29.2148C25.8165 28.8293 26.722 28.2397 27.478 27.4838C28.2339 26.7279 28.8236 25.8224 29.2091 24.8254C29.5781 23.87 29.8362 22.7799 29.9064 21.1859C29.9767 19.5859 29.9943 19.0761 29.9943 15.003C29.9943 10.9299 29.9883 10.42 29.9181 8.82012ZM27.2165 21.0687C27.152 22.5338 26.9059 23.325 26.7008 23.8524C26.1966 25.1593 25.1594 26.1966 23.8524 26.7008C23.325 26.9059 22.5281 27.152 21.0687 27.2162C19.4863 27.2868 19.0118 27.3042 15.009 27.3042C11.0062 27.3042 10.5257 27.2868 8.94899 27.2162C7.48386 27.152 6.69268 26.9059 6.16523 26.7008C5.51489 26.4604 4.92292 26.0794 4.44235 25.5813C3.94421 25.0948 3.56327 24.5088 3.32287 23.8584C3.11775 23.3309 2.87167 22.5338 2.80738 21.0746C2.73682 19.4923 2.71947 19.0175 2.71947 15.0147C2.71947 11.0118 2.73682 10.5313 2.80738 8.95497C2.87167 7.48983 3.11775 6.69866 3.32287 6.17121C3.56327 5.52057 3.94421 4.92872 4.44833 4.44803C4.93452 3.94989 5.52057 3.56895 6.17121 3.32885C6.69866 3.12373 7.49581 2.87759 8.95497 2.81306C10.5373 2.74273 11.0121 2.72515 15.0147 2.72515C19.0234 2.72515 19.498 2.74273 21.0746 2.81306C22.5398 2.87764 23.3309 3.12367 23.8584 3.32879C24.5087 3.56895 25.1008 3.94989 25.5813 4.44803C26.0794 4.93452 26.4604 5.52057 26.7008 6.17121C26.9059 6.69866 27.152 7.49552 27.2165 8.95497C27.2868 10.5373 27.3044 11.0118 27.3044 15.0147C27.3044 19.0175 27.2869 19.4863 27.2165 21.0687Z" fill="#1D1D1D"/>
<path d="M15.003 7.2962C10.7484 7.2962 7.29639 10.7479 7.29639 15.0028C7.29639 19.2577 10.7484 22.7094 15.003 22.7094C19.2578 22.7094 22.7096 19.2577 22.7096 15.0028C22.7096 10.7479 19.2578 7.2962 15.003 7.2962ZM15.003 20.0019C12.2428 20.0019 10.0038 17.7633 10.0038 15.0028C10.0038 12.2424 12.2428 10.0038 15.0029 10.0038C17.7634 10.0038 20.002 12.2424 20.002 15.0028C20.002 17.7633 17.7633 20.0019 15.003 20.0019ZM24.8137 6.99145C24.8137 7.98505 24.008 8.79064 23.0143 8.79064C22.0207 8.79064 21.2151 7.98505 21.2151 6.99145C21.2151 5.99774 22.0207 5.19238 23.0143 5.19238C24.008 5.19238 24.8137 5.99768 24.8137 6.99145Z" fill="#1D1D1D"/>
</svg>
