<svg width="38" height="38" viewBox="0 0 38 38" fill="none" xmlns="http://www.w3.org/2000/svg">
<path d="M13.7448 4.56416C13.7448 4.56106 13.7453 4.55929 13.7453 4.55664H13.4799C13.4786 4.61811 13.4777 4.67959 13.4777 4.7415H13.7426C13.7431 4.68224 13.7435 4.62298 13.7448 4.56416ZM13.1695 5.04622C13.1695 5.04312 13.1699 5.04135 13.1699 5.0387H12.9046C12.9032 5.10017 12.9023 5.16165 12.9023 5.22356H13.1673C13.1681 5.1643 13.1686 5.10504 13.1695 5.04622ZM13.6064 5.61982C13.6064 5.61673 13.6069 5.61496 13.6069 5.61231H13.3415C13.3402 5.67378 13.3393 5.73525 13.3393 5.79717H13.6042C13.6051 5.73791 13.6051 5.67909 13.6064 5.61982ZM14.3627 8.75188C14.3627 8.74746 14.3631 8.74436 14.3631 8.73994H14.1177C14.1163 8.8337 14.1155 8.9279 14.1155 9.02254H14.3609C14.3613 8.93277 14.3618 8.8421 14.3627 8.75188Z" fill="#282828"/>
<path d="M20.3232 21.9184C20.3316 20.5129 19.9504 19.3188 19.1579 18.2676C18.2208 17.0257 17.4132 16.3473 16.7635 15.8016C15.5876 14.8136 14.9976 14.3178 14.975 11.6377C14.9653 10.4582 14.9657 10.146 14.9675 9.58125L14.9684 7.62294C15.2886 7.53404 15.5265 7.23464 15.5265 6.84324C15.5265 6.42442 15.1878 6.08345 14.7716 6.08345H14.3736L14.6367 3.84961H11.0336L11.2972 6.08345H10.9156C10.4994 6.08345 10.1606 6.42442 10.1606 6.89322C10.1606 7.28284 10.4552 7.60171 10.8315 7.64417L10.8329 9.59805C10.8342 10.1526 10.8351 10.4697 10.8253 11.6382C10.8032 14.3187 10.2128 14.814 9.03686 15.802C8.38763 16.3473 7.57918 17.0266 6.64249 18.268C5.84952 19.3188 5.4683 20.5129 5.4767 21.9189L5.49439 24.7015C5.50545 26.3887 5.50545 26.3888 5.49881 27.5399C5.49483 28.1923 5.48864 29.2134 5.48112 31.1191C5.47847 31.8135 5.60938 32.3627 5.87119 32.8262C5.84598 32.8979 5.82564 32.9722 5.82564 33.0527C5.82564 33.4299 6.1308 33.7368 6.50583 33.7368H19.5696C19.9442 33.7368 20.2494 33.4299 20.2494 33.0527C20.249 32.8762 20.1802 32.7067 20.0574 32.5799C20.2335 32.1686 20.321 31.6932 20.3188 31.1191C20.3113 29.1878 20.3051 28.1648 20.3011 27.5138C20.294 26.3759 20.294 26.3759 20.3055 24.6436L20.3232 21.9184ZM14.0547 4.37059L13.8535 6.07372H11.8182L11.617 4.37059H14.0547ZM10.679 6.84324C10.679 6.71145 10.7851 6.60442 10.916 6.60442H14.7716C14.9025 6.60442 15.0086 6.71145 15.0086 6.89322C15.0086 7.02457 14.9025 7.13203 14.7716 7.13203H10.916C10.7851 7.13203 10.679 7.02501 10.679 6.84324ZM12.2193 7.65301H12.5669L12.065 8.73256H11.7178L12.2193 7.65301ZM11.3932 8.73256H11.3463L11.3454 7.65301H11.8952L11.3932 8.73256ZM12.8911 7.65301H13.2392L12.7372 8.73256H12.3892L12.8911 7.65301ZM13.5634 7.65301H13.9114L13.4094 8.73256H13.0614L13.5634 7.65301ZM5.99591 31.1209C6.00343 29.2161 6.00962 28.1949 6.0136 27.5426C6.02023 26.3888 6.02023 26.3887 6.00917 24.6976L5.99148 21.9153C5.98352 20.6279 6.33069 19.5373 7.0529 18.5803C7.95422 17.3853 8.73745 16.7272 9.36678 16.1987C9.7082 15.9117 10.0103 15.6556 10.2708 15.3726H12.4444C12.5254 15.3726 12.5913 15.3063 12.5913 15.2249C12.5913 15.1435 12.5254 15.0772 12.4444 15.0772H10.5193C11.0323 14.3908 11.3242 13.466 11.3397 11.6422C11.3494 10.4711 11.3481 10.1526 11.3472 9.59673L11.3468 9.02799H13.9304C14.0114 9.02799 14.0773 8.96165 14.0773 8.88027C14.0773 8.79846 14.0114 8.73256 13.9304 8.73256H13.7336L14.2356 7.65301H14.4554L14.4545 9.58036C14.4532 10.1465 14.4523 10.4596 14.462 11.6422C14.4863 14.5619 15.2196 15.178 16.4349 16.1987C17.0642 16.7272 17.8475 17.3853 18.7488 18.5803C19.4706 19.5373 19.8177 20.6284 19.8098 21.9153L19.7925 24.6396C19.781 26.3759 19.781 26.3759 19.7881 27.5165C19.7921 28.1671 19.7983 29.19 19.8058 31.1204C19.8076 31.6251 19.7262 32.024 19.5745 32.3685C19.5732 32.3685 19.5718 32.3676 19.5705 32.3676H6.50671C6.41833 32.368 6.33088 32.3857 6.24932 32.4198C6.08215 32.0651 5.9937 31.6503 5.99591 31.1209ZM19.5705 33.3671H6.50671C6.42346 33.3668 6.34374 33.3335 6.28504 33.2744C6.22633 33.2154 6.19345 33.1355 6.1936 33.0522C6.1936 32.8789 6.33423 32.7373 6.50671 32.7373H19.5705C19.743 32.7373 19.8832 32.8784 19.8832 33.0522C19.8827 33.2256 19.7426 33.3671 19.5705 33.3671Z" fill="#282828"/>
<path d="M9.10035 31.575H16.6289C17.3648 31.575 17.9636 30.9726 17.9636 30.2318V20.8998C17.9636 20.1594 17.3648 19.5566 16.6289 19.5566H9.10035C8.36444 19.5566 7.76562 20.159 7.76562 20.8998V30.2323C7.76562 30.9726 8.36444 31.575 9.10035 31.575ZM8.05884 20.8998H8.05928C8.05928 20.3222 8.52675 19.8525 9.1008 19.8525H16.6289C17.2029 19.8525 17.6704 20.3222 17.6704 20.8998V30.2323C17.6704 30.8098 17.2029 31.2795 16.6289 31.2795H9.10035C8.52631 31.2795 8.05884 30.8098 8.05884 30.2323V20.8998Z" fill="#282828"/>
<path d="M9.19591 31.0367H16.5763C17.0698 31.0367 17.4714 30.6329 17.4714 30.1358V20.9497C17.4714 20.453 17.0698 20.0488 16.5763 20.0488H9.19591C8.70235 20.0488 8.30078 20.4526 8.30078 20.9497V30.1358C8.30078 30.6325 8.70235 31.0367 9.19591 31.0367ZM8.44761 20.9497C8.44761 20.5344 8.78328 20.1965 9.19591 20.1965H16.5763C16.9889 20.1965 17.3246 20.5344 17.3246 20.9497V30.1358C17.3246 30.5511 16.9889 30.889 16.5763 30.889H9.19591C8.78328 30.889 8.44761 30.5511 8.44761 30.1358V20.9497Z" fill="#282828"/>
<path d="M9.57396 25.0251C9.7245 25.1976 9.87179 25.3729 10.0158 25.5509C9.8141 25.8773 9.65224 26.1895 9.52885 26.488C9.40501 26.7866 9.33116 27.0382 9.30595 27.243C9.31126 27.2744 9.33381 27.2974 9.37406 27.3133C9.4143 27.3288 9.45941 27.3367 9.50983 27.3367C9.56025 27.3367 9.60713 27.3297 9.65002 27.3159C9.69248 27.3022 9.71902 27.2797 9.72919 27.2483C9.76943 27.009 9.82958 26.7662 9.91051 26.5194C9.99222 26.2702 10.0906 26.0267 10.2051 25.7906C10.3543 25.9859 10.4989 26.1847 10.6389 26.3868C10.7757 26.584 10.9103 26.7827 11.0427 26.9829C11.0679 27.021 11.0971 27.0453 11.1294 27.0559C11.1625 27.0665 11.1935 27.0678 11.224 27.0612C11.2545 27.0541 11.2771 27.0395 11.2921 27.017C11.3072 26.9944 11.3072 26.971 11.2921 26.9467C11.1157 26.6309 10.952 26.3585 10.8012 26.1294C10.6599 25.9146 10.5141 25.7029 10.3638 25.4943C10.4853 25.2811 10.6215 25.0768 10.7716 24.8827C10.9223 24.6869 11.0862 24.5016 11.262 24.3281C11.2722 24.3073 11.2722 24.2891 11.262 24.2732C11.2523 24.2577 11.2355 24.2454 11.213 24.237C11.1888 24.2283 11.163 24.2248 11.1373 24.2268C11.1095 24.2286 11.0829 24.2378 11.0577 24.2555C10.8974 24.4109 10.7451 24.5743 10.6013 24.7451C10.4596 24.9129 10.3273 25.0885 10.2051 25.271C10.0978 25.1298 9.98956 24.9893 9.88044 24.8495C9.76118 24.6959 9.64295 24.5416 9.52575 24.3864C9.49081 24.355 9.44526 24.3387 9.38998 24.3369C9.33865 24.3345 9.28736 24.3425 9.23917 24.3604C9.19362 24.3776 9.15735 24.4028 9.12949 24.4355C9.10163 24.4687 9.09809 24.5023 9.11843 24.5373C9.27587 24.6945 9.4278 24.8572 9.57396 25.0251ZM12.201 25.0251C12.3515 25.1976 12.4988 25.3729 12.6428 25.5509C12.4411 25.8773 12.2788 26.1895 12.1558 26.488C12.032 26.7866 11.9582 27.0382 11.933 27.243C11.9383 27.2744 11.9608 27.2974 12.0011 27.3133C12.0413 27.3288 12.0864 27.3367 12.1368 27.3367C12.1872 27.3367 12.2341 27.3297 12.277 27.3159C12.3195 27.3022 12.346 27.2797 12.3557 27.2483C12.396 27.009 12.4561 26.7662 12.5371 26.5194C12.6188 26.2702 12.7172 26.0267 12.8316 25.7906C12.9808 25.9861 13.1256 26.1848 13.2659 26.3868C13.4027 26.584 13.5373 26.7827 13.6697 26.9829C13.6949 27.021 13.7236 27.0453 13.7564 27.0559C13.7891 27.0665 13.8205 27.0678 13.851 27.0612C13.8815 27.0541 13.9041 27.0395 13.9191 27.017C13.9342 26.9944 13.9342 26.971 13.9191 26.9467C13.7427 26.6309 13.579 26.3585 13.4282 26.1294C13.2869 25.9146 13.1411 25.7029 12.9908 25.4943C13.1124 25.2812 13.2487 25.0769 13.3986 24.8827C13.5493 24.6869 13.7132 24.5016 13.889 24.3281C13.8988 24.3073 13.8988 24.2891 13.889 24.2732C13.8789 24.2577 13.8625 24.2454 13.84 24.237C13.8174 24.2286 13.7922 24.225 13.7643 24.2268C13.7365 24.2286 13.7104 24.2378 13.6852 24.2555C13.5249 24.4109 13.3725 24.5743 13.2288 24.7451C13.087 24.9129 12.9547 25.0885 12.8325 25.271C12.7252 25.1298 12.617 24.9893 12.5079 24.8495C12.3886 24.6959 12.2704 24.5416 12.1532 24.3864C12.1183 24.355 12.0727 24.3387 12.0174 24.3369C11.9621 24.3351 11.9117 24.3431 11.8666 24.3604C11.8211 24.3776 11.7848 24.4028 11.7569 24.4355C11.7291 24.4687 11.7255 24.5023 11.7459 24.5373C11.9007 24.692 12.0528 24.8552 12.201 25.0251ZM14.828 25.0251C14.9785 25.1976 15.1258 25.3729 15.2698 25.5509C15.0681 25.8773 14.9058 26.1895 14.7828 26.488C14.6595 26.7866 14.5852 27.0382 14.56 27.243C14.5653 27.2744 14.5878 27.2974 14.6281 27.3133C14.6683 27.3288 14.7134 27.3367 14.7638 27.3367C14.8142 27.3367 14.8611 27.3297 14.904 27.3159C14.9465 27.3022 14.973 27.2797 14.9827 27.2483C15.023 27.009 15.0836 26.7662 15.1641 26.5194C15.2458 26.2702 15.3442 26.0267 15.4586 25.7906C15.6078 25.9859 15.7525 26.1847 15.8925 26.3868C16.0292 26.584 16.1638 26.7827 16.2962 26.9829C16.3215 27.021 16.3502 27.0453 16.3829 27.0559C16.4157 27.0665 16.4471 27.0678 16.4776 27.0612C16.5081 27.0541 16.5306 27.0395 16.5457 27.017C16.5607 26.9944 16.5607 26.971 16.5457 26.9467C16.3692 26.6309 16.2056 26.3585 16.0548 26.1294C15.9135 25.9146 15.7676 25.7029 15.6174 25.4943C15.7389 25.2811 15.8751 25.0768 16.0251 24.8827C16.1759 24.6869 16.3397 24.5016 16.5156 24.3281C16.5258 24.3073 16.5258 24.2891 16.5156 24.2732C16.5059 24.2577 16.4891 24.2454 16.4665 24.237C16.444 24.2286 16.4188 24.225 16.3909 24.2268C16.363 24.2286 16.3369 24.2378 16.3117 24.2555C16.1514 24.411 15.9989 24.5744 15.8549 24.7451C15.713 24.9128 15.5807 25.0884 15.4586 25.271C15.3513 25.1298 15.2431 24.9893 15.134 24.8495C15.0147 24.6959 14.8965 24.5416 14.7793 24.3864C14.7444 24.355 14.6988 24.3387 14.6435 24.3369C14.5922 24.3345 14.5409 24.3425 14.4927 24.3604C14.4472 24.3776 14.4109 24.4028 14.383 24.4355C14.3552 24.4687 14.3521 24.5023 14.372 24.5373C14.5297 24.6944 14.6818 24.8571 14.828 25.0251ZM33.4354 20.4336C33.4354 19.3093 30.2932 18.7207 27.189 18.7207C24.16 18.7207 21.0943 19.3093 21.0943 20.4336C21.0943 20.4933 21.1071 20.5508 21.1244 20.6074L21.0965 20.6113L22.6988 32.1379C22.6988 33.2621 25.0728 33.8507 27.4181 33.8507C29.7621 33.8507 32.2533 33.2506 32.2528 32.1551C32.2666 31.9932 33.4231 20.717 33.4346 20.6029L33.4063 20.5998C33.4217 20.5459 33.4354 20.4911 33.4354 20.4336ZM31.8106 32.1379C31.8106 32.6686 30.1393 33.4085 27.4177 33.4085C24.8972 33.4085 23.1406 32.7389 23.1384 32.1074L21.621 21.1757C21.805 21.2929 22.035 21.3986 22.2968 21.4945L23.5855 30.7731C23.5855 31.5404 25.221 32.1189 27.3898 32.1189C29.2796 32.1189 31.2887 31.6474 31.2883 30.7824C31.2976 30.6731 32.1171 22.6749 32.2396 21.4821C32.5133 21.3818 32.7464 21.2703 32.9335 21.1478C31.8115 32.0923 31.8106 32.1228 31.8106 32.1379ZM27.189 21.7042C24.6138 21.7042 22.7735 21.3039 21.9779 20.8811C22.0677 20.434 24.0477 19.8352 27.235 19.8352C30.4511 19.8352 32.4395 20.4446 32.4952 20.8931C31.647 21.3088 29.7576 21.7042 27.189 21.7042ZM31.9782 21.5702C31.0384 30.7395 31.0375 30.7647 31.0375 30.7735C31.0375 31.2914 29.5396 31.8685 27.3894 31.8685C25.2639 31.8685 23.8363 31.3024 23.8349 30.7563L22.563 21.5865C23.7385 21.9562 25.4691 22.1469 27.189 22.1469C28.9766 22.1464 30.7731 21.9505 31.9782 21.5702ZM32.7212 20.7675C32.4209 19.9979 29.7545 19.5844 27.235 19.5844C24.738 19.5844 22.0969 19.9904 21.7568 20.7467C21.6117 20.6392 21.5365 20.5326 21.5365 20.4336C21.5365 19.9029 23.6868 19.163 27.189 19.163C30.7319 19.163 32.9932 19.9157 32.9932 20.4336C32.9932 20.5379 32.8968 20.652 32.7212 20.7675Z" fill="#282828"/>
<path d="M26.5075 22.7248L24.6969 23.1613C24.0233 23.3236 23.6072 24.0042 23.7695 24.6782L24.1825 26.3911C24.2608 26.7166 24.4625 26.9921 24.7495 27.1677C24.9465 27.289 25.1732 27.3535 25.4045 27.3539C25.5027 27.3539 25.6017 27.3424 25.6995 27.3185L26.22 27.1929L25.688 28.2508C25.6135 28.3981 25.5691 28.5588 25.5572 28.7234C25.5452 28.8881 25.5661 29.0535 25.6185 29.21C25.7242 29.5298 25.9471 29.7889 26.2461 29.9388L27.9099 30.776C28.0572 30.8505 28.2179 30.895 28.3825 30.9069C28.5472 30.9188 28.7126 30.8979 28.8691 30.8455C29.026 30.7943 29.1712 30.7125 29.2963 30.6049C29.4214 30.4972 29.5239 30.3659 29.598 30.2184L30.39 28.6444C30.4645 28.497 30.509 28.3363 30.5208 28.1717C30.5326 28.007 30.5116 27.8416 30.459 27.6851C30.4079 27.5282 30.3261 27.383 30.2184 27.2579C30.1108 27.1328 29.9794 27.0303 29.8319 26.9563L28.3411 26.2062C28.464 25.9532 28.5087 25.66 28.4375 25.3655L28.0244 23.6526C27.9461 23.3271 27.7445 23.0516 27.4574 22.876C27.1695 22.7 26.8325 22.646 26.5075 22.7248ZM29.4299 27.0346C29.7979 28.1389 29.2296 29.137 28.4136 29.861C28.353 29.9145 28.4419 30.003 28.5021 29.9495C29.3242 29.2197 29.8876 28.211 29.5759 27.108L29.7187 27.1801C29.8369 27.2391 29.9421 27.3211 30.0283 27.4213C30.1145 27.5214 30.1799 27.6377 30.2207 27.7634C30.2626 27.8887 30.2794 28.021 30.2699 28.1528C30.2604 28.2846 30.2249 28.4132 30.1654 28.5311L29.3733 30.1051C29.3142 30.2233 29.2322 30.3285 29.1321 30.4147C29.0319 30.5009 28.9156 30.5663 28.79 30.6071C28.5339 30.6916 28.261 30.6726 28.0222 30.5518L26.3584 29.7146C26.2403 29.6555 26.135 29.5735 26.0489 29.4734C25.9627 29.3732 25.8973 29.2569 25.8565 29.1313C25.8145 29.006 25.7978 28.8737 25.8073 28.7419C25.8168 28.6101 25.8523 28.4815 25.9118 28.3635L26.5393 27.1159L27.5096 26.882C27.8011 26.8117 28.0395 26.6414 28.2084 26.4198L29.4299 27.0346ZM27.3265 23.0896C27.4397 23.158 27.5381 23.2482 27.616 23.355C27.694 23.4617 27.75 23.5829 27.7807 23.7114L28.1938 25.4243C28.2248 25.5527 28.2302 25.686 28.2094 25.8165C28.1887 25.947 28.1424 26.0721 28.0731 26.1845C28.0047 26.2977 27.9145 26.3961 27.8077 26.474C27.701 26.552 27.5798 26.608 27.4513 26.6387L25.6407 27.0752C25.5123 27.1065 25.3789 27.1119 25.2484 27.0912C25.1179 27.0704 24.9928 27.024 24.8804 26.9545C24.7673 26.8861 24.6689 26.7959 24.5909 26.6892C24.513 26.5824 24.457 26.4613 24.4262 26.3327L24.0132 24.6198C23.8836 24.0803 24.2162 23.5354 24.7557 23.405L26.2519 23.0441C27.2434 23.6376 27.4557 24.7746 27.3049 25.8462C27.2938 25.9249 27.4145 25.9594 27.4256 25.8794C27.5791 24.7874 27.3655 23.6451 26.4106 23.0056L26.5663 22.968C26.6435 22.9496 26.7226 22.9402 26.802 22.9401C26.9873 22.9408 27.1688 22.9925 27.3265 23.0896Z" fill="#282828"/>
</svg>
