<svg width="38" height="38" viewBox="0 0 38 38" fill="none" xmlns="http://www.w3.org/2000/svg">
<path d="M22.7704 19.0771H22.754C21.68 19.0418 20.6058 19.0133 19.5314 18.9916C18.281 18.9649 17.1979 18.9546 16.3045 18.9583C16.1608 18.934 16.0281 18.8928 15.9414 18.7807C15.8988 18.725 15.8696 18.6601 15.8561 18.5913C15.8426 18.5224 15.8453 18.4513 15.8638 18.3837L17.4524 12.5845C17.5349 12.3523 17.5979 12.1208 17.664 11.8808C17.8143 11.3323 17.9852 10.711 18.2973 10.2704C18.564 9.89277 18.9483 9.72488 19.2865 9.57577C19.4538 9.50244 19.6114 9.43273 19.7423 9.34546C20.3393 8.94543 20.7363 8.18174 20.9575 7.01196C20.9963 6.80467 21.0303 6.59556 21.0636 6.38646L21.1363 5.94703C21.2194 5.45488 21.306 5.07909 21.417 4.72998C21.5146 4.41998 21.7283 4.15977 22.0135 4.00385C22.2987 3.84794 22.6331 3.80841 22.9468 3.89355L24.0808 4.2063C24.3934 4.29163 24.6608 4.49471 24.8269 4.77292C24.993 5.05113 25.0449 5.38287 24.9718 5.69853C24.8887 6.05371 24.7717 6.42101 24.5935 6.89255L24.5287 7.0562C24.4087 7.35925 24.2869 7.66594 24.1796 7.96839V7.9696C23.8438 8.90664 23.9977 10.4261 24.5087 11.222C24.639 11.4208 24.7966 11.7008 24.8257 12.062C24.8669 12.5996 24.6984 13.2203 24.5505 13.7682C24.4857 14.0088 24.4226 14.241 24.3826 14.4495L23.208 18.7425C23.1817 18.8385 23.1247 18.9232 23.0456 18.9836C22.9666 19.044 22.8699 19.0769 22.7704 19.0771ZM16.8985 18.0485C17.67 18.0503 18.5592 18.0612 19.5502 18.0824C20.5089 18.1022 21.4676 18.1269 22.4261 18.1564L23.4977 14.2452C23.5329 14.0512 23.6014 13.7955 23.6735 13.5306C23.802 13.0536 23.948 12.513 23.919 12.1329C23.9093 12.0099 23.8589 11.8893 23.7462 11.7171C23.0819 10.6819 22.8934 8.86542 23.3232 7.66352C23.4341 7.35077 23.5595 7.03499 23.6832 6.72103L23.7456 6.56344C23.9068 6.13796 24.0123 5.80581 24.0856 5.49427C24.1057 5.40733 24.0914 5.316 24.0456 5.2394C23.9998 5.1628 23.9262 5.10688 23.8402 5.08334L22.7055 4.76998C22.6182 4.74758 22.5255 4.75962 22.4468 4.80362C22.368 4.84762 22.3092 4.92021 22.2825 5.00636C22.1861 5.31184 22.1085 5.64944 22.0322 6.10038L21.9612 6.53132C21.9261 6.7477 21.8909 6.96407 21.8509 7.17924C21.5824 8.60298 21.0588 9.55759 20.249 10.1007C20.0508 10.2328 19.8393 10.3261 19.652 10.408C19.3883 10.5237 19.161 10.6237 19.0398 10.7959C18.8192 11.1062 18.6713 11.6456 18.5404 12.1214C18.4677 12.3857 18.3974 12.6402 18.3186 12.859L16.8985 18.0485Z" fill="#282828"/>
<path d="M24.1663 7.18462C24.1255 7.18471 24.0849 7.1792 24.0456 7.16825L21.4636 6.46032C21.4047 6.44576 21.3493 6.41956 21.3007 6.38325C21.2521 6.34695 21.2113 6.30128 21.1806 6.24893C21.1499 6.19659 21.13 6.13863 21.122 6.07848C21.1141 6.01832 21.1183 5.95719 21.1344 5.89868C21.1504 5.84017 21.178 5.78547 21.2156 5.7378C21.2531 5.69013 21.2998 5.65045 21.3529 5.62112C21.406 5.59178 21.4645 5.57337 21.5248 5.56698C21.5852 5.56059 21.6462 5.56634 21.7043 5.5839L24.2863 6.29183C24.3922 6.32106 24.484 6.38769 24.5446 6.4794C24.6052 6.5711 24.6306 6.68166 24.6159 6.7906C24.6013 6.89954 24.5476 6.99949 24.465 7.07193C24.3823 7.14438 24.2762 7.18441 24.1663 7.18462ZM22.7698 19.0758H22.754C21.68 19.0405 20.6058 19.012 19.5314 18.9903C19.4622 18.9889 19.3942 18.9717 19.3326 18.9401C19.2711 18.9084 19.2176 18.8631 19.1762 18.8076C19.1348 18.7522 19.1066 18.688 19.0938 18.6199C19.081 18.5519 19.0839 18.4818 19.1023 18.4151L20.1835 14.4754C20.2154 14.3592 20.2921 14.2605 20.3968 14.2008C20.5015 14.1411 20.6255 14.1255 20.7418 14.1572L23.7668 14.9876C23.8828 15.0196 23.9814 15.0963 24.041 15.2007C24.1006 15.3052 24.1164 15.4291 24.085 15.5452L23.208 18.7412C23.1817 18.8373 23.1246 18.922 23.0454 18.9825C22.9662 19.0429 22.8694 19.0757 22.7698 19.0758ZM20.1332 18.0939C20.9321 18.1121 21.7152 18.1321 22.4261 18.1545L23.088 15.7434L20.94 15.1543L20.1332 18.0939Z" fill="#282828"/>
<path d="M19.4519 33.8509C17.5929 33.8509 14.446 33.4982 14.446 32.1763C14.446 31.5962 15.0182 31.1556 16.148 30.861C12.8459 27.2365 12.8508 18.9572 12.9617 18.588C13.0829 18.1862 13.2078 17.7698 25.548 18.2644C25.6662 18.2691 25.7778 18.3197 25.8593 18.4053C25.9407 18.491 25.9856 18.605 25.9844 18.7232C25.9808 19.0941 25.8644 27.3378 22.886 30.8938C23.9297 31.1889 24.4577 31.6187 24.4577 32.1763C24.4577 33.4976 21.3114 33.8509 19.4519 33.8509ZM15.3776 32.1763C15.6201 32.4314 16.9693 32.9418 19.4519 32.9418C21.9357 32.9418 23.2842 32.4314 23.5261 32.1757C23.4109 32.0575 22.9776 31.7975 21.9157 31.6059C21.8314 31.5907 21.7532 31.552 21.69 31.4943C21.6267 31.4366 21.5811 31.3622 21.5583 31.2797C21.5355 31.1971 21.5365 31.1099 21.5611 31.0279C21.5857 30.9459 21.633 30.8725 21.6975 30.8162C24.5352 28.3354 24.9922 21.0288 25.0632 19.1554C20.2386 18.9693 15 18.8802 13.8218 19.0499C13.7945 20.4615 14.1788 28.2081 17.3772 30.775C17.4457 30.83 17.4968 30.9037 17.5243 30.9871C17.5518 31.0706 17.5545 31.1602 17.5321 31.2452C17.5097 31.3301 17.4632 31.4068 17.3982 31.4659C17.3331 31.525 17.2524 31.5639 17.1656 31.5781C15.9783 31.772 15.5013 32.0508 15.3776 32.1763Z" fill="#282828"/>
</svg>
