<svg width="38" height="38" viewBox="0 0 38 38" fill="none" xmlns="http://www.w3.org/2000/svg">
<path d="M33.9121 25.9713C33.1691 24.9479 32.2663 23.9363 31.2302 22.9658C30.5079 22.2894 29.7501 21.663 28.9805 21.1042C28.1901 20.5249 27.388 20.0161 26.6006 19.5867C25.8102 19.1603 25.0347 18.8162 24.2946 18.5663C23.8329 18.4104 23.3592 18.2693 22.9004 18.1339C21.8821 17.834 20.8283 17.5222 19.9047 17.0105C18.4572 16.2106 17.291 14.899 16.2638 13.7462C16.2368 13.7162 16.204 13.6919 16.1674 13.6747C16.1308 13.6575 16.0911 13.6478 16.0507 13.6461C16.0329 13.6461 16.0152 13.652 15.9974 13.6549C15.805 13.2461 15.7784 12.8462 15.5149 12.4257C15.2722 12.0375 14.8814 11.8081 14.4966 11.8257C14.1917 11.8375 13.9431 11.9934 13.7329 12.1404C13.2238 12.4874 12.7413 12.8815 12.2972 13.305C11.9894 13.5991 11.6756 13.9608 11.6756 14.4343C11.6786 15.0842 12.2824 15.5283 12.8775 15.6812C13.0728 15.7312 13.2653 15.7606 13.4547 15.79C13.7507 15.8341 14.0289 15.8753 14.2687 15.99C14.2835 15.9959 14.2983 15.9959 14.3131 15.9988C15.432 16.984 16.6634 18.0985 17.4301 19.469C17.9481 20.3866 18.2589 21.4335 18.5608 22.4452C18.697 22.901 18.8391 23.3716 18.996 23.8304C20.2067 27.3594 23.368 31.1472 26.343 33.3117C26.825 33.6617 27.4066 33.8502 28.0036 33.8499C28.4328 33.8499 28.862 33.7529 29.2646 33.5587C31.6771 32.4 33.3496 30.7649 34.2406 28.6946C34.6196 27.8123 34.4952 26.7683 33.9121 25.9713ZM21.9029 27.9623C20.8373 26.4948 20.0261 25.0038 19.5585 23.6392C19.4016 23.1922 19.2625 22.7276 19.1293 22.2777C18.8185 21.2337 18.4958 20.1573 17.9481 19.1809C17.1489 17.7546 15.9086 16.6195 14.7719 15.6166L15.9174 14.4785C15.9914 14.5197 16.0714 14.5285 16.1513 14.505C17.1281 15.596 18.2382 16.7606 19.6147 17.5252C20.5974 18.0693 21.6808 18.3869 22.7316 18.6986C23.1846 18.831 23.6523 18.9692 24.1051 19.1221C25.4579 19.5809 26.9379 20.372 28.4003 21.416C27.9059 22.163 27.3613 22.8776 26.7781 23.5658C26.653 23.4766 26.5225 23.3951 26.3873 23.3217C25.7302 22.9658 24.6734 22.9511 23.9274 23.2805C23.3946 23.5188 23.0513 23.907 22.9328 24.404C22.767 25.0922 23.3414 25.6568 23.7587 26.0655C23.8194 26.1229 23.8786 26.1817 23.9363 26.242L24.0281 26.3361C23.3475 26.9183 22.64 27.4653 21.9029 27.9623ZM23.5073 24.5391C23.5842 24.2215 23.8062 23.9804 24.1703 23.8186C24.4664 23.6862 24.8038 23.6274 25.1235 23.6274C25.5053 23.6274 25.8665 23.7098 26.1063 23.8392C26.5474 24.0774 26.9203 24.4244 27.2962 24.7891C27.7136 25.192 28.1429 25.6272 28.424 26.136C28.717 26.6653 28.8088 27.233 28.6756 27.6917C28.5335 28.1946 28.0836 28.5798 27.6277 28.5916C27.0742 28.5975 26.5858 28.1505 26.1358 27.6799L24.3657 25.836C24.304 25.7718 24.2408 25.7091 24.1762 25.6478C23.8388 25.3185 23.4185 24.9068 23.5073 24.5391ZM33.696 28.4652C32.8642 30.3973 31.2865 31.9354 29.0072 33.0294C28.2583 33.3912 27.3524 33.3147 26.6924 32.8353C25.8369 32.2148 24.9844 31.4648 24.1526 30.6149C24.9785 30.065 25.7718 29.4591 26.5236 28.8122C26.8463 29.0298 27.2015 29.1798 27.6011 29.1798H27.6425C28.3589 29.1621 29.0309 28.6034 29.2469 27.8535C29.3889 27.3506 29.3416 26.7859 29.1196 26.2301C29.8289 25.4115 30.4825 24.5469 31.0763 23.6421C31.9792 24.5097 32.7754 25.4066 33.4325 26.3154C33.8943 26.9477 33.995 27.7711 33.696 28.4652ZM10.3288 11.9493C10.2519 12.0905 10.0713 12.1434 9.92922 12.067C9.13887 11.6346 8.21234 11.4729 7.32137 11.6052C6.43035 11.7376 5.59265 12.164 4.96513 12.8081C4.9089 12.8669 4.83196 12.8963 4.75199 12.8963C4.67801 12.8963 4.60396 12.8698 4.54773 12.8139C4.51956 12.787 4.49704 12.7548 4.48147 12.7192C4.46591 12.6835 4.45761 12.6452 4.45706 12.6064C4.45651 12.5675 4.46372 12.529 4.47827 12.4929C4.49281 12.4569 4.51441 12.424 4.54182 12.3963C5.25817 11.664 6.21431 11.1758 7.23259 11.023C8.25087 10.87 9.31058 11.0582 10.2134 11.5494C10.3554 11.6288 10.4087 11.8082 10.3288 11.9493ZM10.6568 13.9321C9.17934 13.6064 7.56924 14.2588 6.74277 15.5192C6.71372 15.5636 6.69725 15.6149 6.6951 15.6678C6.69295 15.7207 6.70521 15.7732 6.73057 15.8198C6.75594 15.8663 6.79347 15.9052 6.83922 15.9323C6.88497 15.9594 6.93724 15.9738 6.99052 15.9739C7.03983 15.974 7.08838 15.9618 7.13175 15.9385C7.17511 15.9151 7.21192 15.8814 7.23881 15.8403C7.92219 14.7976 9.30557 14.2366 10.5285 14.5062C10.6882 14.542 10.8462 14.4415 10.8815 14.2829C10.89 14.2452 10.8908 14.2062 10.8841 14.1682C10.8774 14.1302 10.8632 14.0938 10.8423 14.0612C10.8214 14.0287 10.7943 14.0005 10.7625 13.9783C10.7307 13.9562 10.6948 13.9405 10.6568 13.9321ZM12.422 3.87735C12.3868 3.86097 12.3487 3.85164 12.3099 3.84991C12.271 3.84817 12.2322 3.85406 12.1957 3.86723C12.1592 3.88041 12.1256 3.90061 12.0969 3.92669C12.0682 3.95276 12.045 3.9842 12.0286 4.0192C11.1943 5.79176 11.202 7.90495 12.0491 9.67175C12.0658 9.70663 12.0893 9.7379 12.1182 9.76377C12.147 9.78963 12.1808 9.80959 12.2174 9.82251C12.2541 9.83542 12.2929 9.84103 12.3317 9.83901C12.3706 9.837 12.4086 9.82741 12.4437 9.81078C12.5146 9.77721 12.5691 9.71706 12.5953 9.64356C12.6216 9.57005 12.6174 9.4892 12.5836 9.41877C11.8116 7.80889 11.8047 5.88356 12.5648 4.26827C12.5813 4.23329 12.5907 4.19542 12.5924 4.15684C12.5941 4.11826 12.5882 4.07972 12.5749 4.04342C12.5617 4.00711 12.5413 3.97376 12.5151 3.94527C12.4889 3.91678 12.4572 3.8937 12.422 3.87735ZM14.2877 10.0519C14.3606 10.0518 14.4309 10.0249 14.4851 9.97654C14.5394 9.92813 14.5737 9.86154 14.5815 9.78953C14.7022 8.68367 15.2721 7.65006 16.145 6.95366C16.1753 6.92949 16.2006 6.89962 16.2193 6.86576C16.2379 6.8319 16.2497 6.79471 16.254 6.75632C16.2582 6.71793 16.2548 6.67909 16.2439 6.64201C16.233 6.60494 16.2149 6.57035 16.1906 6.54024C16.1662 6.51011 16.1362 6.48505 16.1021 6.46647C16.068 6.44789 16.0306 6.43617 15.9919 6.43197C15.9533 6.42777 15.9142 6.43117 15.8769 6.44198C15.8395 6.4528 15.8047 6.47081 15.7744 6.495C14.7797 7.28854 14.1304 8.46616 13.993 9.72605C13.9885 9.76714 13.9928 9.80872 14.0055 9.84806C14.0183 9.8874 14.0393 9.92362 14.0671 9.95436C14.0949 9.98511 14.1289 10.0097 14.1669 10.0265C14.205 10.0433 14.2461 10.0519 14.2877 10.0519Z" fill="#262626"/>
<path d="M21.1796 19.2102L21.4319 19.3356C21.4671 19.353 21.5077 19.3559 21.545 19.3436C21.5822 19.3312 21.613 19.3047 21.6306 19.2698C21.6481 19.2349 21.651 19.1945 21.6386 19.1575C21.6262 19.1205 21.5995 19.0899 21.5644 19.0725L21.3118 18.9471C21.2944 18.9385 21.2754 18.9334 21.2561 18.932C21.2367 18.9306 21.2172 18.9331 21.1988 18.9392C21.1804 18.9453 21.1633 18.955 21.1486 18.9677C21.134 18.9803 21.122 18.9957 21.1133 19.013C21.1046 19.0303 21.0994 19.0491 21.098 19.0684C21.0967 19.0876 21.0991 19.107 21.1053 19.1253C21.1114 19.1436 21.1212 19.1605 21.1339 19.1751C21.1467 19.1897 21.1622 19.2016 21.1796 19.2102ZM22.3274 19.6805C23.6689 19.8663 24.9352 20.408 25.9928 21.2486C26.008 21.2607 26.0254 21.2697 26.0441 21.275C26.0628 21.2804 26.0824 21.2821 26.1017 21.2799C26.121 21.2778 26.1397 21.2719 26.1567 21.2626C26.1738 21.2533 26.1888 21.2407 26.2009 21.2256C26.2131 21.2105 26.2221 21.1932 26.2275 21.1747C26.233 21.1561 26.2346 21.1367 26.2325 21.1175C26.2303 21.0983 26.2244 21.0797 26.215 21.0628C26.2056 21.0459 26.193 21.0309 26.1778 21.0189C25.0785 20.1452 23.7624 19.5823 22.3681 19.3894C22.2865 19.3769 22.2123 19.4343 22.2011 19.5147C22.1958 19.5533 22.206 19.5925 22.2297 19.6236C22.2534 19.6547 22.2885 19.6752 22.3274 19.6805ZM23.5156 20.5987C23.4764 20.5989 23.4388 20.6146 23.4112 20.6424C23.3837 20.6702 23.3683 20.7077 23.3686 20.7467C23.3688 20.7857 23.3847 20.823 23.4126 20.8503C23.4405 20.8777 23.4783 20.893 23.5175 20.8927H23.5194C23.8234 20.9009 24.1242 21.1011 24.2215 21.386C24.2277 21.4043 24.2375 21.4211 24.2503 21.4357C24.2631 21.4502 24.2787 21.4621 24.2961 21.4706C24.3136 21.4792 24.3325 21.4842 24.3519 21.4855C24.3713 21.4868 24.3908 21.4842 24.4092 21.478C24.4463 21.4655 24.477 21.4388 24.4944 21.4038C24.5117 21.3688 24.5144 21.3284 24.5018 21.2915C24.3629 20.8848 23.9543 20.6033 23.5156 20.5987ZM25.3423 25.7255C25.2503 25.6124 25.158 25.4994 25.0619 25.3901C25.0491 25.3755 25.0336 25.3636 25.0162 25.355C24.9987 25.3464 24.9798 25.3413 24.9604 25.34C24.941 25.3387 24.9215 25.3412 24.9031 25.3474C24.8846 25.3536 24.8676 25.3634 24.853 25.3762C24.8235 25.4019 24.8054 25.4381 24.8028 25.477C24.8001 25.516 24.8132 25.5543 24.839 25.5837C24.9327 25.6901 25.0224 25.8003 25.1122 25.9105C25.3129 26.1571 25.5205 26.412 25.7724 26.6249C26.1271 26.9246 26.524 27.0845 26.8967 27.0845C26.9909 27.0845 27.0837 27.0742 27.1738 27.0534C27.1927 27.049 27.2106 27.041 27.2264 27.0298C27.2422 27.0185 27.2556 27.0043 27.2658 26.9879C27.2761 26.9715 27.283 26.9533 27.2862 26.9342C27.2894 26.9152 27.2887 26.8957 27.2843 26.8769C27.2659 26.7978 27.1858 26.7477 27.1067 26.7671C26.6029 26.8832 26.1402 26.5495 25.9643 26.4009C25.7332 26.2055 25.5434 25.9724 25.3423 25.7255Z" fill="#262626"/>
<path d="M25.886 25.644C25.8729 25.6583 25.8628 25.6751 25.8563 25.6932C25.8497 25.7114 25.8469 25.7307 25.8478 25.75C25.8488 25.7693 25.8536 25.7882 25.8619 25.8057C25.8702 25.8231 25.882 25.8388 25.8964 25.8517L26.3014 26.216C26.3158 26.229 26.3326 26.239 26.3509 26.2455C26.3692 26.252 26.3886 26.2549 26.408 26.2539C26.4275 26.253 26.4465 26.2482 26.464 26.2399C26.4816 26.2316 26.4973 26.22 26.5104 26.2057C26.5234 26.1914 26.5335 26.1746 26.5401 26.1565C26.5466 26.1383 26.5495 26.119 26.5485 26.0997C26.5476 26.0804 26.5428 26.0615 26.5344 26.044C26.5261 26.0266 26.5144 26.0109 26.5 25.998L26.095 25.6337C26.0659 25.6076 26.0275 25.5939 25.9883 25.5959C25.9491 25.5978 25.9123 25.6151 25.886 25.644ZM29.424 31.7557C29.0226 32.1337 28.4331 32.3163 27.8872 32.2344C27.3405 32.1516 26.8334 31.8022 26.5636 31.3226C26.5542 31.3057 26.5414 31.2909 26.5262 31.2789C26.5109 31.2669 26.4935 31.258 26.4748 31.2528C26.4561 31.2475 26.4365 31.246 26.4172 31.2482C26.3979 31.2504 26.3792 31.2564 26.3623 31.2659C26.3453 31.2753 26.3304 31.2879 26.3183 31.3031C26.3063 31.3182 26.2973 31.3356 26.292 31.3541C26.2867 31.3727 26.2852 31.3921 26.2874 31.4113C26.2897 31.4305 26.2957 31.4491 26.3052 31.4659C26.6184 32.0232 27.2075 32.429 27.8427 32.5251C27.9435 32.5404 28.0457 32.5479 28.1481 32.5479C28.6895 32.5479 29.2357 32.3386 29.6278 31.9691C29.6556 31.9421 29.6715 31.9053 29.6722 31.8667C29.673 31.8281 29.6584 31.7908 29.6316 31.7628C29.6049 31.7347 29.5681 31.7183 29.5293 31.717C29.4904 31.7157 29.4526 31.7296 29.424 31.7557Z" fill="#262626"/>
<path d="M28.1101 31.5361C28.2417 31.5361 28.3733 31.5001 28.4844 31.427C28.5171 31.4054 28.5399 31.3718 28.5477 31.3336C28.5555 31.2954 28.5477 31.2556 28.526 31.2231C28.5153 31.207 28.5015 31.1931 28.4853 31.1823C28.4692 31.1715 28.4511 31.164 28.432 31.1601C28.413 31.1563 28.3934 31.1562 28.3743 31.1599C28.3552 31.1637 28.337 31.1711 28.3208 31.1817C28.1864 31.2704 27.9898 31.2607 27.8648 31.1594C27.8016 31.1079 27.7083 31.118 27.6565 31.1805C27.6317 31.2107 27.6201 31.2495 27.6241 31.2883C27.628 31.3271 27.6474 31.3628 27.6778 31.3874C27.7998 31.486 27.955 31.5361 28.1101 31.5361ZM21.3937 24.9677C21.4277 24.9872 21.4681 24.9925 21.506 24.9824C21.544 24.9723 21.5763 24.9477 21.5959 24.9139C21.6156 24.8801 21.6209 24.84 21.6107 24.8023C21.6006 24.7647 21.5758 24.7325 21.5418 24.713C20.4296 24.0749 19.7706 22.7456 19.9391 21.4807C19.9417 21.4615 19.9404 21.4421 19.9354 21.4234C19.9304 21.4048 19.9217 21.3873 19.9099 21.372C19.8981 21.3566 19.8833 21.3438 19.8665 21.3341C19.8497 21.3245 19.8311 21.3182 19.8118 21.3156C19.7325 21.3054 19.6564 21.3616 19.6457 21.4421C19.4618 22.8219 20.1806 24.2716 21.3937 24.9677Z" fill="#262626"/>
</svg>
