<svg width="78" height="50" viewBox="0 0 78 50" fill="none" xmlns="http://www.w3.org/2000/svg">
<rect width="78.125" height="50" rx="4.6875" fill="#F8F8F8"/>
<mask id="mask0_351_440" style="mask-type:alpha" maskUnits="userSpaceOnUse" x="0" y="0" width="79" height="50">
<rect width="78.125" height="50" rx="4.6875" fill="#F9F9F9"/>
</mask>
<g mask="url(#mask0_351_440)">
<path d="M22.5469 50H75.4406C76.8422 50 78 48.8403 78 47.4365V29.4922C72.9422 32.7271 53.8078 43.8355 22.5469 50Z" fill="#F58220"/>
</g>
<path d="M12.0453 20.2695H9.35938V29.6651H12.031C13.4517 29.6651 14.4775 29.3294 15.378 28.5804C16.448 27.6935 17.0809 26.3566 17.0809 24.9738C17.0812 22.2013 15.0127 20.2695 12.0453 20.2695ZM14.1828 27.3277C13.6078 27.8476 12.8612 28.0744 11.679 28.0744H11.188V21.8616H11.679C12.8612 21.8616 13.5786 22.0733 14.1828 22.6213C14.8157 23.1856 15.1962 24.0603 15.1962 24.9601C15.1962 25.8623 14.8157 26.7636 14.1828 27.3277Z" fill="#1D1D1D"/>
<path d="M19.7517 20.2695H17.9219V29.6651H19.7517V20.2695Z" fill="#1D1D1D"/>
<path d="M24.2261 23.874C23.1282 23.4672 22.8058 23.1988 22.8058 22.6912C22.8058 22.0992 23.3802 21.6498 24.1687 21.6498C24.7171 21.6498 25.1675 21.8753 25.6442 22.4106L26.6016 21.155C25.8149 20.4656 24.8735 20.1133 23.8451 20.1133C22.1854 20.1133 20.9193 21.2677 20.9193 22.8054C20.9193 24.0999 21.5088 24.7626 23.2272 25.3819C23.9437 25.6349 24.3082 25.8034 24.4922 25.9169C24.8578 26.1559 25.0409 26.4946 25.0409 26.889C25.0409 27.6503 24.4366 28.2142 23.6202 28.2142C22.7475 28.2142 22.0445 27.7771 21.6234 26.9612L20.4414 28.1014C21.2845 29.3408 22.2968 29.8901 23.6892 29.8901C25.5906 29.8901 26.9245 28.6239 26.9245 26.8051C26.9242 25.3123 26.3076 24.6364 24.2261 23.874Z" fill="#1D1D1D"/>
<path d="M27.5039 24.9737C27.5039 27.7353 29.6692 29.8767 32.4553 29.8767C33.2431 29.8767 33.9176 29.7215 34.7494 29.3293V27.172C34.0178 27.9053 33.37 28.2009 32.5406 28.2009C30.6977 28.2009 29.3899 26.8627 29.3899 24.96C29.3899 23.1562 30.7392 21.733 32.4556 21.733C33.3283 21.733 33.9889 22.045 34.7497 22.7902V20.6338C33.9465 20.2256 33.2862 20.0566 32.4988 20.0566C29.7261 20.0571 27.5039 22.242 27.5039 24.9737Z" fill="#1D1D1D"/>
<path d="M49.2545 26.5805L46.7529 20.2695H44.7539L48.735 29.9062H49.7195L53.772 20.2695H51.7885L49.2545 26.5805Z" fill="#1D1D1D"/>
<path d="M54.6016 29.6651H59.7907V28.0747H56.4299V25.5386H59.6668V23.947H56.4299V21.8616H59.7907V20.2695H54.6016V29.6651Z" fill="#1D1D1D"/>
<path d="M67.0328 23.0433C67.0328 21.2843 65.8232 20.2695 63.713 20.2695H61V29.6651H62.8276V25.8908H63.0662L65.5987 29.6652H67.8489L64.896 25.7068C66.274 25.4262 67.0328 24.482 67.0328 23.0433ZM63.3621 24.5951H62.8277V21.7495H63.391C64.5306 21.7495 65.1501 22.2277 65.1501 23.1421C65.1501 24.0867 64.5308 24.5951 63.3621 24.5951Z" fill="#1D1D1D"/>
<path d="M40.334 29.9984C43.09 29.9984 45.3242 27.7606 45.3242 25.0002C45.3242 22.2397 43.09 20.002 40.334 20.002C37.5779 20.002 35.3438 22.2397 35.3438 25.0002C35.3438 27.7606 37.5779 29.9984 40.334 29.9984Z" fill="url(#paint0_linear_351_440)"/>
<path opacity="0.65" d="M40.334 29.9984C43.09 29.9984 45.3242 27.7606 45.3242 25.0002C45.3242 22.2397 43.09 20.002 40.334 20.002C37.5779 20.002 35.3438 22.2397 35.3438 25.0002C35.3438 27.7606 37.5779 29.9984 40.334 29.9984Z" fill="url(#paint1_linear_351_440)"/>
<path d="M68.202 20.622C68.202 20.4572 68.0887 20.3672 67.8897 20.3672H67.625V21.193H67.8217V20.8726L68.0524 21.193H68.2926L68.0214 20.8525C68.138 20.8213 68.202 20.7366 68.202 20.622ZM67.8551 20.7348H67.8219V20.5189H67.8572C67.9545 20.5189 68.0053 20.554 68.0053 20.6251C68.0053 20.6979 67.9539 20.7348 67.8551 20.7348Z" fill="#1D1D1D"/>
<path d="M67.929 20.0586C67.5287 20.0586 67.2109 20.3785 67.2109 20.7785C67.2109 21.1782 67.5323 21.4986 67.929 21.4986C68.319 21.4986 68.6386 21.1746 68.6386 20.7785C68.6386 20.3839 68.3189 20.0586 67.929 20.0586ZM67.9259 21.3699C67.6108 21.3699 67.3531 21.1072 67.3531 20.7795C67.3531 20.4507 67.6075 20.1882 67.9259 20.1882C68.2395 20.1882 68.4951 20.4567 68.4951 20.7795C68.4951 21.1044 68.2398 21.3699 67.9259 21.3699Z" fill="#1D1D1D"/>
<defs>
<linearGradient id="paint0_linear_351_440" x1="42.8883" y1="29.0059" x2="39.4252" y2="23.5924" gradientUnits="userSpaceOnUse">
<stop stop-color="#F89F21"/>
<stop offset="0.2502" stop-color="#F79A23"/>
<stop offset="0.5331" stop-color="#F78E22"/>
<stop offset="0.6196" stop-color="#F68721"/>
<stop offset="0.7232" stop-color="#F48220"/>
<stop offset="1" stop-color="#F27623"/>
</linearGradient>
<linearGradient id="paint1_linear_351_440" x1="42.3425" y1="28.9322" x2="37.2798" y2="19.0527" gradientUnits="userSpaceOnUse">
<stop stop-color="#F68721" stop-opacity="0"/>
<stop offset="0.3587" stop-color="#E27027" stop-opacity="0.2704"/>
<stop offset="0.703" stop-color="#D4612C" stop-opacity="0.5299"/>
<stop offset="0.9816" stop-color="#D15D2D" stop-opacity="0.74"/>
</linearGradient>
</defs>
</svg>
