<svg width="78" height="50" viewBox="0 0 78 50" fill="none" xmlns="http://www.w3.org/2000/svg">
<rect width="78.125" height="50" rx="4.6875" fill="#1D1D1D"/>
<path d="M17.0247 18.2949C12.8436 18.2949 9.35938 20.0716 9.35938 25.4319C9.35938 29.6784 11.7022 32.3526 17.1327 32.3526C23.5246 32.3526 23.9344 28.1353 23.9344 28.1353H20.8372C20.8372 28.1353 20.1731 30.4061 16.9438 30.4061C14.3135 30.4061 12.4218 28.6265 12.4218 26.1321H24.2582V24.5668C24.2582 22.099 22.6942 18.2949 17.0247 18.2949ZM16.9168 20.2954C19.4205 20.2954 21.1273 21.8317 21.1273 24.1343H12.4903C12.4903 21.6898 14.7182 20.2954 16.9168 20.2954Z" fill="#E53238"/>
<path d="M24.2545 13.1035V29.6598C24.2545 30.5996 24.1875 31.9191 24.1875 31.9191H27.1416C27.1416 31.9191 27.2476 30.9714 27.2476 30.1053C27.2476 30.1053 28.7071 32.3922 32.6756 32.3922C36.8545 32.3922 39.6931 29.4863 39.6931 25.3229C39.6931 21.4497 37.0858 18.3346 32.6823 18.3346C28.5588 18.3346 27.2774 20.5649 27.2774 20.5649V13.1035H24.2545ZM31.9198 20.3824C34.7577 20.3824 36.5622 22.492 36.5622 25.3229C36.5622 28.3585 34.478 30.3444 31.9401 30.3444C28.9112 30.3444 27.2774 27.9757 27.2774 25.3499C27.2774 22.9031 28.7435 20.3824 31.9198 20.3824Z" fill="#0064D2"/>
<path d="M47.0365 18.2949C40.7462 18.2949 40.3428 21.7447 40.3428 22.2959H43.4737C43.4737 22.2959 43.6379 20.2819 46.8205 20.2819C48.8887 20.2819 50.4913 21.2301 50.4913 23.0529V23.7017H46.8205C41.9474 23.7017 39.3711 25.1296 39.3711 28.0271C39.3711 30.8788 41.7515 32.4303 44.9683 32.4303C49.3523 32.4303 50.7645 30.004 50.7645 30.004C50.7645 30.9691 50.8388 31.92 50.8388 31.92H53.6222C53.6222 31.92 53.5142 30.7413 53.5142 29.9871V23.4685C53.5142 19.1944 50.0722 18.2949 47.0365 18.2949ZM50.4913 25.6482V26.5132C50.4913 27.6416 49.7961 30.4467 45.7038 30.4467C43.4628 30.4467 42.502 29.3265 42.502 28.0271C42.502 25.6634 45.7377 25.6482 50.4913 25.6482Z" fill="#F5AF02"/>
<path d="M51.8281 18.8359H55.3504L60.4054 28.9795L65.4488 18.8359H68.6395L59.453 36.8946H56.1062L58.757 31.8605L51.8281 18.8359Z" fill="#86B817"/>
</svg>
