<svg width="78" height="50" viewBox="0 0 78 50" fill="none" xmlns="http://www.w3.org/2000/svg">
<rect width="78.125" height="50" rx="4.6875" fill="#5485EC"/>
<path d="M37.3961 26.2924V33.2036H35.207V16.1359H41.0127C41.7057 16.1214 42.3947 16.2445 43.0399 16.4981C43.6852 16.7517 44.2739 17.1308 44.7721 17.6135C45.2754 18.0669 45.6759 18.6229 45.9467 19.2442C46.2176 19.8655 46.3525 20.5376 46.3425 21.2155C46.3569 21.897 46.224 22.5736 45.953 23.1988C45.6819 23.8241 45.2791 24.3832 44.7721 24.838C43.7569 25.8076 42.5038 26.2919 41.0127 26.291H37.3961V26.2924ZM37.3961 18.2372V24.1952H41.0671C41.4695 24.2071 41.8701 24.1348 42.243 23.9829C42.616 23.8309 42.9532 23.6027 43.233 23.3127C43.5114 23.0416 43.7327 22.7174 43.8838 22.3591C44.0349 22.0009 44.1127 21.616 44.1127 21.2271C44.1127 20.8382 44.0349 20.4532 43.8838 20.095C43.7327 19.7368 43.5114 19.4125 43.233 19.1415C42.9567 18.8454 42.6206 18.6116 42.2472 18.4554C41.8738 18.2993 41.4716 18.2245 41.0671 18.2358H37.3961V18.2372Z" fill="white"/>
<path d="M51.3854 21.1465C53.0034 21.1465 54.2806 21.5795 55.2169 22.4457C56.1532 23.3118 56.621 24.4993 56.6201 26.0082V33.2054H54.5262V31.5848H54.431C53.5246 32.9194 52.319 33.5867 50.8144 33.5867C49.53 33.5867 48.4554 33.2054 47.5907 32.4428C47.1757 32.0928 46.8439 31.6544 46.6195 31.1597C46.3951 30.6649 46.2838 30.1263 46.2936 29.583C46.2936 28.3746 46.7495 27.4136 47.6614 26.7C48.5732 25.9864 49.7906 25.6287 51.3134 25.6269C52.6132 25.6269 53.6837 25.8652 54.5248 26.3418V25.8407C54.5273 25.4703 54.4475 25.104 54.2911 24.7683C54.1347 24.4327 53.9057 24.1361 53.6207 23.9001C53.0418 23.377 52.2874 23.0916 51.5078 23.1007C50.285 23.1007 49.3174 23.6173 48.605 24.6505L46.677 23.4343C47.7375 21.9091 49.307 21.1465 51.3854 21.1465ZM48.5533 29.6306C48.5518 29.9097 48.6169 30.185 48.7432 30.4338C48.8695 30.6825 49.0533 30.8974 49.2793 31.0605C49.7635 31.442 50.3644 31.6441 50.9803 31.6325C51.904 31.631 52.7894 31.2627 53.4426 30.6084C54.1677 29.9248 54.5303 29.1227 54.5303 28.2021C53.8477 27.6574 52.896 27.385 51.675 27.385C50.7858 27.385 50.0444 27.5997 49.4507 28.0291C48.8511 28.4649 48.5533 28.9947 48.5533 29.6306Z" fill="white"/>
<path d="M68.6396 21.5273L61.3301 38.3526H59.0704L61.7829 32.4655L56.9766 21.5273H59.3559L62.8298 29.9162H62.8774L66.2561 21.5273H68.6396Z" fill="white"/>
<path d="M28.549 24.8023C28.5498 24.1341 28.4934 23.4671 28.3804 22.8086H19.1484V26.5849H24.4361C24.3279 27.1881 24.0989 27.763 23.7629 28.2751C23.4268 28.7872 22.9908 29.2258 22.4809 29.5646V32.0159H25.6367C27.4844 30.3095 28.549 27.7861 28.549 24.8023Z" fill="white"/>
<path d="M19.1489 34.3836C21.7907 34.3836 24.0151 33.5148 25.6371 32.0168L22.4814 29.5655C21.6031 30.162 20.4719 30.5024 19.1489 30.5024C16.5955 30.5024 14.4282 28.7783 13.6532 26.4551H10.4023V28.9813C11.2171 30.6052 12.4665 31.9704 14.011 32.9243C15.5555 33.8783 17.3344 34.3835 19.1489 34.3836Z" fill="white"/>
<path d="M13.6527 26.4551C13.243 25.2377 13.243 23.9194 13.6527 22.702V20.1758H10.4018C9.71635 21.5419 9.35938 23.0496 9.35938 24.5786C9.35938 26.1075 9.71635 27.6152 10.4018 28.9813L13.6527 26.4551Z" fill="white"/>
<path d="M19.1489 18.6553C20.545 18.6324 21.894 19.1607 22.9043 20.126L25.6983 17.3275C23.9266 15.6607 21.5794 14.7456 19.1489 14.7741C17.3344 14.7742 15.5555 15.2794 14.011 16.2334C12.4665 17.1873 11.2171 18.5525 10.4023 20.1764L13.6532 22.7026C14.4282 20.3793 16.5955 18.6553 19.1489 18.6553Z" fill="white"/>
</svg>
