<svg width="78" height="50" viewBox="0 0 78 50" fill="none" xmlns="http://www.w3.org/2000/svg">
<g clip-path="url(#clip0_351_385)">
<rect width="78.125" height="50" rx="4.6875" fill="#0F3560"/>
<path d="M45.805 37.2872H32.1562V12.7188H45.805V37.2872Z" fill="#FF5F00"/>
<path d="M33.0306 25.0039C33.0306 20.0201 35.3603 15.5806 38.9883 12.7197C36.3352 10.6276 32.9869 9.37891 29.348 9.37891C20.7333 9.37891 13.75 16.3743 13.75 25.0039C13.75 33.6335 20.7333 40.6289 29.348 40.6289C32.9869 40.6289 36.3352 39.3802 38.9883 37.2881C35.3603 34.4272 33.0306 29.9877 33.0306 25.0039Z" fill="#EB001B"/>
<path d="M64.2119 25.0039C64.2119 33.6335 57.2287 40.6289 48.6139 40.6289C44.975 40.6289 41.6267 39.3802 38.9727 37.2881C42.6016 34.4272 44.9314 29.9877 44.9314 25.0039C44.9314 20.0201 42.6016 15.5806 38.9727 12.7197C41.6267 10.6276 44.975 9.37891 48.6139 9.37891C57.2287 9.37891 64.2119 16.3743 64.2119 25.0039Z" fill="#F79E1B"/>
<path d="M25.4884 25.1035C25.4884 24.421 25.935 23.8603 26.6646 23.8603C27.3618 23.8603 27.8325 24.3968 27.8325 25.1035C27.8325 25.8101 27.3618 26.3466 26.6646 26.3466C25.935 26.3466 25.4884 25.786 25.4884 25.1035ZM28.6272 25.1035V23.162H27.7842V23.6334C27.5169 23.2838 27.1112 23.0643 26.5597 23.0643C25.4727 23.0643 24.6204 23.9179 24.6204 25.1035C24.6204 26.2899 25.4727 27.1426 26.5597 27.1426C27.1112 27.1426 27.5169 26.9231 27.7842 26.5735V27.0449H28.6272V25.1035ZM57.1124 25.1035C57.1124 24.421 57.559 23.8603 58.2887 23.8603C58.9868 23.8603 59.4565 24.3968 59.4565 25.1035C59.4565 25.8101 58.9868 26.3466 58.2887 26.3466C57.559 26.3466 57.1124 25.786 57.1124 25.1035ZM60.2521 25.1035V21.6026H59.4082V23.6334C59.1409 23.2838 58.7352 23.0643 58.1837 23.0643C57.0967 23.0643 56.2444 23.9179 56.2444 25.1035C56.2444 26.2899 57.0967 27.1426 58.1837 27.1426C58.7352 27.1426 59.1409 26.9231 59.4082 26.5735V27.0449H60.2521V25.1035ZM39.0905 23.8203C39.6336 23.8203 39.9827 24.1615 40.0718 24.7622H38.0601C38.1501 24.2015 38.4899 23.8203 39.0905 23.8203ZM39.1072 23.0643C37.9709 23.0643 37.1763 23.8928 37.1763 25.1035C37.1763 26.3383 38.0034 27.1426 39.1639 27.1426C39.7478 27.1426 40.2825 26.9966 40.7532 26.5986L40.3401 25.9729C40.0151 26.2323 39.6011 26.3792 39.2121 26.3792C38.6691 26.3792 38.1742 26.1272 38.0526 25.428H40.9314C40.9398 25.3229 40.9481 25.2169 40.9481 25.1035C40.9398 23.8928 40.1934 23.0643 39.1072 23.0643ZM49.2856 25.1035C49.2856 24.421 49.7321 23.8603 50.4618 23.8603C51.159 23.8603 51.6296 24.3968 51.6296 25.1035C51.6296 25.8101 51.159 26.3466 50.4618 26.3466C49.7321 26.3466 49.2856 25.786 49.2856 25.1035ZM52.4243 25.1035V23.162H51.5814V23.6334C51.3131 23.2838 50.9083 23.0643 50.3569 23.0643C49.2698 23.0643 48.4176 23.9179 48.4176 25.1035C48.4176 26.2899 49.2698 27.1426 50.3569 27.1426C50.9083 27.1426 51.3131 26.9231 51.5814 26.5735V27.0449H52.4243V25.1035ZM44.525 25.1035C44.525 26.2816 45.3438 27.1426 46.5934 27.1426C47.1773 27.1426 47.5663 27.0124 47.9878 26.6795L47.583 25.997C47.2664 26.2248 46.9341 26.3466 46.5683 26.3466C45.8953 26.3383 45.4005 25.851 45.4005 25.1035C45.4005 24.3559 45.8953 23.8686 46.5683 23.8603C46.9341 23.8603 47.2664 23.9821 47.583 24.2099L47.9878 23.5274C47.5663 23.1945 47.1773 23.0643 46.5934 23.0643C45.3438 23.0643 44.525 23.9254 44.525 25.1035ZM55.3931 23.0643C54.9067 23.0643 54.5901 23.2921 54.371 23.6334V23.162H53.5355V27.0449H54.3794V24.8682C54.3794 24.2257 54.6551 23.8686 55.2066 23.8686C55.3774 23.8686 55.5556 23.8928 55.7338 23.9663L55.9938 23.1703C55.8072 23.0969 55.564 23.0643 55.3931 23.0643ZM32.7964 23.4707C32.3907 23.2029 31.8318 23.0643 31.2154 23.0643C30.2332 23.0643 29.601 23.5358 29.601 24.3075C29.601 24.9407 30.0717 25.3313 30.9387 25.4531L31.337 25.5098C31.7993 25.5749 32.0175 25.6967 32.0175 25.9161C32.0175 26.2165 31.7093 26.3876 31.1337 26.3876C30.5498 26.3876 30.1283 26.2007 29.8442 25.9812L29.4469 26.6386C29.9092 26.9799 30.4931 27.1426 31.1253 27.1426C32.2449 27.1426 32.8938 26.6144 32.8938 25.8752C32.8938 25.1927 32.3832 24.8357 31.5394 24.7139L31.142 24.6562C30.7772 24.6079 30.4848 24.5353 30.4848 24.275C30.4848 23.9905 30.7605 23.8203 31.2228 23.8203C31.7176 23.8203 32.1966 24.0072 32.4315 24.1532L32.7964 23.4707ZM43.6728 23.0643C43.1864 23.0643 42.8698 23.2921 42.6516 23.6334V23.162H41.8161V27.0449H42.6591V24.8682C42.6591 24.2257 42.9348 23.8686 43.4862 23.8686C43.657 23.8686 43.8353 23.8928 44.0135 23.9663L44.2735 23.1703C44.0869 23.0969 43.8436 23.0643 43.6728 23.0643ZM36.4791 23.162H35.1005V21.9839H34.2483V23.162H33.462V23.9337H34.2483V25.7051C34.2483 26.6061 34.5973 27.1426 35.5944 27.1426C35.9601 27.1426 36.3816 27.0291 36.649 26.8422L36.4058 26.1188C36.1542 26.2648 35.8785 26.3383 35.6594 26.3383C35.2379 26.3383 35.1005 26.0779 35.1005 25.6883V23.9337H36.4791V23.162ZM23.875 27.0449V24.6079C23.875 23.6901 23.291 23.0727 22.3497 23.0643C21.8549 23.056 21.3443 23.2103 20.9869 23.7552C20.7195 23.3247 20.2981 23.0643 19.7058 23.0643C19.2917 23.0643 18.887 23.1861 18.5704 23.6408V23.162H17.7266V27.0449H18.5779V24.8924C18.5779 24.2183 18.951 23.8603 19.5275 23.8603C20.0873 23.8603 20.3705 24.2257 20.3705 24.884V27.0449H21.2227V24.8924C21.2227 24.2183 21.6117 23.8603 22.1715 23.8603C22.747 23.8603 23.0228 24.2257 23.0228 24.884V27.0449H23.875Z" fill="white"/>
</g>
<defs>
<clipPath id="clip0_351_385">
<rect width="78" height="50" fill="white"/>
</clipPath>
</defs>
</svg>
