<svg width="78" height="50" viewBox="0 0 78 50" fill="none" xmlns="http://www.w3.org/2000/svg">
<rect width="78.125" height="50" rx="4.6875" fill="#1D1D1D"/>
<path fill-rule="evenodd" clip-rule="evenodd" d="M64.5812 28.4093H65.7176V32.0296H65.7818L67.2595 30.2906L68.3076 30.2878L66.6865 32.1887L68.6394 34.5658H67.3305L65.734 32.3532H65.7176V34.5658H64.5812V28.4093ZM10.559 28.6846V32.0606C10.559 33.2106 10.899 33.8392 11.8515 33.8392C12.7631 33.8392 13.1277 33.0771 13.1277 32.1271V28.6846H14.2017V32.3373C14.2017 33.8224 13.2305 34.6638 11.8179 34.6638C10.2004 34.6638 9.35938 33.8812 9.35938 32.2785V28.6846H10.559ZM16.7121 30.8594C17.0967 30.4569 17.6319 30.2637 18.1689 30.2637C19.1647 30.2637 19.6917 30.7997 19.6917 31.8577V34.5622H18.5616V31.9849C18.5616 31.3964 18.2981 31.0099 17.7097 31.0099C17.1563 31.0099 16.7216 31.3713 16.7216 32.0606V34.5622H15.5902V30.3635H16.7121V30.8594ZM21.0215 34.5622H22.1534V30.3635H21.0215V34.5622ZM20.9105 29.1045C20.9105 28.7858 21.1822 28.4576 21.5667 28.4576C21.9581 28.4576 22.263 28.7772 22.263 29.1045C22.263 29.465 22.0009 29.8096 21.5831 29.8096C21.1826 29.8096 20.9105 29.465 20.9105 29.1045ZM24.6574 34.5622L22.846 30.3457H24.0452C24.412 31.3116 24.7925 32.2201 25.1493 33.3871H25.1666C25.5512 32.2201 25.913 31.3116 26.3039 30.3457H27.3657L25.4479 34.5622H24.6574ZM30.7335 31.9598C30.7776 31.3198 30.5473 30.8845 29.9871 30.8845C29.3377 30.8845 29.0464 31.3964 29.0587 31.9598H30.7335ZM29.04 32.5643C29.0146 33.3542 29.5762 33.9409 30.2825 33.9409C30.7021 33.9409 31.1426 33.7982 31.4248 33.6045L31.7479 34.193C31.169 34.5285 30.5637 34.6638 30.079 34.6638C28.7934 34.6638 27.8322 33.7645 27.8322 32.3792C27.8322 31.0855 28.7843 30.2637 30.0021 30.2637C31.3301 30.2637 31.884 31.3125 31.8003 32.5643H29.04ZM34.0216 31.1024H34.0376L34.2679 30.7751C34.3944 30.5896 34.6501 30.2637 34.9992 30.2637C35.2545 30.2637 35.528 30.3981 35.7665 30.6406L35.3396 31.4133C35.1526 31.3198 35.0329 31.2706 34.8044 31.2706C34.4126 31.2706 34.0298 31.5815 34.0298 32.4877V34.5622H32.8943V30.3635H34.0216V31.1024ZM38.788 31.1525C38.5331 30.9679 38.2692 30.8845 38.0634 30.8845C37.8086 30.8845 37.5528 31.0267 37.5528 31.3125C37.5528 31.6485 37.9624 31.8422 38.4385 32.185C39.0447 32.6322 39.2217 33.0684 39.2217 33.4527C39.2217 34.0425 38.5654 34.6638 37.6306 34.6638C37.0426 34.6638 36.6089 34.4615 36.2098 34.1848L36.5671 33.6045C36.821 33.8073 37.1865 34.0074 37.4923 34.0074C37.8181 34.0074 38.1062 33.8392 38.1062 33.4869C38.1062 33.0921 37.663 32.8742 37.2556 32.5884C36.77 32.2616 36.4392 31.942 36.4392 31.4224C36.4392 30.7578 37.0845 30.2637 37.9183 30.2637C38.3884 30.2637 38.8467 30.3804 39.1553 30.6502L38.788 31.1525ZM42.0129 32.3286C41.4604 32.505 41.1796 32.8154 41.1796 33.2936C41.1796 33.6637 41.418 33.9158 41.6925 33.9158C42.1417 33.9158 42.7297 33.3611 42.6455 32.1271L42.0129 32.3286ZM42.3724 34.1597C42.0652 34.4118 41.6738 34.6638 41.2833 34.6638C40.6189 34.6638 40.0636 34.1597 40.0636 33.3871C40.0636 32.5884 40.6526 32.144 41.6406 31.8577L42.6455 31.5637C42.5863 31.1781 42.2359 30.9351 41.8718 30.9351C41.3848 30.9351 41.0439 31.1115 40.7463 31.3636L40.379 30.8344C40.9083 30.4063 41.4262 30.2637 42.0129 30.2637C42.7979 30.2637 43.7605 30.5139 43.7605 31.8254V33.5375C43.7605 33.8739 43.8019 34.2696 43.9393 34.5622H42.7392C42.6518 34.4191 42.6277 34.1766 42.6277 33.9496L42.3724 34.1597ZM45.0289 34.5622H46.1621V28.3906H45.0289V34.5622ZM56.1895 32.3286C55.6351 32.505 55.3543 32.8154 55.3543 33.2936C55.3543 33.6637 55.5914 33.9158 55.8654 33.9158C56.3146 33.9158 56.9031 33.3611 56.8202 32.1271L56.1895 32.3286ZM56.5444 34.1597C56.2395 34.4118 55.8472 34.6638 55.4554 34.6638C54.7923 34.6638 54.2375 34.1597 54.2375 33.3871C54.2375 32.5884 54.8255 32.144 55.8145 31.8577L56.8202 31.5637C56.7579 31.1781 56.4106 30.9351 56.042 30.9351C55.5582 30.9351 55.2169 31.1115 54.9193 31.3636L54.5529 30.8344C55.0808 30.4063 55.601 30.2637 56.1895 30.2637C56.9709 30.2637 57.9321 30.5139 57.9321 31.8254V33.5375C57.9321 33.8739 57.9744 34.2696 58.11 34.5622H56.9117C56.8275 34.4191 56.7993 34.1766 56.7993 33.9496L56.5444 34.1597ZM60.325 30.8594C60.7087 30.4569 61.2457 30.2637 61.7814 30.2637C62.7771 30.2637 63.3046 30.7997 63.3046 31.8577V34.5622H62.1728V31.9849C62.1728 31.3964 61.9088 31.0099 61.3213 31.0099C60.7674 31.0099 60.3337 31.3713 60.3337 32.0606V34.5622H59.2018V30.3635H60.325V30.8594ZM50.2922 33.8552H50.9048C51.5692 33.8552 52.073 33.5115 52.073 32.8574C52.073 32.1681 51.5533 31.8746 50.8979 31.8746H50.2922V33.8552ZM50.2922 31.1525H50.6686C51.359 31.1525 51.8277 30.7163 51.8277 30.1693C51.8277 29.6496 51.434 29.4236 50.9152 29.4236H50.2917V31.1525H50.2922ZM49.093 34.5782V28.7006H51.2475C52.251 28.7006 52.9587 29.1537 52.9587 29.9514C52.9587 30.8913 52.1841 31.2788 51.7672 31.3873V31.4042C52.5081 31.4383 53.3328 31.9411 53.3328 32.8396C53.3328 33.8552 52.4721 34.5782 51.0695 34.5782H49.093Z" fill="white"/>
<path fill-rule="evenodd" clip-rule="evenodd" d="M68.6406 25.3477L68.6406 25.8035L9.36062 25.8035L9.36062 25.3477L68.6406 25.3477Z" fill="white"/>
<path fill-rule="evenodd" clip-rule="evenodd" d="M20.9485 22.6291V18.811C20.9485 17.7279 20.3696 17.2137 19.3975 17.2137C18.5892 17.2137 17.8902 17.6951 17.5844 18.1765C17.3878 17.5747 16.8962 17.2137 16.1207 17.2137C15.3125 17.2137 14.6134 17.717 14.395 18.0342V17.345H13.0078V22.6291H14.395V19.0735C14.6025 18.7782 15.0066 18.45 15.4872 18.45C16.0552 18.45 16.2737 18.8 16.2737 19.2923V22.6291H17.6718V19.0626C17.8684 18.7782 18.2725 18.45 18.764 18.45C19.332 18.45 19.5504 18.8 19.5504 19.2923V22.6291H20.9485ZM24.7605 22.7603C23.0238 22.7603 21.9752 21.4913 21.9752 19.9816C21.9752 18.4828 23.0238 17.2137 24.7605 17.2137C26.5081 17.2137 27.5567 18.4828 27.5567 19.9816C27.5567 21.4913 26.5081 22.7603 24.7605 22.7603ZM24.7605 21.5241C25.6234 21.5241 26.1149 20.813 26.1149 19.9816C26.1149 19.1611 25.6234 18.45 24.7605 18.45C23.8976 18.45 23.417 19.1611 23.417 19.9816C23.417 20.813 23.8976 21.5241 24.7605 21.5241ZM33.5313 22.6291V18.8985C33.5313 17.8701 32.9743 17.2137 31.8165 17.2137C30.9536 17.2137 30.3092 17.6294 29.9706 18.0342V17.345H28.5834V22.6291H29.9706V19.0735C30.1999 18.7563 30.6259 18.45 31.1721 18.45C31.7619 18.45 32.1442 18.7016 32.1442 19.4346V22.6291H33.5313ZM37.3542 22.7603C35.6175 22.7603 34.569 21.4913 34.569 19.9816C34.569 18.4828 35.6175 17.2137 37.3542 17.2137C39.1018 17.2137 40.1504 18.4828 40.1504 19.9816C40.1504 21.4913 39.1018 22.7603 37.3542 22.7603ZM37.3542 21.5241C38.2171 21.5241 38.7086 20.813 38.7086 19.9816C38.7086 19.1611 38.2171 18.45 37.3542 18.45C36.4914 18.45 36.0108 19.1611 36.0108 19.9816C36.0108 20.813 36.4914 21.5241 37.3542 21.5241ZM42.5643 20.9334C42.7937 21.2725 43.307 21.5241 43.7549 21.5241C44.5631 21.5241 45.0983 20.9115 45.0983 19.9925C45.0983 19.0735 44.5631 18.45 43.7549 18.45C43.307 18.45 42.7937 18.7125 42.5643 19.0626V20.9334ZM42.5643 22.6291H41.1771V15.332H42.5643V18.0233C42.9794 17.4872 43.5692 17.2137 44.1918 17.2137C45.5352 17.2137 46.5292 18.264 46.5292 19.9925C46.5292 21.7539 45.5243 22.7603 44.1918 22.7603C43.5583 22.7603 42.9794 22.4759 42.5643 21.9508V22.6291ZM52.1325 22.6291H50.7453V22.0821C50.3849 22.5087 49.7623 22.7603 49.0742 22.7603C48.2331 22.7603 47.2392 22.1915 47.2392 21.0099C47.2392 19.7737 48.2331 19.3033 49.0742 19.3033C49.7732 19.3033 50.3958 19.533 50.7453 19.9487V19.2376C50.7453 18.7016 50.2866 18.3515 49.5875 18.3515C49.0195 18.3515 48.4953 18.5594 48.0474 18.9751L47.5232 18.0452C48.1676 17.4763 48.9977 17.2137 49.8278 17.2137C51.0293 17.2137 52.1325 17.6951 52.1325 19.2158V22.6291ZM49.6312 21.8195C50.079 21.8195 50.5159 21.6663 50.7453 21.36V20.7036C50.5159 20.3973 50.079 20.2441 49.6312 20.2441C49.0851 20.2441 48.6373 20.5286 48.6373 21.0428C48.6373 21.5351 49.0851 21.8195 49.6312 21.8195ZM58.4566 22.6291V18.8985C58.4566 17.8701 57.8996 17.2137 56.7418 17.2137C55.8789 17.2137 55.2345 17.6294 54.8959 18.0342V17.345H53.5087V22.6291H54.8959V19.0735C55.1253 18.7563 55.5512 18.45 56.0974 18.45C56.6872 18.45 57.0695 18.7016 57.0695 19.4346V22.6291H58.4566ZM64.9883 22.6291L62.8366 19.7409L64.9228 17.345H63.2189L61.2201 19.6971V15.332H59.8329V22.6291H61.2201V21.2725L61.8536 20.5942L63.2517 22.6291H64.9883Z" fill="white"/>
</svg>
