<svg width="78" height="50" viewBox="0 0 78 50" fill="none" xmlns="http://www.w3.org/2000/svg">
<rect width="78.125" height="50" rx="4.6875" fill="#1D1D1D"/>
<path d="M13.6816 25.4307C13.9655 25.4898 14.2205 25.5188 14.5949 25.5188C16.061 25.5188 17.0488 24.5883 17.0488 23.4065C17.0488 22.3433 16.2858 21.9598 15.2988 21.9598C14.8637 21.9598 14.5346 21.9896 14.3252 22.0479L13.6816 25.4307ZM12.8583 20.8223C13.4722 20.674 14.3855 20.5859 15.2833 20.5859C16.2267 20.5859 17.2146 20.7773 17.8729 21.295C18.4566 21.7379 18.8008 22.3867 18.8008 23.2742C18.8008 24.4552 18.2317 25.4163 17.5132 25.977C16.7054 26.6121 15.5518 26.9224 14.3545 26.9224C13.9949 26.9224 13.6816 26.8774 13.4119 26.8485L12.6783 30.6152H10.9727L12.8583 20.8223Z" fill="white"/>
<path d="M23.4241 24.6619C23.2448 24.6169 23.0208 24.5884 22.7063 24.5884C21.1046 24.5884 19.8471 26.3763 19.8471 28.0159C19.8471 28.768 20.1314 29.389 20.8952 29.389C21.7176 29.389 22.7063 28.3853 23.0505 26.5531L23.4241 24.6619ZM22.7209 30.6153C22.7209 30.1861 22.7804 29.6108 22.8411 29.0043H22.811C22.0928 30.3199 21.1192 30.7773 20.1913 30.7773C18.8894 30.7773 18.0352 29.7728 18.0352 28.3258C18.0352 25.8738 19.7717 23.2591 23.1699 23.2591C23.963 23.2591 24.8164 23.4066 25.3855 23.5839L24.6221 27.3358C24.4119 28.399 24.2925 29.7584 24.3227 30.6153H22.7209Z" fill="white"/>
<path d="M35.2917 27.7646C35.2917 28.7531 35.8156 29.4492 36.7138 29.4492C38.0161 29.4492 38.8846 27.6758 38.8846 26.2432C38.8846 25.504 38.5396 24.5884 37.4927 24.5884C36.1003 24.5884 35.2917 26.4205 35.2917 27.7646ZM40.6806 26.2291C40.6806 28.6803 38.9588 30.7773 36.4747 30.7773C34.6326 30.7773 33.4961 29.522 33.4961 27.8081C33.4961 25.3718 35.2172 23.2595 37.702 23.2595C39.6627 23.2595 40.6806 24.6478 40.6806 26.2291Z" fill="white"/>
<path d="M41.0078 30.6152L41.9512 25.6518C42.1305 24.7949 42.2352 24.0416 42.3252 23.4218H43.8829L43.7179 24.7068H43.7473C44.4202 23.7462 45.349 23.259 46.367 23.259C47.4143 23.259 48.2229 23.88 48.2229 25.2386C48.2229 25.563 48.1642 26.0651 48.0888 26.42L47.2941 30.6152H45.5429L46.3206 26.553C46.367 26.2873 46.4114 25.977 46.4114 25.6961C46.4114 25.0903 46.1869 24.6618 45.4985 24.6618C44.7054 24.6618 43.687 25.6068 43.3729 27.2918L42.7444 30.6152H41.0078Z" fill="white"/>
<path d="M52.8628 24.5441C51.7695 24.5441 51.0517 25.504 50.8423 26.3763C52.6379 26.3907 53.7915 26.1544 53.7915 25.2833C53.7915 24.8255 53.4172 24.5441 52.8628 24.5441ZM54.5244 30.2013C53.8054 30.5703 52.8334 30.7773 51.9495 30.7773C49.9306 30.7773 48.957 29.5521 48.957 27.794C48.957 25.6226 50.5726 23.2595 53.0876 23.2595C54.5244 23.2595 55.4377 24.0714 55.4377 25.2833C55.4377 27.1291 53.4775 27.7196 50.6634 27.6609C50.6329 27.9118 50.6928 28.399 50.8578 28.6799C51.1425 29.1679 51.6648 29.4187 52.3544 29.4187C53.1784 29.4187 53.8359 29.2117 54.3614 28.946L54.5244 30.2013Z" fill="white"/>
<path d="M59.644 24.5441C58.5519 24.5441 57.8329 25.504 57.6235 26.3763C59.4192 26.3907 60.5728 26.1544 60.5728 25.2833C60.5728 24.8255 60.1984 24.5441 59.644 24.5441ZM61.3056 30.2013C60.5879 30.5703 59.6147 30.7773 58.7323 30.7773C56.7118 30.7773 55.7383 29.5521 55.7383 27.794C55.7383 25.6226 57.3539 23.2595 59.8689 23.2595C61.3056 23.2595 62.2205 24.0714 62.2205 25.2833C62.2205 27.1291 60.2587 27.7196 57.4447 27.6609C57.4138 27.9118 57.474 28.399 57.639 28.6799C57.9237 29.1679 58.4472 29.4187 59.1356 29.4187C59.9597 29.4187 60.6172 29.2117 61.1427 28.946L61.3056 30.2013Z" fill="white"/>
<path d="M62.3242 30.6152L63.1772 26.1836C63.3715 25.1647 63.4762 24.0569 63.55 23.4218H65.0625C65.0177 23.9089 64.9733 24.411 64.8979 24.9287H64.9423C65.4384 23.968 66.23 23.259 67.2186 23.259C67.3542 23.259 67.4883 23.2742 67.6084 23.2742L67.2634 24.958C67.1738 24.9428 67.054 24.9428 66.9339 24.9428C65.6907 24.9428 64.8979 26.1836 64.6144 27.7195L64.06 30.6152H62.3242Z" fill="white"/>
<path d="M68.9296 24.078H69.0573C69.1882 24.078 69.2746 24.006 69.2746 23.8972C69.2746 23.7748 69.1838 23.7211 69.0529 23.7211C68.9927 23.7211 68.9498 23.7254 68.9296 23.7301V24.078ZM68.8047 23.6441C68.8681 23.6327 68.9589 23.6245 69.0434 23.6245C69.1759 23.6245 69.2639 23.6511 69.3222 23.7028C69.3702 23.7446 69.3979 23.81 69.3979 23.8851C69.3979 24.0088 69.319 24.0925 69.2175 24.1258V24.1305C69.2913 24.1555 69.3345 24.224 69.3591 24.3226C69.39 24.4541 69.413 24.5468 69.4332 24.584H69.304C69.2885 24.555 69.2667 24.4748 69.2421 24.3562C69.2127 24.2248 69.1592 24.1762 69.0466 24.1715H68.9296V24.584H68.8047V23.6441Z" fill="white"/>
<path d="M69.093 23.2583C68.6171 23.2583 68.2305 23.6399 68.2305 24.1094C68.2305 24.579 68.6171 24.9609 69.093 24.9609C69.5689 24.9609 69.9555 24.579 69.9555 24.1094C69.9555 23.6399 69.5689 23.2583 69.093 23.2583ZM69.093 23.3898C69.4951 23.3898 69.8215 23.7111 69.8215 24.1094C69.8215 24.5074 69.4951 24.8298 69.093 24.8298C68.6897 24.8298 68.3629 24.5074 68.3629 24.1094C68.3629 23.7111 68.6897 23.3898 69.093 23.3898Z" fill="white"/>
<path d="M25.9805 16.4942C26.0531 18.1174 27.4743 24.3115 27.4743 24.3115C27.9966 25.566 28.4463 24.3115 28.4463 24.3115C30.1658 19.2228 26.6519 16.2739 26.6519 16.2739C25.7548 15.7566 25.9805 16.4942 25.9805 16.4942ZM46.3833 15.6099C46.3833 15.6099 48.1036 16.7897 46.3833 17.0108C46.3833 17.0108 39.9554 17.748 35.1724 22.1741C35.1724 22.1741 27.9966 28.367 25.3067 35.1523C25.3067 35.1523 24.4097 35.1523 24.7099 33.8254C25.0085 32.4981 26.8014 26.6715 34.7977 19.5191C34.7977 19.5191 42.4982 12.5862 46.3833 15.6099Z" fill="#FF4600"/>
</svg>
