<svg width="78" height="50" viewBox="0 0 78 50" fill="none" xmlns="http://www.w3.org/2000/svg">
<rect width="78.125" height="50" rx="4.6875" fill="#082069"/>
<path d="M23.2033 32.6562H19.9699C19.7487 32.6562 19.5605 32.8173 19.526 33.036L18.2182 41.3406C18.1922 41.5045 18.3189 41.6522 18.4849 41.6522H20.0285C20.2498 41.6522 20.438 41.4912 20.4725 41.2719L20.8252 39.0321C20.8592 38.8128 21.0479 38.6518 21.2687 38.6518H22.2923C24.4222 38.6518 25.6514 37.6195 25.9724 35.5738C26.1171 34.6788 25.9786 33.9755 25.5602 33.4831C25.1006 32.9423 24.2855 32.6562 23.2033 32.6562ZM23.5763 35.6893C23.3995 36.8514 22.513 36.8514 21.6559 36.8514H21.168L21.5103 34.6811C21.5306 34.55 21.6441 34.4534 21.7764 34.4534H22.0001C22.584 34.4534 23.1348 34.4534 23.4194 34.7867C23.5891 34.9856 23.6411 35.2811 23.5763 35.6893Z" fill="white"/>
<path d="M32.8704 35.6498H31.322C31.1901 35.6498 31.0761 35.7464 31.0558 35.8775L30.9872 36.3113L30.879 36.1541C30.5438 35.6668 29.7963 35.5039 29.0502 35.5039C27.3392 35.5039 25.8778 36.8019 25.5932 38.6227C25.4452 39.5309 25.6556 40.3994 26.17 41.0051C26.6418 41.562 27.317 41.794 28.1202 41.794C29.4989 41.794 30.2634 40.9061 30.2634 40.9061L30.1944 41.337C30.1684 41.5018 30.2951 41.6496 30.4601 41.6496H31.8548C32.0765 41.6496 32.2638 41.4886 32.2988 41.2693L33.1356 35.9614C33.1621 35.798 33.0358 35.6498 32.8704 35.6498ZM30.7121 38.6681C30.5627 39.5541 29.8606 40.1489 28.9651 40.1489C28.5155 40.1489 28.1562 40.0045 27.9255 39.7308C27.6966 39.459 27.6096 39.0721 27.6824 38.6411C27.8219 37.7627 28.5358 37.1485 29.4176 37.1485C29.8573 37.1485 30.2147 37.2949 30.4501 37.5709C30.6861 37.8499 30.7797 38.2391 30.7121 38.6681Z" fill="white"/>
<path d="M41.1164 35.6504H39.5605C39.412 35.6504 39.2726 35.7243 39.1884 35.8479L37.0424 39.014L36.1328 35.9715C36.0756 35.7811 35.9002 35.6504 35.7016 35.6504H34.1726C33.9868 35.6504 33.8577 35.8322 33.9168 36.0074L35.6307 41.045L34.0194 43.3233C33.8927 43.5027 34.0204 43.7494 34.2393 43.7494H35.7933C35.9408 43.7494 36.0789 43.6775 36.1626 43.5562L41.3377 36.0742C41.4616 35.8952 41.3344 35.6504 41.1164 35.6504Z" fill="white"/>
<path d="M46.2658 32.6543H43.0319C42.8112 32.6543 42.623 32.8153 42.5885 33.0341L41.2807 41.3387C41.2547 41.5025 41.3814 41.6503 41.5464 41.6503H43.2059C43.3601 41.6503 43.492 41.5375 43.5161 41.3841L43.8872 39.0301C43.9213 38.8109 44.1099 38.6499 44.3307 38.6499H45.3538C47.4842 38.6499 48.713 37.6175 49.0345 35.5718C49.1796 34.6768 49.0401 33.9736 48.6217 33.4811C48.1626 32.9403 47.348 32.6543 46.2658 32.6543ZM46.6389 35.6874C46.4625 36.8494 45.576 36.8494 44.7184 36.8494H44.2309L44.5737 34.6792C44.594 34.548 44.7066 34.4514 44.8394 34.4514H45.063C45.6465 34.4514 46.1977 34.4514 46.4824 34.7848C46.6521 34.9837 46.7036 35.2792 46.6389 35.6874Z" fill="white"/>
<path d="M55.9308 35.6498H54.3834C54.2505 35.6498 54.1375 35.7464 54.1177 35.8775L54.0491 36.3113L53.9404 36.1541C53.6052 35.6668 52.8582 35.5039 52.1121 35.5039C50.4011 35.5039 48.9402 36.8019 48.6556 38.6227C48.5081 39.5309 48.7175 40.3994 49.2319 41.0051C49.7047 41.562 50.3789 41.794 51.1821 41.794C52.5608 41.794 53.3253 40.9061 53.3253 40.9061L53.2563 41.337C53.2303 41.5018 53.357 41.6496 53.5229 41.6496H54.9172C55.138 41.6496 55.3261 41.4886 55.3606 41.2693L56.198 35.9614C56.2235 35.798 56.0968 35.6498 55.9308 35.6498ZM53.7726 38.6681C53.6241 39.5541 52.9211 40.1489 52.0256 40.1489C51.5769 40.1489 51.2167 40.0045 50.9859 39.7308C50.7571 39.459 50.6711 39.0721 50.7429 38.6411C50.8833 37.7627 51.5963 37.1485 52.4781 37.1485C52.9178 37.1485 53.2752 37.2949 53.5106 37.5709C53.7475 37.8499 53.8411 38.2391 53.7726 38.6681Z" fill="white"/>
<path d="M57.7563 32.8825L56.4292 41.3391C56.4032 41.503 56.5299 41.6507 56.6949 41.6507H58.0291C58.2508 41.6507 58.439 41.4897 58.473 41.2705L59.7817 32.9664C59.8077 32.8025 59.681 32.6543 59.516 32.6543H58.022C57.8901 32.6548 57.7766 32.7514 57.7563 32.8825Z" fill="white"/>
<path opacity="0.68" d="M46.981 11.5997C47.2375 9.9616 46.9793 8.84722 46.0948 7.8375C45.1209 6.72612 43.3617 6.25 41.1108 6.25H34.5769C34.117 6.25 33.7251 6.58522 33.6536 7.04053L30.9327 24.3207C30.8792 24.6617 31.1423 24.9699 31.4867 24.9699H35.5204L35.242 26.7382C35.1951 27.0366 35.4251 27.3061 35.7266 27.3061H39.1267C39.529 27.3061 39.8716 27.013 39.9344 26.6147L39.9678 26.4414L40.6082 22.3734L40.6495 22.1486C40.7123 21.7505 41.0549 21.4569 41.4572 21.4569H41.9658C45.2597 21.4569 47.8388 20.1167 48.5923 16.2404C48.9073 14.6207 48.7444 13.2687 47.9116 12.3182C47.66 12.0312 47.3465 11.7936 46.981 11.5997Z" fill="white"/>
<path opacity="0.7" d="M46.981 11.5997C47.2375 9.9616 46.9793 8.84722 46.0948 7.8375C45.1209 6.72612 43.3617 6.25 41.1108 6.25H34.5769C34.117 6.25 33.7251 6.58522 33.6536 7.04053L30.9327 24.3207C30.8792 24.6617 31.1423 24.9699 31.4867 24.9699H35.5204L36.5336 18.5344L36.5021 18.7362C36.5739 18.2811 36.9621 17.9456 37.4222 17.9456H39.3395C43.1047 17.9456 46.053 16.4135 46.9142 11.9825C46.9399 11.8517 46.9615 11.7245 46.981 11.5997Z" fill="white"/>
<path d="M37.6222 11.6214C37.6653 11.3477 37.8408 11.1234 38.077 11.0101C38.1843 10.9587 38.3044 10.9299 38.4301 10.9299H43.5518C44.1586 10.9299 44.7243 10.9698 45.2415 11.0532C45.3892 11.0771 45.5331 11.1045 45.6729 11.1356C45.8125 11.1667 45.9483 11.2012 46.0796 11.2398C46.1453 11.2589 46.2097 11.2793 46.2733 11.3003C46.5273 11.3848 46.7639 11.4843 46.9814 11.5999C47.238 9.96182 46.9797 8.84743 46.0952 7.83771C45.1209 6.72612 43.3617 6.25 41.1108 6.25H34.5769C34.117 6.25 33.7251 6.58522 33.6536 7.04053L30.9327 24.3207C30.8792 24.6617 31.1423 24.9699 31.4867 24.9699H35.5204L36.5336 18.5344L37.6222 11.6214Z" fill="white"/>
</svg>
