<svg width="78" height="50" viewBox="0 0 78 50" fill="none" xmlns="http://www.w3.org/2000/svg">
<rect width="78.125" height="50" rx="4.6875" fill="#1D1D1D"/>
<path d="M7.11719 21.7226H8.70054L9.07828 24.538H9.0903L9.50614 21.7226H11.3368L11.7512 24.538H11.7632L12.1418 21.7226H13.7252L12.761 26.1973H10.8419L10.4281 23.2985H10.4161L10.0014 26.1973H8.08279L7.11719 21.7226Z" fill="#FDDF12"/>
<path d="M14.7578 21.7226H18.156V22.8893H16.4537V23.3651H18.0259V24.531H16.4537V25.0329H18.2114V26.1973H14.7578V21.7226Z" fill="#FDDF12"/>
<path d="M21.7821 22.9921C21.7754 22.7133 21.621 22.6199 21.3918 22.6199C21.1078 22.6199 20.983 22.7438 20.983 22.8811C20.983 23.0408 21.0882 23.1095 21.2737 23.1656C21.6142 23.2657 22.239 23.3884 22.6903 23.5812C23.2547 23.816 23.5015 24.2199 23.5015 24.7582C23.5015 25.8554 22.6109 26.3145 21.3473 26.3145C20.2709 26.3145 19.2812 25.9798 19.2812 24.8143H20.9771C20.9771 24.9393 21.0023 25.0626 21.07 25.1562C21.1377 25.2416 21.2494 25.2974 21.4161 25.2974C21.6758 25.2974 21.844 25.1301 21.844 24.9323C21.844 24.7655 21.7139 24.679 21.5459 24.6288L20.2896 24.2575C19.6036 24.0526 19.3627 23.6364 19.3627 23.0608C19.3627 22.1306 20.1115 21.6037 21.4161 21.6037C22.5297 21.6037 23.3664 21.9519 23.3664 22.9921H21.7821Z" fill="#FDDF12"/>
<path d="M25.5616 22.9269H24.4609V21.7228H28.4329V22.9269H27.3314V26.1973H25.5616V22.9269Z" fill="#FDDF12"/>
<path d="M29.582 21.7226H32.9797V22.8893H31.2788V23.3651H32.8501V24.531H31.2788V25.0329H33.0362V26.1973H29.582V21.7226Z" fill="#FDDF12"/>
<path d="M34.3008 21.7226H36.9432C37.9024 21.7226 38.4656 22.0149 38.4656 22.8585C38.4656 23.3727 38.2485 23.7616 37.5791 23.924V23.936C38.0131 23.9736 38.2485 24.1646 38.3346 24.5069C38.4334 24.8905 38.4222 25.5225 38.6256 26.1973H36.8937C36.7891 25.8629 36.7331 25.2991 36.6704 24.9158C36.6346 24.6915 36.5224 24.6064 36.2378 24.6064H36.033V26.1973H34.3008V21.7226ZM36.1816 23.5885C36.5224 23.5885 36.7697 23.4708 36.7697 23.137C36.7697 22.8086 36.5403 22.7399 36.193 22.7399H36.033V23.5885H36.1816Z" fill="#FDDF12"/>
<path d="M39.8086 21.7226H41.93L42.8754 24.432H42.8888V21.7226H44.3248V26.1973H42.2034L41.2557 23.4708H41.2431V26.1973H39.8086V21.7226Z" fill="#FDDF12"/>
<path d="M23.4666 30.0548C23.4666 31.134 22.693 31.6738 21.3446 31.6738C19.9954 31.6738 19.2227 31.134 19.2227 30.0548V27.0811H20.9918V29.9808C20.9918 30.3339 21.1591 30.4722 21.3446 30.4722C21.5301 30.4722 21.6975 30.3339 21.6975 29.9808V27.0811H23.4666V30.0548Z" fill="#FDDF12"/>
<path d="M24.8828 27.083H27.0051L27.9511 29.7919H27.9637V27.083H29.3987V31.5586H27.2767L26.3311 28.8303H26.317V31.5586H24.8828V27.083Z" fill="#FDDF12"/>
<path d="M30.8477 27.083H32.6153V31.5586H30.8477V27.083Z" fill="#FDDF12"/>
<path d="M36.2092 26.9673C37.7504 26.9673 38.5179 27.9274 38.5179 29.3222C38.5179 30.7165 37.7504 31.6777 36.2092 31.6777C34.669 31.6777 33.9023 30.7165 33.9023 29.3222C33.9023 27.9274 34.669 26.9673 36.2092 26.9673ZM36.2092 30.5125C36.4832 30.5125 36.6854 30.3569 36.6854 29.3222C36.6854 28.3116 36.495 28.132 36.2092 28.132C35.9256 28.132 35.7333 28.3116 35.7333 29.3222C35.7333 30.3569 35.939 30.5125 36.2092 30.5125Z" fill="#FDDF12"/>
<path d="M39.8086 27.083H41.93L42.8754 29.7919H42.8888V27.083H44.3248V31.5586H42.2034L41.2557 28.8303H41.2431V31.5586H39.8086V27.083Z" fill="#FDDF12"/>
<path d="M60.9827 21.6589H60.2287L59.3844 27.94H59.3572L58.4326 21.6589H54.3475L53.4206 27.94H53.3939L52.552 21.6589H49.0195L51.1729 31.6404H55.4535L56.3772 25.1741H56.4053L57.3287 31.6404H61.6093L61.8238 30.6421C61.2764 30.0598 60.9827 29.2793 60.9827 28.294V21.6589Z" fill="#FDDF12"/>
<path d="M60.9844 21.6591V28.2942C60.9844 29.2795 61.278 30.06 61.8254 30.6423L63.7619 21.6591H60.9844Z" fill="white"/>
<path d="M66.5028 21.6595V28.1296C66.5028 28.9171 66.1297 29.2238 65.716 29.2238C65.3022 29.2238 64.9291 28.9171 64.9291 28.1296V21.6595H64.0869L62.0977 30.891C62.9047 31.5635 64.1267 31.906 65.716 31.906C68.7244 31.906 70.4502 30.7014 70.4502 28.2945V21.6595H66.5028Z" fill="#FDDF12"/>
<path d="M46.4277 21.6592H45.8398L47.9554 31.6406H48.5438L46.4277 21.6592Z" fill="#FDDF12"/>
<path d="M49.5645 31.6406H50.1526L48.0368 21.6592H47.4492L49.5645 31.6406Z" fill="#FDDF12"/>
<path d="M71.6419 22.137C71.6366 22.0701 71.6005 22.0369 71.5321 22.0369C71.4796 22.0369 71.4264 22.0645 71.4264 22.1223C71.4264 22.1936 71.4907 22.2021 71.5474 22.2156C71.6483 22.2415 71.7966 22.2699 71.7966 22.4023C71.7966 22.5664 71.6536 22.623 71.5115 22.623C71.3607 22.623 71.2535 22.5646 71.2579 22.3979H71.4026C71.3974 22.471 71.4396 22.5206 71.5136 22.5206C71.5702 22.5206 71.6457 22.5033 71.6457 22.4328C71.6457 22.3548 71.5512 22.3492 71.4942 22.3348C71.4021 22.3119 71.2753 22.2699 71.2753 22.1525C71.2753 22.0017 71.4147 21.9344 71.5503 21.9344C71.6786 21.9344 71.7784 22.004 71.7784 22.137H71.6419Z" fill="#FDDF12"/>
<path d="M72.3186 22.6113H72.2003L72.0256 22.044L72.0236 22.0457V22.6113H71.8906V21.9503H72.1234L72.2616 22.4311H72.2634L72.4137 21.9503H72.6379V22.6113H72.5053V22.0457L72.5038 22.044L72.3186 22.6113Z" fill="#FDDF12"/>
</svg>
