<svg width="24" height="24" viewBox="0 0 24 24" fill="none" xmlns="http://www.w3.org/2000/svg">
<mask id="mask0_0_4616" style="mask-type:alpha" maskUnits="userSpaceOnUse" x="0" y="0" width="24" height="24">
<rect width="24" height="24" fill="#D9D9D9"/>
</mask>
<g mask="url(#mask0_0_4616)">
<path d="M19.5248 11.24V17.6C19.5248 18.04 19.361 18.4167 19.0336 18.73C18.7061 19.0434 18.3125 19.2 17.8526 19.2H6.14757C5.68773 19.2 5.29407 19.0434 4.96661 18.73C4.63915 18.4167 4.47542 18.04 4.47542 17.6V11.24C4.15492 10.96 3.90758 10.6 3.7334 10.16C3.55922 9.72005 3.55573 9.24005 3.72295 8.72005L4.60083 6.00005C4.71231 5.65338 4.91087 5.36672 5.19653 5.14005C5.48219 4.91338 5.81314 4.80005 6.18937 4.80005H17.8108C18.1871 4.80005 18.5145 4.91005 18.7932 5.13005C19.0719 5.35005 19.274 5.64005 19.3994 6.00005L20.2772 8.72005C20.4445 9.24005 20.441 9.71338 20.2668 10.14C20.0926 10.5667 19.8453 10.9334 19.5248 11.24ZM13.8395 10.4C14.2157 10.4 14.5014 10.2767 14.6964 10.03C14.8915 9.78338 14.9682 9.50672 14.9264 9.20005L14.4665 6.40005H12.8362V9.36005C12.8362 9.64005 12.9337 9.88338 13.1288 10.09C13.3239 10.2967 13.5608 10.4 13.8395 10.4ZM10.0771 10.4C10.3976 10.4 10.6589 10.2967 10.8609 10.09C11.063 9.88338 11.164 9.64005 11.164 9.36005V6.40005H9.53367L9.07383 9.20005C9.0181 9.52005 9.09125 9.80005 9.2933 10.04C9.49535 10.28 9.75663 10.4 10.0771 10.4ZM6.35659 10.4C6.60741 10.4 6.82688 10.3134 7.015 10.14C7.20311 9.96672 7.31807 9.74672 7.35988 9.48005L7.81972 6.40005H6.18937L5.3533 9.08005C5.26969 9.34671 5.31498 9.63338 5.48916 9.94005C5.66334 10.2467 5.95248 10.4 6.35659 10.4ZM17.6436 10.4C18.0477 10.4 18.3403 10.2467 18.5215 9.94005C18.7026 9.63338 18.7444 9.34671 18.6469 9.08005L17.769 6.40005H16.1805L16.6403 9.48005C16.6821 9.74672 16.7971 9.96672 16.9852 10.14C17.1733 10.3134 17.3928 10.4 17.6436 10.4Z" fill="#1D1D1D"/>
</g>
</svg>
