<svg width="14" height="12" viewBox="0 0 14 12" fill="none" xmlns="http://www.w3.org/2000/svg">
<path d="M13.2706 5.36667V10.6667C13.2706 11.0333 13.1341 11.3472 12.8612 11.6083C12.5884 11.8694 12.2603 12 11.8771 12H2.12289C1.73969 12 1.41165 11.8694 1.13876 11.6083C0.865876 11.3472 0.729433 11.0333 0.729433 10.6667V5.36667C0.462354 5.13333 0.256238 4.83333 0.111086 4.46667C-0.0340663 4.1 -0.0369693 3.7 0.102377 3.26667L0.833943 1C0.92684 0.711111 1.09231 0.472222 1.33036 0.283333C1.56841 0.0944445 1.8442 0 2.15773 0H11.8423C12.1558 0 12.4287 0.0916667 12.6609 0.275C12.8932 0.458333 13.0615 0.7 13.1661 1L13.8976 3.26667C14.037 3.7 14.0341 4.09444 13.8889 4.45C13.7438 4.80556 13.5376 5.11111 13.2706 5.36667ZM8.53281 4.66667C8.84633 4.66667 9.08438 4.56389 9.24695 4.35833C9.40952 4.15278 9.47339 3.92222 9.43855 3.66667L9.05535 1.33333H7.69673V3.8C7.69673 4.03333 7.77801 4.23611 7.94059 4.40833C8.10316 4.58056 8.30056 4.66667 8.53281 4.66667ZM5.39752 4.66667C5.6646 4.66667 5.88233 4.58056 6.05071 4.40833C6.21908 4.23611 6.30327 4.03333 6.30327 3.8V1.33333H4.94465L4.56145 3.66667C4.515 3.93333 4.57596 4.16667 4.74434 4.36667C4.91271 4.56667 5.13044 4.66667 5.39752 4.66667ZM2.29707 4.66667C2.50609 4.66667 2.68899 4.59444 2.84575 4.45C3.00251 4.30556 3.09831 4.12222 3.13315 3.9L3.51635 1.33333H2.15773L1.461 3.56667C1.39133 3.78889 1.42907 4.02778 1.57422 4.28333C1.71937 4.53889 1.96032 4.66667 2.29707 4.66667ZM11.7029 4.66667C12.0397 4.66667 12.2835 4.53889 12.4345 4.28333C12.5854 4.02778 12.6203 3.78889 12.539 3.56667L11.8074 1.33333H10.4836L10.8668 3.9C10.9017 4.12222 10.9975 4.30556 11.1543 4.45C11.311 4.59444 11.4939 4.66667 11.7029 4.66667Z" fill="#1D1D1D"/>
</svg>
