<svg width="29" height="29" viewBox="0 0 29 29" fill="none" xmlns="http://www.w3.org/2000/svg">
<path d="M26.8375 28.5C23.5389 28.5 20.2799 27.7809 17.0604 26.3427C13.841 24.9045 10.9118 22.866 8.27292 20.2271C5.63403 17.5882 3.59549 14.659 2.15729 11.4396C0.719097 8.22014 0 4.96111 0 1.6625C0 1.1875 0.158333 0.791667 0.475 0.475C0.791667 0.158333 1.1875 0 1.6625 0H8.075C8.44444 0 8.77431 0.125347 9.06458 0.376042C9.35486 0.626736 9.52639 0.923611 9.57917 1.26667L10.6083 6.80833C10.6611 7.23056 10.6479 7.58681 10.5688 7.87708C10.4896 8.16736 10.3444 8.41806 10.1333 8.62917L6.29375 12.5083C6.82153 13.4847 7.44826 14.4281 8.17396 15.3385C8.89965 16.249 9.69792 17.1264 10.5688 17.9708C11.3868 18.7889 12.2444 19.5476 13.1417 20.2469C14.0389 20.9462 14.9889 21.5861 15.9917 22.1667L19.7125 18.4458C19.95 18.2083 20.2601 18.0302 20.6427 17.9115C21.0253 17.7927 21.4014 17.7597 21.7708 17.8125L27.2333 18.9208C27.6028 19.0264 27.9062 19.2177 28.1437 19.4948C28.3813 19.7719 28.5 20.0819 28.5 20.425V26.8375C28.5 27.3125 28.3417 27.7083 28.025 28.025C27.7083 28.3417 27.3125 28.5 26.8375 28.5Z" fill="#1D1D1D" fill-opacity="0.7"/>
</svg>
