<svg width="40" height="24" viewBox="0 0 40 24" fill="none" xmlns="http://www.w3.org/2000/svg">
<path fill-rule="evenodd" clip-rule="evenodd" d="M28.5156 0.235625C31.9836 1.04031 33.3102 3.0682 34.9734 5.85938H28.5156V0.235625ZM8.24828 6.09375C8.92734 6.09375 9.42016 6.42148 9.42016 7.1875C9.42016 7.83359 8.89742 8.35758 8.25164 8.35938H1.17188C0.524609 8.35938 0 8.8843 0 9.53125C0 10.1785 0.524609 10.7031 1.17188 10.7031H11.7188C12.3721 10.7031 12.8952 11.2273 12.8952 11.875C12.8952 12.5223 12.3706 13.0469 11.7234 13.0469H1.17188C0.524609 13.0469 0 13.5715 0 14.2188C0 14.866 0.524609 15.3906 1.17188 15.3906H3.75V18.9062C3.75 19.5535 4.27461 20.0781 4.92188 20.0781H7.2775C7.69742 22.1466 9.52516 23.6719 11.6797 23.6719C13.8342 23.6719 15.662 22.1466 16.0819 20.0781H27.9806C28.4005 22.1466 30.2283 23.6719 32.3828 23.6719C34.5373 23.6719 36.3651 22.1466 36.785 20.0781H38.8281C39.4754 20.0781 40 19.5535 40 18.9062V11.875C40 8.43656 36.3733 8.20828 36.3699 8.20312H27.3438C26.6965 8.20312 26.1719 7.67852 26.1719 7.03125V0H4.92188C4.27461 0 3.75 0.524609 3.75 1.17188V3.75H2.34375C1.69648 3.75 1.17188 4.27461 1.17188 4.92188C1.17188 5.56914 1.69648 6.09375 2.34375 6.09375H8.24828ZM33.902 17.6605C34.7409 18.4995 34.7409 19.8602 33.902 20.6991C32.5525 22.0487 30.2344 21.0886 30.2344 19.1797C30.2344 17.2711 32.5525 16.311 33.902 17.6605ZM13.1988 17.6605C14.0378 18.4995 14.0378 19.8602 13.1988 20.6991C11.8494 22.0487 9.53125 21.0886 9.53125 19.1797C9.53125 17.2711 11.8494 16.311 13.1988 17.6605Z" fill="#1D1D1D"/>
</svg>
