<svg width="38" height="38" viewBox="0 0 38 38" fill="none" xmlns="http://www.w3.org/2000/svg">
<mask id="mask0_351_342" style="mask-type:alpha" maskUnits="userSpaceOnUse" x="0" y="0" width="38" height="38">
<rect width="38" height="38" fill="#D9D9D9"/>
</mask>
<g mask="url(#mask0_351_342)">
<path d="M0.791016 21.098L1.58268 17.9313H10.291L9.49935 21.098H0.791016ZM11.0827 31.6667C9.76324 31.6667 8.64171 31.2049 7.7181 30.2813C6.79449 29.3577 6.33268 28.2362 6.33268 26.9167H2.37435L3.16602 23.473H11.3598L12.7848 17.6938H16.1098L18.0889 9.77712H7.12435L7.36185 8.82712C7.52018 8.08824 7.88303 7.48789 8.45039 7.02608C9.01775 6.56428 9.68407 6.33337 10.4493 6.33337H28.4993L27.0348 12.6667H31.666L36.416 19L34.8327 26.9167H31.666C31.666 28.2362 31.2042 29.3577 30.2806 30.2813C29.357 31.2049 28.2355 31.6667 26.916 31.6667C25.5966 31.6667 24.475 31.2049 23.5514 30.2813C22.6278 29.3577 22.166 28.2362 22.166 26.9167H15.8327C15.8327 28.2362 15.3709 29.3577 14.4473 30.2813C13.5237 31.2049 12.4021 31.6667 11.0827 31.6667ZM3.95768 15.3188L4.74935 12.1521H15.041L14.2493 15.3188H3.95768ZM11.0827 28.5C11.5313 28.5 11.9073 28.3483 12.2108 28.0448C12.5143 27.7414 12.666 27.3653 12.666 26.9167C12.666 26.4681 12.5143 26.0921 12.2108 25.7886C11.9073 25.4851 11.5313 25.3334 11.0827 25.3334C10.6341 25.3334 10.258 25.4851 9.95456 25.7886C9.65108 26.0921 9.49935 26.4681 9.49935 26.9167C9.49935 27.3653 9.65108 27.7414 9.95456 28.0448C10.258 28.3483 10.6341 28.5 11.0827 28.5ZM26.916 28.5C27.3646 28.5 27.7407 28.3483 28.0441 28.0448C28.3476 27.7414 28.4993 27.3653 28.4993 26.9167C28.4993 26.4681 28.3476 26.0921 28.0441 25.7886C27.7407 25.4851 27.3646 25.3334 26.916 25.3334C26.4674 25.3334 26.0914 25.4851 25.7879 25.7886C25.4844 26.0921 25.3327 26.4681 25.3327 26.9167C25.3327 27.3653 25.4844 27.7414 25.7879 28.0448C26.0914 28.3483 26.4674 28.5 26.916 28.5ZM25.2139 20.5834H32.8535L33.0119 19.7521L30.0827 15.8334H26.3223L25.2139 20.5834Z" fill="#1D1D1D" fill-opacity="0.7"/>
</g>
</svg>
