<svg width="71" height="54" viewBox="0 0 71 54" fill="none" xmlns="http://www.w3.org/2000/svg">
<path fill-rule="evenodd" clip-rule="evenodd" d="M15.9255 17.6572C15.451 17.1806 15.451 16.4085 15.9255 15.933C16.0386 15.8196 16.173 15.7297 16.321 15.6684C16.4689 15.607 16.6275 15.5755 16.7876 15.5755C16.9478 15.5755 17.1064 15.607 17.2543 15.6684C17.4022 15.7297 17.5366 15.8196 17.6498 15.933L23.1481 21.4313L32.8853 11.6942C32.9982 11.5809 33.1324 11.491 33.2802 11.4296C33.4279 11.3683 33.5863 11.3367 33.7463 11.3367C33.9063 11.3367 34.0647 11.3683 34.2124 11.4296C34.3602 11.491 34.4943 11.5809 34.6073 11.6942C34.7203 11.8072 34.81 11.9415 34.8712 12.0892C34.9324 12.2369 34.9639 12.3952 34.9639 12.5551C34.9639 12.715 34.9324 12.8734 34.8712 13.0211C34.81 13.1688 34.7203 13.3031 34.6073 13.4161L24.0086 24.0159C23.5329 24.4916 22.7595 24.489 22.2843 24.0159L15.9255 17.6572ZM67.0181 45.2049C66.4335 41.6054 63.3043 38.8471 59.541 38.8471C55.7799 38.8471 52.6485 41.6054 52.0652 45.2049H50.5351V24.9757H62.2111L62.6262 25.6152L68.5514 33.0307L68.5601 45.2049H67.0181ZM59.541 51.5625C62.3748 51.5625 64.6803 49.257 64.6803 46.4232C64.6803 43.5894 62.3748 41.284 59.541 41.284C56.7072 41.284 54.4018 43.5894 54.4018 46.4232C54.4018 49.257 56.7072 51.5625 59.541 51.5625ZM40.5174 45.2049H48.0979V13.8067C48.0979 13.5672 47.8963 13.3656 47.6568 13.3656H41.9202C44.2703 23.9885 36.1728 34.1155 25.2667 34.1155C14.3564 34.1155 6.26388 23.9825 8.61235 13.3656H2.87701C2.63771 13.3656 2.437 13.5672 2.437 13.8067V44.766C2.437 45.0031 2.63754 45.2049 2.87701 45.2049H9.38569C9.97023 41.6054 13.1004 38.8471 16.8627 38.8471C20.626 38.8471 23.7553 41.6054 24.3409 45.2049H40.5174ZM16.8626 51.5625C14.0288 51.5625 11.7233 49.257 11.7233 46.4232C11.7233 43.5894 14.0288 41.284 16.8626 41.284C19.6964 41.284 22.0018 43.5894 22.0018 46.4232C22.0018 49.257 19.6964 51.5625 16.8626 51.5625ZM25.2669 2.43807C17.2055 2.43807 10.6461 8.99635 10.6461 17.0588C10.6461 25.1192 17.2055 31.6785 25.2669 31.6785C33.3283 31.6785 39.8877 25.1192 39.8877 17.0588C39.8877 8.99635 33.3283 2.43807 25.2669 2.43807ZM70.9895 32.6016C70.9892 32.3257 70.8953 32.0581 70.7232 31.8424L64.5304 24.0938C64.2357 23.7236 63.8444 22.5389 62.4815 22.5389H50.5349V13.8067C50.5349 12.2206 49.2432 10.9286 47.657 10.9286H41.1839C38.7177 4.54298 32.5132 0 25.2669 0C18.0206 0 11.8161 4.54298 9.34783 10.9286H2.87701C1.28979 10.9286 0 12.2206 0 13.8067V44.766C0 46.3521 1.28961 47.6417 2.87701 47.6417H9.38569C9.97023 51.2423 13.1004 53.9995 16.8627 53.9995C20.626 53.9995 23.7553 51.2421 24.3409 47.6417H52.065C52.6483 51.2423 55.7798 53.9995 59.5409 53.9995C63.3041 53.9995 66.4334 51.2421 67.0179 47.6417H69.7795C70.1028 47.6418 70.4129 47.5135 70.6416 47.285C70.8703 47.0565 70.9989 46.7465 70.9991 46.4232L70.9895 32.6016Z" fill="#1D1D1D"/>
</svg>
