<svg width="38" height="38" viewBox="0 0 38 38" fill="none" xmlns="http://www.w3.org/2000/svg">
<mask id="mask0_351_349" style="mask-type:alpha" maskUnits="userSpaceOnUse" x="0" y="0" width="38" height="38">
<rect width="38" height="38" fill="#D9D9D9"/>
</mask>
<g mask="url(#mask0_351_349)">
<path d="M23.7507 31.6667C20.2145 31.6667 17.2194 30.4396 14.7652 27.9855C12.3111 25.5313 11.084 22.5362 11.084 19C11.084 15.4903 12.3111 12.5018 14.7652 10.0344C17.2194 7.56705 20.2145 6.33337 23.7507 6.33337C27.2604 6.33337 30.2489 7.56705 32.7163 10.0344C35.1836 12.5018 36.4173 15.4903 36.4173 19C36.4173 22.5362 35.1836 25.5313 32.7163 27.9855C30.2489 30.4396 27.2604 31.6667 23.7507 31.6667ZM27.3527 24.898L29.609 22.6417L25.334 18.3667V12.6667H22.1673V19.673L27.3527 24.898ZM3.16732 14.25V11.0834H9.50065V14.25H3.16732ZM1.58398 20.5834V17.4167H9.50065V20.5834H1.58398ZM3.16732 26.9167V23.75H9.50065V26.9167H3.16732Z" fill="#1D1D1D" fill-opacity="0.7"/>
</g>
</svg>
