<svg width="19" height="19" viewBox="0 0 19 19" fill="none" xmlns="http://www.w3.org/2000/svg">
<mask id="mask0_0_4197" style="mask-type:luminance" maskUnits="userSpaceOnUse" x="0" y="0" width="19" height="19">
<path d="M18.7525 9.37625C18.7525 10.6076 18.51 11.8268 18.0388 12.9644C17.5676 14.102 16.8769 15.1356 16.0063 16.0063C15.1356 16.8769 14.102 17.5676 12.9644 18.0388C11.8268 18.51 10.6076 18.7525 9.37625 18.7525C8.14494 18.7525 6.92569 18.51 5.78811 18.0388C4.65054 17.5676 3.6169 16.8769 2.74624 16.0063C1.87557 15.1356 1.18493 14.102 0.713725 12.9644C0.242524 11.8268 -1.83479e-08 10.6076 0 9.37625C0 6.88951 0.987852 4.50463 2.74624 2.74624C4.50463 0.987853 6.88951 0 9.37625 0C11.863 0 14.2479 0.987853 16.0063 2.74624C17.7646 4.50463 18.7525 6.88951 18.7525 9.37625Z" fill="white"/>
</mask>
<g mask="url(#mask0_0_4197)">
<path d="M0.00488281 18.751V12.501H18.7549V18.751H0.00488281Z" fill="#27AE60"/>
<path d="M0.00488281 12.501V6.25098H18.7549V12.501H0.00488281Z" fill="white"/>
<path d="M0.00488281 6.25098V0.000976562H18.7549V6.25098H0.00488281Z" fill="#F39C12"/>
<path d="M9.37646 12.1123C10.8861 12.1123 12.1099 10.8885 12.1099 9.37891C12.1099 7.86929 10.8861 6.64551 9.37646 6.64551C7.86685 6.64551 6.64307 7.86929 6.64307 9.37891C6.64307 10.8885 7.86685 12.1123 9.37646 12.1123Z" fill="#000088"/>
<path d="M9.37659 11.7698C10.6975 11.7698 11.7683 10.699 11.7683 9.37805C11.7683 8.05714 10.6975 6.98633 9.37659 6.98633C8.05567 6.98633 6.98486 8.05714 6.98486 9.37805C6.98486 10.699 8.05567 11.7698 9.37659 11.7698Z" fill="white"/>
<path d="M9.37629 9.85708C9.64048 9.85708 9.85464 9.64292 9.85464 9.37874C9.85464 9.11455 9.64048 8.90039 9.37629 8.90039C9.11211 8.90039 8.89795 9.11455 8.89795 9.37874C8.89795 9.64292 9.11211 9.85708 9.37629 9.85708Z" fill="#000088"/>
<path d="M11.7327 9.80942C11.7982 9.81808 11.8583 9.77201 11.8669 9.70654C11.8756 9.64106 11.8295 9.58097 11.7641 9.57231C11.6986 9.56366 11.6385 9.60972 11.6298 9.6752C11.6212 9.74067 11.6672 9.80077 11.7327 9.80942Z" fill="#000088"/>
<path d="M9.37644 11.7707L9.45844 10.3357L9.37644 9.65234L9.29443 10.3357L9.37644 11.7707Z" fill="#000088"/>
<path d="M11.5393 10.4047C11.6003 10.4301 11.6703 10.4011 11.6956 10.3401C11.7209 10.2791 11.692 10.2091 11.631 10.1838C11.57 10.1585 11.5 10.1874 11.4747 10.2484C11.4494 10.3094 11.4783 10.3794 11.5393 10.4047Z" fill="#000088"/>
<path d="M8.75483 11.6892L9.20563 10.324L9.30335 9.64257L9.04718 10.2815L8.75483 11.6892Z" fill="#000088"/>
<path d="M11.2011 10.9295C11.2535 10.9697 11.3285 10.9599 11.3688 10.9075C11.409 10.8551 11.3992 10.7801 11.3468 10.7398C11.2944 10.6996 11.2193 10.7095 11.1791 10.7618C11.1389 10.8142 11.1487 10.8893 11.2011 10.9295Z" fill="#000088"/>
<path d="M8.17979 11.4495L8.96833 10.2478L9.23898 9.61498L8.82629 10.1658L8.17979 11.4495Z" fill="#000088"/>
<path d="M10.7359 11.3488C10.7761 11.4012 10.8511 11.4111 10.9036 11.371C10.956 11.3308 10.9659 11.2557 10.9258 11.2033C10.8856 11.1509 10.8105 11.141 10.7581 11.1811C10.7057 11.2213 10.6957 11.2964 10.7359 11.3488Z" fill="#000088"/>
<path d="M7.68338 11.0692L8.75621 10.1127L9.18151 9.57166L8.64027 9.99675L7.68338 11.0692Z" fill="#000088"/>
<path d="M10.1836 11.6338C10.2088 11.6948 10.2788 11.7238 10.3398 11.6986C10.4008 11.6734 10.4298 11.6034 10.4046 11.5424C10.3793 11.4814 10.3094 11.4523 10.2484 11.4776C10.1873 11.5028 10.1583 11.5728 10.1836 11.6338Z" fill="#000088"/>
<path d="M7.30701 10.5738L8.59079 9.92731L9.14159 9.51462L8.50879 9.78528L7.30701 10.5738Z" fill="#000088"/>
<path d="M9.56935 11.7671C9.57793 11.8326 9.63798 11.8787 9.70347 11.8701C9.76897 11.8616 9.81512 11.8015 9.80654 11.736C9.79797 11.6705 9.73792 11.6244 9.67242 11.633C9.60692 11.6415 9.56078 11.7016 9.56935 11.7671Z" fill="#000088"/>
<path d="M7.06539 9.99754L8.47304 9.70557L9.11203 9.44959L8.43061 9.54712L7.06539 9.99754Z" fill="#000088"/>
<path d="M8.94546 11.7357C8.93681 11.8011 8.98287 11.8612 9.04834 11.8699C9.11382 11.8785 9.17392 11.8325 9.18257 11.767C9.19123 11.7015 9.14516 11.6414 9.07969 11.6328C9.01421 11.6241 8.95412 11.6702 8.94546 11.7357Z" fill="#000088"/>
<path d="M6.98464 9.37888L8.41968 9.46088L9.10303 9.37888L8.41968 9.29688L6.98464 9.37888Z" fill="#000088"/>
<path d="M8.35094 11.5461C8.32563 11.6071 8.35456 11.6771 8.41556 11.7024C8.47656 11.7277 8.54653 11.6988 8.57184 11.6378C8.59716 11.5768 8.56823 11.5068 8.50723 11.4815C8.44623 11.4562 8.37625 11.4851 8.35094 11.5461Z" fill="#000088"/>
<path d="M7.06697 8.7631L8.43179 9.21389L9.11304 9.31162L8.47425 9.05548L7.06697 8.7631Z" fill="#000088"/>
<path d="M7.8239 11.205C7.78367 11.2574 7.79352 11.3324 7.84589 11.3727C7.89827 11.4129 7.97334 11.4031 8.01358 11.3507C8.05381 11.2983 8.04397 11.2232 7.99159 11.183C7.93921 11.1428 7.86414 11.1526 7.8239 11.205Z" fill="#000088"/>
<path d="M7.30362 8.1837L8.5054 8.97223L9.1382 9.24289L8.5874 8.8302L7.30362 8.1837Z" fill="#000088"/>
<path d="M7.40454 10.7403C7.35211 10.7805 7.34219 10.8556 7.38238 10.908C7.42256 10.9605 7.49765 10.9704 7.55008 10.9302C7.60251 10.89 7.61244 10.8149 7.57225 10.7625C7.53206 10.7101 7.45698 10.7001 7.40454 10.7403Z" fill="#000088"/>
<path d="M7.6844 7.68663L8.64139 8.75962L9.18272 9.18495L8.75739 8.64362L7.6844 7.68663Z" fill="#000088"/>
<path d="M7.12034 10.184C7.0593 10.2093 7.03028 10.2792 7.05552 10.3403C7.08076 10.4013 7.15071 10.4303 7.21175 10.4051C7.27278 10.3798 7.3018 10.3099 7.27656 10.2489C7.25132 10.1878 7.18138 10.1588 7.12034 10.184Z" fill="#000088"/>
<path d="M8.18082 7.30678L8.82731 8.59072L9.24001 9.14159L8.96936 8.50871L8.18082 7.30678Z" fill="#000088"/>
<path d="M6.98756 9.57521C6.92206 9.58379 6.87592 9.64384 6.88449 9.70933C6.89307 9.77483 6.95312 9.82098 7.01861 9.8124C7.08411 9.80383 7.13026 9.74378 7.12168 9.67828C7.11311 9.61278 7.05306 9.56664 6.98756 9.57521Z" fill="#000088"/>
<path d="M8.75661 7.07125L9.04858 8.4789L9.30456 9.11789L9.20703 8.43647L8.75661 7.07125Z" fill="#000088"/>
<path d="M7.02021 8.94766C6.95473 8.939 6.89464 8.98507 6.88598 9.05054C6.87733 9.11602 6.92339 9.17611 6.98887 9.18477C7.05434 9.19342 7.11444 9.14736 7.12309 9.08188C7.13175 9.01641 7.08569 8.95631 7.02021 8.94766Z" fill="#000088"/>
<path d="M9.37649 6.98708L9.29449 8.42212L9.37649 9.10547L9.4585 8.42212L9.37649 6.98708Z" fill="#000088"/>
<path d="M7.21166 8.35527C7.15065 8.32995 7.08066 8.35889 7.05534 8.41991C7.03003 8.48093 7.05897 8.55092 7.11999 8.57623C7.181 8.60155 7.25099 8.57261 7.27631 8.51159C7.30162 8.45057 7.27268 8.38058 7.21166 8.35527Z" fill="#000088"/>
<path d="M9.99566 7.07177L9.54486 8.43698L9.44714 9.11842L9.70331 8.47944L9.99566 7.07177Z" fill="#000088"/>
<path d="M7.55086 7.82732C7.49849 7.78709 7.42341 7.79693 7.38318 7.84931C7.34294 7.90169 7.35279 7.97676 7.40516 8.01699C7.45754 8.05723 7.53262 8.04738 7.57285 7.99501C7.61308 7.94263 7.60324 7.86756 7.55086 7.82732Z" fill="#000088"/>
<path d="M10.5717 7.30802L9.78314 8.50979L9.51248 9.14259L9.92517 8.5918L10.5717 7.30802Z" fill="#000088"/>
<path d="M8.01309 7.40702C7.9729 7.35459 7.89783 7.34467 7.8454 7.38485C7.79298 7.42504 7.78305 7.50011 7.82324 7.55254C7.86342 7.60496 7.9385 7.61489 7.99092 7.5747C8.04335 7.53452 8.05327 7.45944 8.01309 7.40702Z" fill="#000088"/>
<path d="M11.0661 7.68705L9.99326 8.64392L9.56798 9.18517L10.1092 8.7599L11.0661 7.68705Z" fill="#000088"/>
<path d="M8.57133 7.12229C8.54609 7.06125 8.47615 7.03223 8.41511 7.05747C8.35407 7.08272 8.32505 7.15266 8.35029 7.2137C8.37553 7.27474 8.44548 7.30376 8.50652 7.27851C8.56755 7.25327 8.59657 7.18333 8.57133 7.12229Z" fill="#000088"/>
<path d="M11.4481 8.18228L10.1642 8.82878L9.6133 9.24148L10.2462 8.97083L11.4481 8.18228Z" fill="#000088"/>
<path d="M9.1826 6.99098C9.17402 6.92548 9.11398 6.87934 9.04848 6.88791C8.98298 6.89649 8.93684 6.95653 8.94541 7.02203C8.95399 7.08753 9.01403 7.13367 9.07953 7.1251C9.14503 7.11652 9.19117 7.05648 9.1826 6.99098Z" fill="#000088"/>
<path d="M11.6866 8.76052L10.2789 9.05249L9.63992 9.30847L10.3213 9.21094L11.6866 8.76052Z" fill="#000088"/>
<path d="M9.80747 7.02314C9.81612 6.95766 9.77006 6.89757 9.70458 6.88891C9.63911 6.88026 9.57901 6.92632 9.57036 6.9918C9.5617 7.05727 9.60777 7.11737 9.67324 7.12602C9.73872 7.13468 9.79881 7.08862 9.80747 7.02314Z" fill="#000088"/>
<path d="M11.7683 9.37894L10.3333 9.29693L9.6499 9.37894L10.3333 9.46094L11.7683 9.37894Z" fill="#000088"/>
<path d="M10.4035 7.21368C10.4289 7.15267 10.4 7.08267 10.3389 7.05734C10.2779 7.032 10.2079 7.06093 10.1826 7.12194C10.1573 7.18296 10.1862 7.25296 10.2472 7.27829C10.3082 7.30363 10.3782 7.2747 10.4035 7.21368Z" fill="#000088"/>
<path d="M11.687 9.99842L10.3219 9.54724L9.6404 9.44934L10.2793 9.70569L11.687 9.99842Z" fill="#000088"/>
<path d="M10.9276 7.55305C10.9678 7.50067 10.958 7.42558 10.9056 7.38535C10.8532 7.34512 10.7781 7.35496 10.7379 7.40735C10.6977 7.45973 10.7075 7.53481 10.7599 7.57505C10.8123 7.61528 10.8874 7.60543 10.9276 7.55305Z" fill="#000088"/>
<path d="M11.4481 10.5741L10.2461 9.78556L9.61327 9.51491L10.1641 9.92761L11.4481 10.5741Z" fill="#000088"/>
<path d="M11.3484 8.01657C11.4008 7.97639 11.4108 7.9013 11.3706 7.84886C11.3304 7.79642 11.2553 7.78648 11.2029 7.82666C11.1504 7.86684 11.1405 7.94193 11.1807 7.99437C11.2208 8.04681 11.2959 8.05675 11.3484 8.01657Z" fill="#000088"/>
<path d="M11.0683 11.0706L10.1115 9.99735L9.57022 9.57189L9.99547 10.1133L11.0683 11.0706Z" fill="#000088"/>
<path d="M11.6321 8.57204C11.6931 8.54679 11.7221 8.47686 11.6969 8.41582C11.6717 8.35479 11.6017 8.32578 11.5407 8.35102C11.4797 8.37627 11.4506 8.4462 11.4759 8.50724C11.5011 8.56827 11.5711 8.59728 11.6321 8.57204Z" fill="#000088"/>
<path d="M10.5721 11.4488L9.9256 10.1651L9.51291 9.61427L9.78357 10.2471L10.5721 11.4488Z" fill="#000088"/>
<path d="M11.7644 9.1848C11.8299 9.17622 11.876 9.11617 11.8675 9.05068C11.8589 8.98518 11.7988 8.93903 11.7333 8.94761C11.6678 8.95618 11.6217 9.01623 11.6303 9.08173C11.6388 9.14723 11.6989 9.19337 11.7644 9.1848Z" fill="#000088"/>
<path d="M9.99534 11.6888L9.70337 10.2811L9.44739 9.64212L9.54492 10.3235L9.99534 11.6888Z" fill="#000088"/>
</g>
</svg>
