<svg width="55" height="70" viewBox="0 0 55 70" fill="none" xmlns="http://www.w3.org/2000/svg">
<path d="M39.2697 22.876C39.2697 16.3229 33.9392 10.9912 27.3848 10.9912C20.8305 10.9912 15.5 16.3229 15.5 22.876C15.5 29.4292 20.8305 34.7597 27.3848 34.7597C33.9392 34.7597 39.2697 29.4292 39.2697 22.876ZM17.8333 22.876C17.8333 17.6097 22.1185 13.3245 27.3848 13.3245C32.6512 13.3245 36.9363 17.6085 36.9363 22.876C36.9363 28.1435 32.6512 32.4264 27.3848 32.4264C22.1185 32.4264 17.8333 28.1424 17.8333 22.876Z" fill="#1D1D1D"/>
<path d="M27.3817 70C42.9917 70 54.7633 65.3952 54.7633 59.29C54.7633 54.831 48.3362 51.0393 38.2083 49.4037C44.0487 42.154 50.2565 32.2478 50.2565 22.876C50.2565 10.262 39.9945 0 27.3817 0C14.7688 0 4.50683 10.262 4.50683 22.876C4.50683 32.2478 10.7158 42.154 16.555 49.4037C6.42717 51.0393 0 54.831 0 59.29C0 65.3952 11.7717 70 27.3817 70ZM27.3817 2.33333C38.7088 2.33333 47.9232 11.5488 47.9232 22.876C47.9232 37.3497 31.2188 54.0493 27.3817 57.6928C23.5433 54.0493 6.84017 37.3602 6.84017 22.876C6.84017 11.5488 16.0545 2.33333 27.3817 2.33333ZM18.298 51.5095C22.5552 56.5017 26.2383 59.8302 26.6035 60.1557C26.8173 60.3474 27.0944 60.4535 27.3817 60.4535C27.6689 60.4535 27.946 60.3474 28.1598 60.1557C28.525 59.829 32.2082 56.5017 36.4653 51.5095C46.9408 52.9445 52.43 56.4772 52.43 59.29C52.43 63.252 42.1435 67.6667 27.3817 67.6667C12.6198 67.6667 2.33333 63.252 2.33333 59.29C2.33333 56.4772 7.8225 52.9445 18.298 51.5095Z" fill="#1D1D1D"/>
</svg>
