<svg width="24" height="24" viewBox="0 0 24 24" fill="none" xmlns="http://www.w3.org/2000/svg">
<mask id="mask0_0_4609" style="mask-type:alpha" maskUnits="userSpaceOnUse" x="0" y="0" width="24" height="24">
<rect width="24" height="24" fill="#D9D9D9"/>
</mask>
<g mask="url(#mask0_0_4609)">
<path d="M12.001 12.0009C12.551 12.0009 13.0218 11.805 13.4135 11.4134C13.8051 11.0217 14.001 10.5509 14.001 10.0009C14.001 9.45085 13.8051 8.98002 13.4135 8.58835C13.0218 8.19669 12.551 8.00085 12.001 8.00085C11.451 8.00085 10.9801 8.19669 10.5885 8.58835C10.1968 8.98002 10.001 9.45085 10.001 10.0009C10.001 10.5509 10.1968 11.0217 10.5885 11.4134C10.9801 11.805 11.451 12.0009 12.001 12.0009ZM12.001 19.3509C14.0343 17.4842 15.5426 15.7884 16.526 14.2634C17.5093 12.7384 18.001 11.3842 18.001 10.2009C18.001 8.38419 17.4218 6.89669 16.2635 5.73835C15.1051 4.58002 13.6843 4.00085 12.001 4.00085C10.3176 4.00085 8.89681 4.58002 7.73848 5.73835C6.58014 6.89669 6.00098 8.38419 6.00098 10.2009C6.00098 11.3842 6.49264 12.7384 7.47598 14.2634C8.45931 15.7884 9.96764 17.4842 12.001 19.3509ZM12.001 22.0009C9.31764 19.7175 7.31348 17.5967 5.98848 15.6384C4.66348 13.68 4.00098 11.8675 4.00098 10.2009C4.00098 7.70085 4.80514 5.70919 6.41348 4.22585C8.02181 2.74252 9.88431 2.00085 12.001 2.00085C14.1176 2.00085 15.9801 2.74252 17.5885 4.22585C19.1968 5.70919 20.001 7.70085 20.001 10.2009C20.001 11.8675 19.3385 13.68 18.0135 15.6384C16.6885 17.5967 14.6843 19.7175 12.001 22.0009Z" fill="#1C1B1F"/>
</g>
</svg>
