<svg width="38" height="38" viewBox="0 0 38 38" fill="none" xmlns="http://www.w3.org/2000/svg">
<mask id="mask0_351_313" style="mask-type:alpha" maskUnits="userSpaceOnUse" x="0" y="0" width="38" height="38">
<rect width="38" height="38" fill="#D9D9D9"/>
</mask>
<g mask="url(#mask0_351_313)">
<path d="M9.5 33.25V4.75H20.5833C23.2222 4.75 25.4653 5.67361 27.3125 7.52083C29.1597 9.36806 30.0833 11.6111 30.0833 14.25C30.0833 16.8889 29.1597 19.1319 27.3125 20.9792C25.4653 22.8264 23.2222 23.75 20.5833 23.75H15.8333V33.25H9.5ZM15.8333 17.4167H20.9C21.7708 17.4167 22.5163 17.1066 23.1365 16.4865C23.7566 15.8663 24.0667 15.1208 24.0667 14.25C24.0667 13.3792 23.7566 12.6337 23.1365 12.0135C22.5163 11.3934 21.7708 11.0833 20.9 11.0833H15.8333V17.4167Z" fill="#1D1D1D" fill-opacity="0.7"/>
</g>
</svg>
