<svg width="36" height="36" viewBox="0 0 36 36" fill="none" xmlns="http://www.w3.org/2000/svg">
<path d="M1.5 6V15H10.5" stroke="#1D1D1D" stroke-width="2.76292" stroke-linecap="round" stroke-linejoin="round"/>
<path d="M34.5 30V21H25.5" stroke="#1D1D1D" stroke-width="2.76292" stroke-linecap="round" stroke-linejoin="round"/>
<path d="M30.735 13.5003C29.9742 11.3505 28.6814 9.42846 26.9768 7.91348C25.2723 6.39851 23.2118 5.34 20.9876 4.83674C18.7634 4.33349 16.4478 4.40187 14.2572 5.03552C12.0666 5.66916 10.0721 6.84743 8.46 8.46035L1.5 15.0003M34.5 21.0003L27.54 27.5403C25.928 29.1533 23.9334 30.3315 21.7428 30.9651C19.5522 31.5989 17.2366 31.6673 15.0124 31.164C12.7882 30.6606 10.7277 29.6022 9.02321 28.0872C7.3187 26.5722 6.02576 24.6501 5.265 22.5003" stroke="#1D1D1D" stroke-width="2.76292" stroke-linecap="round" stroke-linejoin="round"/>
</svg>
