<svg width="38" height="38" viewBox="0 0 38 38" fill="none" xmlns="http://www.w3.org/2000/svg">
<mask id="mask0_351_306" style="mask-type:alpha" maskUnits="userSpaceOnUse" x="0" y="0" width="38" height="38">
<rect width="38" height="38" fill="#D9D9D9"/>
</mask>
<g mask="url(#mask0_351_306)">
<path d="M14.25 33.25C12.5083 33.25 11.0174 32.6299 9.77708 31.3896C8.53681 30.1493 7.91667 28.6583 7.91667 26.9167V13.9729C6.99306 13.6299 6.23438 13.0559 5.64062 12.251C5.04688 11.4462 4.75 10.5292 4.75 9.5C4.75 8.18056 5.21181 7.05903 6.13542 6.13542C7.05903 5.21181 8.18056 4.75 9.5 4.75C10.8194 4.75 11.941 5.21181 12.8646 6.13542C13.7882 7.05903 14.25 8.18056 14.25 9.5C14.25 10.5292 13.9531 11.4462 13.3594 12.251C12.7656 13.0559 12.0069 13.6299 11.0833 13.9729V26.9167C11.0833 27.7875 11.3934 28.533 12.0135 29.1531C12.6337 29.7733 13.3792 30.0833 14.25 30.0833C15.1208 30.0833 15.8663 29.7733 16.4865 29.1531C17.1066 28.533 17.4167 27.7875 17.4167 26.9167V11.0833C17.4167 9.34167 18.0368 7.85069 19.2771 6.61042C20.5174 5.37014 22.0083 4.75 23.75 4.75C25.4917 4.75 26.9826 5.37014 28.2229 6.61042C29.4632 7.85069 30.0833 9.34167 30.0833 11.0833V24.0271C31.0069 24.3701 31.7656 24.9441 32.3594 25.749C32.9531 26.5538 33.25 27.4708 33.25 28.5C33.25 29.8194 32.7882 30.941 31.8646 31.8646C30.941 32.7882 29.8194 33.25 28.5 33.25C27.1806 33.25 26.059 32.7882 25.1354 31.8646C24.2118 30.941 23.75 29.8194 23.75 28.5C23.75 27.4708 24.0469 26.5472 24.6406 25.7292C25.2344 24.9111 25.9931 24.3438 26.9167 24.0271V11.0833C26.9167 10.2125 26.6066 9.46701 25.9865 8.84688C25.3663 8.22674 24.6208 7.91667 23.75 7.91667C22.8792 7.91667 22.1337 8.22674 21.5135 8.84688C20.8934 9.46701 20.5833 10.2125 20.5833 11.0833V26.9167C20.5833 28.6583 19.9632 30.1493 18.7229 31.3896C17.4826 32.6299 15.9917 33.25 14.25 33.25Z" fill="#1D1D1D" fill-opacity="0.7"/>
</g>
</svg>
