<svg width="53" height="70" viewBox="0 0 53 70" fill="none" xmlns="http://www.w3.org/2000/svg">
<path d="M45.4264 65.4935H43.5233C43.3126 65.4933 43.1105 65.4095 42.9615 65.2606C42.8125 65.1116 42.7286 64.9096 42.7283 64.6989V54.6072C42.7283 52.8883 43.7527 51.3189 45.3374 50.6097C45.3428 50.6074 45.3478 50.6044 45.353 50.6021C52.2438 47.5125 55.0867 39.5 50.0277 30.7182C49.6475 30.0577 48.9264 29.6477 48.1461 29.6477H32.0462C31.2661 29.6477 30.545 30.0579 30.1645 30.718C25.1225 39.4733 27.9176 47.5065 34.8551 50.6099C36.4398 51.3192 37.4642 52.8881 37.4642 54.6074V64.699C37.464 64.9097 37.3803 65.1117 37.2313 65.2607C37.0823 65.4096 36.8803 65.4934 36.6696 65.4936H34.7662C32.6837 65.4936 30.9894 67.188 30.9894 69.2709C30.9894 69.4642 31.0662 69.6497 31.2029 69.7864C31.3396 69.9232 31.5251 70 31.7185 70H48.4747C48.6681 70 48.8536 69.9232 48.9903 69.7864C49.127 69.6497 49.2038 69.4642 49.2038 69.2709C49.2036 67.1878 47.5091 65.4935 45.4264 65.4935ZM35.3496 49.2294C32.878 48.0904 30.7897 46.0056 29.7396 43.3262C36.5494 48.506 43.8659 39.4829 50.983 41.4891C49.6835 48.4099 41.8913 52.249 35.3496 49.2294ZM31.4279 31.4459C31.5491 31.2361 31.7857 31.1058 32.0461 31.1058H48.1461C48.4064 31.1058 48.6432 31.2361 48.7637 31.4459C50.2147 33.9639 51.2847 37.138 51.1545 40.0293C42.7777 37.8677 35.4921 48.2322 29.0862 40.6714C28.7518 37.5802 29.8837 34.1269 31.4279 31.4459ZM32.5649 68.5415C32.871 67.619 33.7421 66.9517 34.7659 66.9517H36.6693C37.9116 66.9517 38.9223 65.9409 38.9223 64.6987V54.6071C38.9223 53.5083 38.6025 52.4601 38.0446 51.558C39.4621 51.7847 40.7955 51.7698 42.1508 51.5525C41.5908 52.4558 41.2699 53.5064 41.2699 54.6071V64.6987C41.2699 65.9409 42.2808 66.9517 43.5233 66.9517H45.4264C46.4505 66.9517 47.3216 67.6189 47.6278 68.5415H32.5649ZM15.1628 15.087V7.5507C15.1628 7.04963 14.9088 6.60721 14.5227 6.34457L14.9775 2.44057C15.1286 1.14598 14.1176 0 12.8049 0H9.50769C8.20189 0 7.18334 1.13955 7.3351 2.44057L7.78982 6.34484C7.404 6.60748 7.14998 7.0499 7.14998 7.55084V15.087C7.14998 24.4051 0 29.0162 0 42.3467V66.2244C0 68.3062 1.39631 69.9999 3.11254 69.9999H19.2001C20.9162 69.9999 22.3126 68.3062 22.3126 66.2244V42.3467C22.3126 28.9771 15.1628 24.4567 15.1628 15.087ZM9.50769 1.45811H12.8051C13.2456 1.45811 13.579 1.84119 13.5293 2.27172L13.0841 6.09232H9.22879L8.78391 2.27172C8.734 1.84119 9.06732 1.45811 9.50769 1.45811ZM1.45852 44.7382H9.20267C9.39597 44.7385 9.58128 44.8154 9.71796 44.952C9.85464 45.0887 9.93154 45.274 9.9318 45.4673V57.883C9.93154 58.0763 9.85464 58.2616 9.71796 58.3983C9.58128 58.535 9.39597 58.6119 9.20267 58.6121H1.45852V44.7382ZM20.8544 66.2244C20.8544 67.4804 20.0968 68.5415 19.2002 68.5415H3.11268C2.21621 68.5415 1.45852 67.4805 1.45852 66.2244V60.0707H9.20267C10.4089 60.0707 11.3902 59.0894 11.3902 57.8832V45.4675C11.3902 44.2612 10.4089 43.28 9.20267 43.28H1.45852V42.3469C1.45852 29.3386 8.6085 24.9151 8.6085 15.0872V7.5507H13.7046V15.0869C13.7046 24.6744 20.8545 29.5255 20.8545 42.3466V66.2244H20.8544Z" fill="#1D1D1D"/>
</svg>
