<svg width="13" height="13" viewBox="0 0 13 13" fill="none" xmlns="http://www.w3.org/2000/svg">
<mask id="mask0_1_1450" style="mask-type:alpha" maskUnits="userSpaceOnUse" x="0" y="0" width="13" height="13">
<rect width="12.3157" height="12.3157" fill="#D9D9D9"/>
</mask>
<g mask="url(#mask0_1_1450)">
<path d="M3.59308 11.2887C3.31084 11.2887 3.06924 11.1882 2.86825 10.9872C2.66727 10.7862 2.56677 10.5446 2.56677 10.2624C2.56677 9.98016 2.66727 9.73855 2.86825 9.53756C3.06924 9.33658 3.31084 9.23608 3.59308 9.23608C3.87531 9.23608 4.11692 9.33658 4.31791 9.53756C4.51889 9.73855 4.61939 9.98016 4.61939 10.2624C4.61939 10.5446 4.51889 10.7862 4.31791 10.9872C4.11692 11.1882 3.87531 11.2887 3.59308 11.2887ZM8.72461 11.2887C8.44238 11.2887 8.20077 11.1882 7.99978 10.9872C7.7988 10.7862 7.6983 10.5446 7.6983 10.2624C7.6983 9.98016 7.7988 9.73855 7.99978 9.53756C8.20077 9.33658 8.44238 9.23608 8.72461 9.23608C9.00684 9.23608 9.24845 9.33658 9.44944 9.53756C9.65042 9.73855 9.75092 9.98016 9.75092 10.2624C9.75092 10.5446 9.65042 10.7862 9.44944 10.9872C9.24845 11.1882 9.00684 11.2887 8.72461 11.2887ZM2.6694 2.05194H10.2384C10.4351 2.05194 10.5848 2.1396 10.6874 2.31493C10.7901 2.49026 10.7943 2.66772 10.7002 2.84733L8.87856 6.13151C8.78448 6.30256 8.65833 6.43512 8.50011 6.5292C8.34188 6.62328 8.16869 6.67032 7.98054 6.67032H4.15755L3.59308 7.69663H9.75092V8.72293H3.59308C3.20821 8.72293 2.91743 8.55402 2.72072 8.21619C2.52401 7.87837 2.51546 7.54268 2.69506 7.20913L3.38782 5.95191L1.54047 2.05194H0.51416V1.02563H2.18191L2.6694 2.05194Z" fill="#696969"/>
</g>
</svg>
