<svg width="40" height="35" viewBox="0 0 40 35" fill="none" xmlns="http://www.w3.org/2000/svg">
<path d="M39.9625 10.9475L37.7 1.8925C37.4225 0.78 36.4225 0 35.275 0H4.7275C3.58 0 2.58 0.78 2.3 1.8925L0.0375 10.9475C0.0125 11.045 0 11.1475 0 11.25C0 14.695 2.6625 17.5 5.9375 17.5C7.84 17.5 9.5375 16.5525 10.625 15.0825C11.7125 16.5525 13.41 17.5 15.3125 17.5C17.215 17.5 18.9125 16.5525 20 15.0825C21.0875 16.5525 22.7825 17.5 24.6875 17.5C26.5925 17.5 28.2875 16.5525 29.375 15.0825C30.4625 16.5525 32.1575 17.5 34.0625 17.5C37.3375 17.5 40 14.695 40 11.25C40 11.1475 39.9875 11.045 39.9625 10.9475ZM34.0625 20C32.36 20 30.7425 19.48 29.375 18.53C26.64 20.4325 22.735 20.4325 20 18.53C17.265 20.4325 13.36 20.4325 10.625 18.53C9.2575 19.48 7.64 20 5.9375 20C4.71 20 3.5525 19.7125 2.5 19.2225V32.5C2.5 33.88 3.62 35 5 35H15V25H25V35H35C36.38 35 37.5 33.88 37.5 32.5V19.2225C36.4475 19.7125 35.29 20 34.0625 20Z" fill="#1D1D1D"/>
</svg>
