<svg width="36" height="36" viewBox="0 0 36 36" fill="none" xmlns="http://www.w3.org/2000/svg">
<path d="M24 4.5H1.5V24H24V4.5Z" stroke="#1D1D1D" stroke-width="2.76292" stroke-linecap="round" stroke-linejoin="round"/>
<path d="M24.0002 12H30.0002L34.5002 16.5V24H24.0002V12Z" stroke="#1D1D1D" stroke-width="2.76292" stroke-linecap="round" stroke-linejoin="round"/>
<path d="M8.25 31.502C10.3211 31.502 12 29.823 12 27.752C12 25.6809 10.3211 24.002 8.25 24.002C6.17893 24.002 4.5 25.6809 4.5 27.752C4.5 29.823 6.17893 31.502 8.25 31.502Z" stroke="#1D1D1D" stroke-width="2.76292" stroke-linecap="round" stroke-linejoin="round"/>
<path d="M27.75 31.502C29.821 31.502 31.5 29.823 31.5 27.752C31.5 25.6809 29.821 24.002 27.75 24.002C25.679 24.002 24 25.6809 24 27.752C24 29.823 25.679 31.502 27.75 31.502Z" stroke="#1D1D1D" stroke-width="2.76292" stroke-linecap="round" stroke-linejoin="round"/>
</svg>
