<svg width="20" height="13" viewBox="0 0 20 13" fill="none" xmlns="http://www.w3.org/2000/svg">
<path d="M2.81568 9.58301H0.833496C0.833496 9.91453 0.965192 10.2325 1.19961 10.4669C1.43403 10.7013 1.75198 10.833 2.0835 10.833H2.30225C2.34316 10.374 2.52217 9.93823 2.81568 9.58301ZM12.5001 9.58301H6.35127C6.64476 9.93823 6.82374 10.374 6.86463 10.833H12.5001C12.6106 10.833 12.7166 10.7891 12.7948 10.711C12.8729 10.6328 12.9168 10.5268 12.9168 10.4163V9.99969C12.9168 9.88918 12.8729 9.78319 12.7948 9.70505C12.7166 9.62691 12.6106 9.58301 12.5001 9.58301Z" fill="#FF9900"/>
<path d="M4.58332 12.4996C5.38873 12.4996 6.04164 11.8467 6.04164 11.0413C6.04164 10.2359 5.38873 9.58301 4.58332 9.58301C3.77791 9.58301 3.125 10.2359 3.125 11.0413C3.125 11.8467 3.77791 12.4996 4.58332 12.4996Z" fill="#FF9900"/>
<path d="M19.8132 6.99895L18.2123 3.47695C18.0795 3.18593 17.866 2.93915 17.5971 2.76596C17.3282 2.59277 17.0152 2.50046 16.6953 2.5H14.1667C14.0562 2.5 13.9502 2.5439 13.872 2.62204C13.7939 2.70019 13.75 2.80617 13.75 2.91668V9.47203C14.0521 9.15032 14.4407 8.9228 14.8691 8.81687C15.2974 8.71094 15.7473 8.73112 16.1645 8.87497C16.5817 9.01882 16.9484 9.28021 17.2204 9.62767C17.4924 9.97512 17.6582 10.3938 17.6978 10.8333H18.75C19.0815 10.8333 19.3995 10.7016 19.6339 10.4672C19.8683 10.2328 20 9.91484 20 9.58332V7.86102C20 7.56362 19.9363 7.26967 19.8132 6.99895ZM17.9135 6.66664H15.2083C15.0978 6.66663 14.9919 6.62273 14.9137 6.5446C14.8356 6.46647 14.7917 6.3605 14.7917 6.25V4.58332C14.7917 4.47281 14.8356 4.36683 14.9137 4.28868C14.9919 4.21054 15.0978 4.16664 15.2084 4.16664H16.8877C17.0477 4.16662 17.2043 4.21265 17.3388 4.29924C17.4733 4.38582 17.5801 4.5093 17.6463 4.65492L18.293 6.07758C18.3218 6.14106 18.3343 6.21076 18.3292 6.28031C18.3241 6.34985 18.3017 6.41701 18.2639 6.47564C18.2262 6.53426 18.1743 6.58247 18.1131 6.61584C18.0519 6.64922 17.9832 6.6667 17.9135 6.66668V6.66664Z" fill="#FF9900"/>
<path d="M15.4168 12.4996C16.2222 12.4996 16.8751 11.8467 16.8751 11.0413C16.8751 10.2359 16.2222 9.58301 15.4168 9.58301C14.6114 9.58301 13.9585 10.2359 13.9585 11.0413C13.9585 11.8467 14.6114 12.4996 15.4168 12.4996Z" fill="#FF9900"/>
<path d="M11.6668 0H2.08348C1.75196 0 1.43402 0.131696 1.1996 0.366116C0.965178 0.600537 0.833482 0.918479 0.833482 1.25V6.25H0.43895C0.231606 6.25 0.0392237 6.3918 0.00586432 6.59668C-0.00427064 6.65647 -0.00124169 6.71776 0.01474 6.77626C0.0307217 6.83476 0.0592714 6.88907 0.0983985 6.9354C0.137526 6.98174 0.186289 7.01898 0.241287 7.04453C0.296285 7.07009 0.356196 7.08334 0.416841 7.08336H1.43637C1.64395 7.08336 1.83629 7.22516 1.86965 7.43004C1.87979 7.48983 1.87676 7.55111 1.86078 7.60962C1.8448 7.66812 1.81625 7.72243 1.77712 7.76876C1.73799 7.8151 1.68923 7.85234 1.63423 7.87789C1.57923 7.90345 1.51932 7.9167 1.45868 7.91672H0.439146C0.231606 7.91668 0.0392237 8.05859 0.00586432 8.26332C-0.00427064 8.32311 -0.00124169 8.3844 0.01474 8.4429C0.0307217 8.5014 0.0592714 8.55571 0.0983985 8.60205C0.137526 8.64838 0.186289 8.68562 0.241287 8.71117C0.296285 8.73673 0.356196 8.74998 0.416841 8.75H12.5002C12.6107 8.75 12.7167 8.7061 12.7948 8.62796C12.8729 8.54981 12.9168 8.44383 12.9168 8.33332V1.25C12.9168 0.918479 12.7851 0.600537 12.5507 0.366116C12.3163 0.131696 11.9984 0 11.6668 0Z" fill="#FF9900"/>
</svg>
