<svg width="18" height="18" viewBox="0 0 18 18" fill="none" xmlns="http://www.w3.org/2000/svg">
<path d="M16.6167 6.91806C16.346 6.76072 16.1028 6.56032 15.8967 6.32473C15.9175 5.99674 15.9956 5.67494 16.1275 5.3739C16.37 4.68973 16.6442 3.91473 16.2042 3.31223C15.7642 2.70973 14.9333 2.7289 14.2042 2.74556C13.882 2.77872 13.5565 2.75673 13.2417 2.68056C13.0739 2.40765 12.9542 2.10805 12.8875 1.79473C12.6808 1.09056 12.445 0.294731 11.7208 0.0563974C11.0225 -0.168603 10.3758 0.326397 9.80417 0.761397C9.55749 0.986663 9.27167 1.16488 8.96083 1.28723C8.64675 1.16587 8.35774 0.987613 8.10833 0.761397C7.53833 0.328897 6.89417 -0.171103 6.1925 0.0572308C5.47 0.292231 5.23417 1.09056 5.02583 1.79473C4.95928 2.10703 4.84068 2.40592 4.675 2.6789C4.3596 2.75486 4.03369 2.7774 3.71083 2.74556C2.97917 2.72556 2.155 2.7039 1.71083 3.31223C1.26667 3.92056 1.54417 4.68973 1.7875 5.37306C1.9212 5.67366 2.00049 5.99559 2.02167 6.3239C1.8159 6.55979 1.57298 6.76049 1.3025 6.91806C0.6925 7.33473 0 7.8089 0 8.5789C0 9.3489 0.6925 9.8214 1.3025 10.2397C1.57292 10.3971 1.81583 10.5975 2.02167 10.8331C2.00271 11.1612 1.92569 11.4835 1.79417 11.7847C1.5525 12.4681 1.27917 13.2431 1.71833 13.8456C2.1575 14.4481 2.98583 14.4289 3.71833 14.4122C4.04081 14.3791 4.36657 14.401 4.68167 14.4772C4.84865 14.7504 4.96812 15.0499 5.035 15.3631C5.24167 16.0672 5.4775 16.8631 6.20167 17.1014C6.31777 17.1386 6.43891 17.1577 6.56083 17.1581C7.14684 17.074 7.69149 16.8075 8.1175 16.3964C8.36417 16.1711 8.64999 15.9929 8.96083 15.8706C9.27492 15.9919 9.56392 16.1702 9.81333 16.3964C10.3842 16.8322 11.0308 17.3297 11.73 17.1006C12.4525 16.8656 12.6883 16.0672 12.8967 15.3639C12.9635 15.051 13.0829 14.7517 13.25 14.4789C13.5642 14.4024 13.8891 14.3799 14.2108 14.4122C14.9425 14.4297 15.7667 14.4539 16.2108 13.8456C16.655 13.2372 16.3775 12.4681 16.1342 11.7839C16.0014 11.4836 15.9221 11.1624 15.9 10.8347C16.1059 10.5986 16.3491 10.3979 16.62 10.2406C17.23 9.8239 17.9225 9.3489 17.9225 8.5789C17.9225 7.8089 17.2275 7.33556 16.6167 6.91806Z" fill="#1E40AF"/>
<path d="M8.12764 10.8711C8.04556 10.8713 7.96426 10.8551 7.88845 10.8237C7.81263 10.7922 7.74382 10.746 7.68597 10.6878L6.01931 9.0211C5.90891 8.90262 5.8488 8.74591 5.85166 8.58399C5.85452 8.42208 5.92011 8.26759 6.03462 8.15308C6.14913 8.03857 6.30362 7.97297 6.46554 7.97012C6.62746 7.96726 6.78416 8.02736 6.90264 8.13776L8.18597 9.4211L11.086 7.2461C11.2186 7.14664 11.3853 7.10394 11.5494 7.12738C11.7135 7.15082 11.8615 7.23849 11.961 7.3711C12.0604 7.5037 12.1031 7.67039 12.0797 7.83448C12.0562 7.99858 11.9686 8.14664 11.836 8.2461L8.50264 10.7461C8.39443 10.8272 8.26286 10.871 8.12764 10.8711Z" fill="white"/>
</svg>
