<svg width="38" height="38" viewBox="0 0 38 38" fill="none" xmlns="http://www.w3.org/2000/svg">
<mask id="mask0_351_299" style="mask-type:alpha" maskUnits="userSpaceOnUse" x="0" y="0" width="38" height="38">
<rect width="38" height="38" fill="#D9D9D9"/>
</mask>
<g mask="url(#mask0_351_299)">
<path d="M33.1702 35.427L28.4993 30.7562V34.2791H25.3327V25.3333H34.2785V28.5H30.716L35.3868 33.1708L33.1702 35.427ZM18.9993 34.8333C16.8091 34.8333 14.7507 34.4177 12.8243 33.5864C10.898 32.7552 9.22227 31.627 7.79727 30.202C6.37227 28.777 5.24414 27.1013 4.41289 25.175C3.58164 23.2486 3.16602 21.1902 3.16602 19C3.16602 16.8097 3.58164 14.7513 4.41289 12.825C5.24414 10.8986 6.37227 9.22288 7.79727 7.79788C9.22227 6.37288 10.898 5.24475 12.8243 4.4135C14.7507 3.58225 16.8091 3.16663 18.9993 3.16663C21.1896 3.16663 23.248 3.58225 25.1743 4.4135C27.1007 5.24475 28.7764 6.37288 30.2014 7.79788C31.6264 9.22288 32.7546 10.8986 33.5858 12.825C34.4171 14.7513 34.8327 16.8097 34.8327 19C34.8327 19.5277 34.8063 20.0555 34.7535 20.5833C34.7007 21.1111 34.6216 21.6388 34.516 22.1666H31.2702C31.4021 21.6388 31.5011 21.1111 31.5671 20.5833C31.633 20.0555 31.666 19.5277 31.666 19C31.666 18.4722 31.633 17.9444 31.5671 17.4166C31.5011 16.8888 31.4021 16.3611 31.2702 15.8333H25.8868C25.966 16.3611 26.0254 16.8888 26.065 17.4166C26.1046 17.9444 26.1243 18.4722 26.1243 19C26.1243 19.5277 26.1046 20.0555 26.065 20.5833C26.0254 21.1111 25.966 21.6388 25.8868 22.1666H22.7202C22.7993 21.6388 22.8587 21.1111 22.8983 20.5833C22.9379 20.0555 22.9577 19.5277 22.9577 19C22.9577 18.4722 22.9379 17.9444 22.8983 17.4166C22.8587 16.8888 22.7993 16.3611 22.7202 15.8333H15.2785C15.1993 16.3611 15.14 16.8888 15.1004 17.4166C15.0608 17.9444 15.041 18.4722 15.041 19C15.041 19.5277 15.0608 20.0555 15.1004 20.5833C15.14 21.1111 15.1993 21.6388 15.2785 22.1666H20.5827V25.3333H15.991C16.3077 26.468 16.7167 27.5566 17.2181 28.5989C17.7195 29.6413 18.3132 30.6375 18.9993 31.5875C19.5271 31.5875 20.0549 31.5545 20.5827 31.4885C21.1105 31.4225 21.6382 31.3632 22.166 31.3104V34.5562C21.6382 34.609 21.1105 34.6684 20.5827 34.7343C20.0549 34.8003 19.5271 34.8333 18.9993 34.8333ZM6.72852 22.1666H12.1118C12.0327 21.6388 11.9733 21.1111 11.9337 20.5833C11.8941 20.0555 11.8743 19.5277 11.8743 19C11.8743 18.4722 11.8941 17.9444 11.9337 17.4166C11.9733 16.8888 12.0327 16.3611 12.1118 15.8333H6.72852C6.59657 16.3611 6.49761 16.8888 6.43164 17.4166C6.36567 17.9444 6.33268 18.4722 6.33268 19C6.33268 19.5277 6.36567 20.0555 6.43164 20.5833C6.49761 21.1111 6.59657 21.6388 6.72852 22.1666ZM8.07435 12.6666H12.7452C12.9827 11.6902 13.2796 10.7336 13.6358 9.79683C13.9921 8.86003 14.4077 7.94302 14.8827 7.04579C13.4313 7.52079 12.125 8.23989 10.9639 9.20308C9.80282 10.1663 8.83963 11.3208 8.07435 12.6666ZM14.8827 30.9541C14.4077 30.0569 13.9921 29.1399 13.6358 28.2031C13.2796 27.2663 12.9827 26.3097 12.7452 25.3333H8.07435C8.83963 26.6791 9.80282 27.8336 10.9639 28.7968C12.125 29.76 13.4313 30.4791 14.8827 30.9541ZM15.991 12.6666H22.0077C21.691 11.5319 21.282 10.4434 20.7806 9.401C20.2792 8.35864 19.6855 7.36246 18.9993 6.41246C18.3132 7.36246 17.7195 8.35864 17.2181 9.401C16.7167 10.4434 16.3077 11.5319 15.991 12.6666ZM25.2535 12.6666H29.9243C29.1591 11.3208 28.1959 10.1663 27.0348 9.20308C25.8737 8.23989 24.5674 7.52079 23.116 7.04579C23.591 7.94302 24.0066 8.86003 24.3629 9.79683C24.7191 10.7336 25.016 11.6902 25.2535 12.6666Z" fill="#1D1D1D" fill-opacity="0.7"/>
</g>
</svg>
