<svg width="34" height="34" viewBox="0 0 34 34" fill="none" xmlns="http://www.w3.org/2000/svg">
<path d="M8.58325 31.1683C11.0459 32.5356 13.8166 33.252 16.6333 33.25C25.8127 33.25 33.25 25.7961 33.25 16.6167C33.25 7.43731 25.8127 0 16.6333 0C7.45394 0 0 7.43731 0 16.6167C0 19.5688 0.77425 22.3119 2.11375 24.7154L0 33.25L8.58325 31.1683ZM9.50237 9.27675C9.696 9.09556 9.93076 8.96414 10.1864 8.89381C10.4421 8.82348 10.7111 8.81634 10.9701 8.873L11.5033 8.98581C12.0353 9.09863 12.4711 9.45369 12.6801 9.93819L13.7287 12.2609C13.8559 12.5403 13.8993 12.8506 13.8535 13.1542C13.8078 13.4577 13.6749 13.7415 13.471 13.9709L12.8262 14.7298C12.7212 14.853 12.6558 15.005 12.6384 15.166C12.6211 15.327 12.6526 15.4894 12.7288 15.6322C14.6324 19.0522 17.1332 20.1661 18.2459 20.5046C18.4063 20.5564 18.5794 20.5528 18.7374 20.4945C18.8955 20.4361 19.0294 20.3263 19.1176 20.1828L19.5854 19.456C20.0367 18.7625 20.9249 18.5203 21.9082 19.0047L23.8438 19.9726C24.5872 20.3276 24.9244 21.1981 24.6513 21.9735C23.6669 24.8282 21.1506 24.4732 21.1506 24.4732C15.5693 24.3283 11.1957 19.1817 9.30881 16.5359C8.43719 15.2938 7.90519 13.7928 8.06669 12.2609C8.22819 10.7445 8.93713 9.79213 9.50237 9.27675Z" fill="#1D1D1D" fill-opacity="0.7"/>
</svg>
