<svg width="45" height="45" viewBox="0 0 45 45" fill="none" xmlns="http://www.w3.org/2000/svg">
<g clip-path="url(#clip0_351_548)">
<path d="M44.4444 22.2222C44.4444 9.94931 34.4951 0 22.2222 0C9.9493 0 0 9.94913 0 22.2222C0 33.3139 8.12639 42.5075 18.75 44.1745V28.6458H13.1076V22.2222H18.75V17.3264C18.75 11.7569 22.0677 8.68056 27.1436 8.68056C29.575 8.68056 32.1181 9.11458 32.1181 9.11458V14.5833H29.316C26.5552 14.5833 25.6944 16.2964 25.6944 18.0538V22.2222H31.8576L30.8724 28.6458H25.6944V44.1745C36.3181 42.5075 44.4444 33.3141 44.4444 22.2222Z" fill="#1877F2"/>
<path d="M30.8741 28.6489L31.8594 22.2253H25.6962V18.0569C25.6962 16.2992 26.5571 14.5864 29.3177 14.5864H32.1198V9.11762C32.1198 9.11762 29.5767 8.68359 27.1453 8.68359C22.0694 8.68359 18.7517 11.76 18.7517 17.3294V22.2253H13.1094V28.6489H18.7517V44.1775C19.9004 44.3575 21.0613 44.4478 22.224 44.4475C23.3866 44.4478 24.5475 44.3576 25.6962 44.1775V28.6489H30.8741Z" fill="white"/>
</g>
<defs>
<clipPath id="clip0_351_548">
<rect width="44.4444" height="44.4444" fill="white"/>
</clipPath>
</defs>
</svg>
