<svg width="45" height="45" viewBox="0 0 45 45" fill="none" xmlns="http://www.w3.org/2000/svg">
<g clip-path="url(#clip0_351_554)">
<path d="M34.0278 0H10.4167C4.6637 0 0 4.6637 0 10.4167V34.0278C0 39.7807 4.6637 44.4444 10.4167 44.4444H34.0278C39.7807 44.4444 44.4444 39.7807 44.4444 34.0278V10.4167C44.4444 4.6637 39.7807 0 34.0278 0Z" fill="url(#paint0_radial_351_554)"/>
<path d="M34.0278 0H10.4167C4.6637 0 0 4.6637 0 10.4167V34.0278C0 39.7807 4.6637 44.4444 10.4167 44.4444H34.0278C39.7807 44.4444 44.4444 39.7807 44.4444 34.0278V10.4167C44.4444 4.6637 39.7807 0 34.0278 0Z" fill="url(#paint1_radial_351_554)"/>
<path d="M22.222 4.86523C17.5071 4.86523 16.9153 4.88589 15.0635 4.9701C13.2153 5.05482 11.9536 5.34735 10.8498 5.77669C9.70781 6.2201 8.73924 6.81332 7.77431 7.7786C6.80851 8.74371 6.21528 9.71228 5.77049 10.8538C5.33993 11.9579 5.04705 13.2201 4.96389 15.0675C4.88108 16.9194 4.85938 17.5114 4.85938 22.2265C4.85938 26.9416 4.88021 27.5316 4.96424 29.3833C5.04931 31.2316 5.34184 32.4932 5.77083 33.597C6.21458 34.739 6.80781 35.7076 7.77309 36.6725C8.73785 37.6383 9.70642 38.2329 10.8476 38.6763C11.9523 39.1057 13.2141 39.3982 15.062 39.4829C16.9139 39.5671 17.5052 39.5878 22.22 39.5878C26.9354 39.5878 27.5253 39.5671 29.3771 39.4829C31.2253 39.3982 32.4884 39.1057 33.5931 38.6763C34.7345 38.2329 35.7017 37.6383 36.6663 36.6725C37.6321 35.7076 38.2252 34.739 38.6701 33.5975C39.0969 32.4932 39.3899 31.2312 39.4767 29.3836C39.5599 27.5319 39.5816 26.9416 39.5816 22.2265C39.5816 17.5114 39.5599 16.9197 39.4767 15.0678C39.3899 13.2196 39.0969 11.9581 38.6701 10.8543C38.2252 9.71228 37.6321 8.74371 36.6663 7.7786C35.7007 6.81298 34.7349 6.21975 33.592 5.77687C32.4852 5.34735 31.2229 5.05464 29.3747 4.9701C27.5227 4.88589 26.9332 4.86523 22.2167 4.86523H22.222ZM20.6646 7.99388C21.1269 7.99319 21.6427 7.99388 22.222 7.99388C26.8576 7.99388 27.4069 8.01055 29.2375 8.09371C30.9302 8.17114 31.849 8.45395 32.4609 8.69162C33.2712 9.00621 33.8488 9.38242 34.4561 9.99023C35.0637 10.5979 35.4398 11.1765 35.7552 11.9868C35.9929 12.5979 36.276 13.5166 36.3531 15.2093C36.4363 17.0395 36.4543 17.5892 36.4543 22.2225C36.4543 26.8559 36.4363 27.4057 36.3531 29.2357C36.2757 30.9284 35.9929 31.8472 35.7552 32.4585C35.4406 33.2687 35.0637 33.8456 34.4561 34.4529C33.8484 35.0605 33.2715 35.4366 32.4609 35.7513C31.8497 35.9901 30.9302 36.2722 29.2375 36.3496C27.4073 36.4328 26.8576 36.4508 22.222 36.4508C17.5863 36.4508 17.0368 36.4328 15.2068 36.3496C13.5141 36.2715 12.5953 35.9887 11.9828 35.751C11.1727 35.4362 10.5939 35.0602 9.98628 34.4526C9.37865 33.8449 9.0026 33.2677 8.68715 32.4571C8.44948 31.8458 8.16632 30.927 8.08924 29.2343C8.00608 27.4041 7.98941 26.8545 7.98941 22.2182C7.98941 17.5821 8.00608 17.0352 8.08924 15.205C8.16667 13.5123 8.44948 12.5935 8.68715 11.9816C9.00191 11.1713 9.37865 10.5927 9.98646 9.98503C10.5941 9.37739 11.1727 9.00117 11.983 8.68589C12.595 8.44718 13.5141 8.16506 15.2068 8.08728C16.8083 8.01489 17.429 7.99319 20.6646 7.98954V7.99388ZM31.4894 10.8765C30.3392 10.8765 29.4061 11.8088 29.4061 12.9592C29.4061 14.1093 30.3392 15.0425 31.4894 15.0425C32.6396 15.0425 33.5727 14.1093 33.5727 12.9592C33.5727 11.809 32.6396 10.8758 31.4894 10.8758V10.8765ZM22.222 13.3107C17.2984 13.3107 13.3064 17.3027 13.3064 22.2265C13.3064 27.1503 17.2984 31.1404 22.222 31.1404C27.1458 31.1404 31.1365 27.1503 31.1365 22.2265C31.1365 17.3029 27.1455 13.3107 22.2217 13.3107H22.222ZM22.222 16.4394C25.4181 16.4394 28.0092 19.0302 28.0092 22.2265C28.0092 25.4225 25.4181 28.0137 22.222 28.0137C19.0259 28.0137 16.4351 25.4225 16.4351 22.2265C16.4351 19.0302 19.0259 16.4394 22.222 16.4394Z" fill="white"/>
</g>
<defs>
<radialGradient id="paint0_radial_351_554" cx="0" cy="0" r="1" gradientUnits="userSpaceOnUse" gradientTransform="translate(11.8056 47.8675) rotate(-90) scale(44.0477 40.9679)">
<stop stop-color="#FFDD55"/>
<stop offset="0.1" stop-color="#FFDD55"/>
<stop offset="0.5" stop-color="#FF543E"/>
<stop offset="1" stop-color="#C837AB"/>
</radialGradient>
<radialGradient id="paint1_radial_351_554" cx="0" cy="0" r="1" gradientUnits="userSpaceOnUse" gradientTransform="translate(-7.44462 3.20156) rotate(78.681) scale(19.6896 81.1611)">
<stop stop-color="#3771C8"/>
<stop offset="0.128" stop-color="#3771C8"/>
<stop offset="1" stop-color="#6600FF" stop-opacity="0"/>
</radialGradient>
<clipPath id="clip0_351_554">
<rect width="44.4444" height="44.4444" fill="white"/>
</clipPath>
</defs>
</svg>
