<svg width="45" height="45" viewBox="0 0 45 45" fill="none" xmlns="http://www.w3.org/2000/svg">
<g clip-path="url(#clip0_351_562)">
<path d="M39.8944 13.1602C39.9215 13.5522 39.9215 13.9439 39.9215 14.3394C39.9215 26.388 30.749 40.2838 13.9771 40.2838V40.2769C9.02225 40.2838 4.17011 38.8646 0 36.1887C0.720486 36.2755 1.44444 36.3189 2.17014 36.3206C6.27677 36.3239 10.2653 34.9466 13.4948 32.4099C11.592 32.3739 9.74801 31.7443 8.22063 30.6089C6.69326 29.4735 5.55886 27.8893 4.97604 26.0776C6.34306 26.3415 7.75139 26.287 9.09305 25.9203C4.83889 25.0609 1.77847 21.3234 1.77847 16.9828V16.8672C3.04663 17.5736 4.46599 17.9651 5.91701 18.0085C1.90972 15.3307 0.675347 10.0005 3.09479 5.83348C5.38399 8.65038 8.24014 10.9542 11.4777 12.5954C14.7153 14.2365 18.2619 15.1783 21.8872 15.3595C21.5258 13.8035 21.5793 12.18 22.0423 10.6511C22.5052 9.1223 23.3615 7.74181 24.5253 6.64772C28.1979 3.19529 33.974 3.37237 37.426 7.0432C39.4681 6.63999 41.4264 5.89128 43.2167 4.82931C42.5359 6.94067 41.1115 8.73291 39.2083 9.87272C41.0159 9.6596 42.781 9.17559 44.4444 8.43695C43.2208 10.2695 41.68 11.8689 39.8944 13.1602Z" fill="#1D9BF0"/>
</g>
<defs>
<clipPath id="clip0_351_562">
<rect width="44.4444" height="44.4444" fill="white"/>
</clipPath>
</defs>
</svg>
