<svg width="47" height="34" viewBox="0 0 47 34" fill="none" xmlns="http://www.w3.org/2000/svg">
<g clip-path="url(#clip0_351_567)">
<path d="M45.636 5.19907C45.3684 4.19418 44.8462 3.27805 44.1216 2.5419C43.397 1.80576 42.4952 1.2753 41.506 1.00333C37.8846 0 23.3097 0 23.3097 0C23.3097 0 8.73399 0.0303703 5.11259 1.0337C4.12338 1.30569 3.22157 1.83618 2.49696 2.57235C1.77236 3.30853 1.25023 4.2247 0.982587 5.22963C-0.112803 11.7663 -0.537725 21.7267 1.01267 28.0019C1.28034 29.0068 1.80247 29.9229 2.52708 30.659C3.25169 31.3952 4.15348 31.9256 5.14266 32.1976C8.76407 33.2009 23.3394 33.2009 23.3394 33.2009C23.3394 33.2009 37.9145 33.2009 41.5357 32.1976C42.525 31.9257 43.4268 31.3952 44.1514 30.6591C44.8761 29.9229 45.3982 29.0068 45.6659 28.0019C46.8213 21.4559 47.1773 11.5017 45.636 5.19907Z" fill="#FF0000"/>
<path d="M18.6719 23.7133L30.7629 16.5988L18.6719 9.48438V23.7133Z" fill="white"/>
</g>
<defs>
<clipPath id="clip0_351_567">
<rect width="46.6667" height="33.3333" fill="white"/>
</clipPath>
</defs>
</svg>
