<svg width="26" height="26" viewBox="0 0 26 26" fill="none" xmlns="http://www.w3.org/2000/svg">
<path d="M9.02837 2.57895H16.7838C17.7629 2.57895 18.4242 2.59613 18.7678 2.63048C19.3518 2.66483 19.8327 2.77649 20.2106 2.96543C20.9149 3.30897 21.4646 3.8157 21.8596 4.4856H21.8854C22.0915 4.84632 22.2375 5.31869 22.3234 5.90271C22.3749 6.22907 22.4436 6.84744 22.5295 7.75783L23.3025 17.1107C23.3884 18.1585 23.4313 18.8714 23.4313 19.2493C23.4313 19.9192 23.3368 20.4688 23.1479 20.8983C22.7872 21.7056 22.2289 22.3154 21.4731 22.7276L21.4474 22.7534C21.0351 22.9767 20.5026 23.1141 19.8499 23.1656C19.4377 23.2 18.6647 23.2172 17.531 23.2172H8.28117C7.14749 23.2172 6.37452 23.2 5.96227 23.1656C5.29237 23.1141 4.75988 22.9767 4.36481 22.7534C3.59184 22.324 3.025 21.7142 2.66428 20.924V20.8983C2.47533 20.4688 2.38086 19.9192 2.38086 19.2493C2.38086 18.8542 2.4238 18.0898 2.50969 16.9561L3.28265 7.88665C3.35136 6.90756 3.42007 6.24625 3.48878 5.90271C3.57466 5.31869 3.72067 4.84632 3.92679 4.4856C4.33904 3.8157 4.88871 3.30897 5.57579 2.96543H5.60155C5.97945 2.77649 6.46041 2.66483 7.04443 2.63048C7.38797 2.59613 8.04928 2.57895 9.02837 2.57895ZM7.14749 3.91876C6.71806 3.93594 6.3917 4.00464 6.1684 4.12488C5.68744 4.34818 5.31813 4.68314 5.06048 5.12974L5.03471 5.1555C4.91447 5.36163 4.82 5.67941 4.75129 6.10883C4.69976 6.43519 4.63105 7.07075 4.54517 8.01548L3.79797 17.0334C3.71208 18.1499 3.66914 18.8885 3.66914 19.2493C3.66914 19.7474 3.72926 20.1253 3.8495 20.383C4.0728 20.9154 4.4421 21.3277 4.95742 21.6197H4.98318C5.22366 21.7571 5.58438 21.843 6.06533 21.8774C6.44323 21.9117 7.19043 21.9289 8.30694 21.9289H17.5052C18.6218 21.9289 19.3604 21.9117 19.7211 21.8774C20.2192 21.843 20.5885 21.7571 20.829 21.6197C21.3443 21.3277 21.7222 20.924 21.9627 20.4087V20.383C22.0829 20.1253 22.143 19.7474 22.143 19.2493C22.143 18.8714 22.1001 18.1328 22.0142 17.0334L21.2412 7.98972C21.1725 7.04498 21.1124 6.41802 21.0609 6.10883C20.9922 5.69658 20.8891 5.37881 20.7517 5.1555C20.494 4.69172 20.1333 4.34818 19.6695 4.12488H19.6438C19.4205 4.02182 19.0941 3.95311 18.6647 3.91876C18.3555 3.8844 17.72 3.86723 16.758 3.86723H9.05414C8.09223 3.86723 7.45667 3.8844 7.14749 3.91876ZM8.61613 7.96395C8.7879 7.96395 8.93819 8.02407 9.06702 8.14431C9.19585 8.26455 9.26026 8.41914 9.26026 8.60809C9.26026 9.26082 9.42345 9.86631 9.74981 10.4246C10.0762 10.9828 10.5185 11.4251 11.0767 11.7515C11.635 12.0779 12.2448 12.241 12.9061 12.241C13.5674 12.241 14.1772 12.0779 14.7354 11.7515C15.2937 11.4251 15.736 10.9828 16.0624 10.4246C16.3887 9.86631 16.5519 9.26082 16.5519 8.60809C16.5519 8.41914 16.6163 8.26455 16.7452 8.14431C16.874 8.02407 17.0286 7.96395 17.2089 7.96395C17.3893 7.96395 17.5396 8.02407 17.6598 8.14431C17.7801 8.26455 17.8402 8.41914 17.8402 8.60809C17.8402 9.5013 17.6212 10.3258 17.1832 11.0816C16.7452 11.8374 16.1483 12.4386 15.3925 12.8852C14.6367 13.3318 13.8079 13.5551 12.9061 13.5551C12.0043 13.5551 11.1755 13.3318 10.4197 12.8852C9.66392 12.4386 9.06702 11.8374 8.62901 11.0816C8.19099 10.3258 7.97199 9.5013 7.97199 8.60809C7.97199 8.41914 8.03211 8.26455 8.15234 8.14431C8.27258 8.02407 8.42718 7.96395 8.61613 7.96395Z" fill="#1D1D1D"/>
</svg>
