<svg width="16" height="22" viewBox="0 0 16 22" fill="none" xmlns="http://www.w3.org/2000/svg">
<path d="M7.58333 21.6667C5.66944 21.6667 4.10764 21.3642 2.89792 20.7594C1.68819 20.1545 1.08333 19.3736 1.08333 18.4167C1.08333 17.9833 1.21424 17.5816 1.47604 17.2115C1.73785 16.8413 2.10347 16.5208 2.57292 16.25L4.27917 17.8479C4.11667 17.9201 3.94063 18.0014 3.75104 18.0917C3.56146 18.1819 3.4125 18.2903 3.30417 18.4167C3.53889 18.7056 4.08056 18.9583 4.92917 19.175C5.77778 19.3917 6.6625 19.5 7.58333 19.5C8.50417 19.5 9.3934 19.3917 10.251 19.175C11.1087 18.9583 11.6549 18.7056 11.8896 18.4167C11.7632 18.2722 11.6007 18.1549 11.4021 18.0646C11.2035 17.9743 11.0139 17.8931 10.8333 17.8208L12.5125 16.1958C13.0181 16.4847 13.4063 16.8142 13.6771 17.1844C13.9479 17.5545 14.0833 17.9653 14.0833 18.4167C14.0833 19.3736 13.4785 20.1545 12.2688 20.7594C11.059 21.3642 9.49722 21.6667 7.58333 21.6667ZM7.61042 15.7083C9.39792 14.3903 10.7431 13.0677 11.6458 11.7406C12.5486 10.4135 13 9.08194 13 7.74583C13 5.90417 12.4132 4.51389 11.2396 3.575C10.066 2.63611 8.84722 2.16667 7.58333 2.16667C6.31944 2.16667 5.10069 2.63611 3.92708 3.575C2.75347 4.51389 2.16667 5.90417 2.16667 7.74583C2.16667 8.95555 2.60903 10.2149 3.49375 11.524C4.37847 12.833 5.75069 14.2278 7.61042 15.7083ZM7.58333 18.4167C5.0375 16.5389 3.13715 14.7153 1.88229 12.9458C0.627431 11.1764 0 9.44306 0 7.74583C0 6.46389 0.230208 5.33993 0.690625 4.37396C1.15104 3.40799 1.74236 2.6 2.46458 1.95C3.18681 1.3 3.99931 0.8125 4.90208 0.4875C5.80486 0.1625 6.69861 0 7.58333 0C8.46806 0 9.36181 0.1625 10.2646 0.4875C11.1674 0.8125 11.9799 1.3 12.7021 1.95C13.4243 2.6 14.0156 3.40799 14.476 4.37396C14.9365 5.33993 15.1667 6.46389 15.1667 7.74583C15.1667 9.44306 14.5392 11.1764 13.2844 12.9458C12.0295 14.7153 10.1292 16.5389 7.58333 18.4167ZM7.58333 9.75C8.17917 9.75 8.68924 9.53785 9.11354 9.11354C9.53785 8.68924 9.75 8.17917 9.75 7.58333C9.75 6.9875 9.53785 6.47743 9.11354 6.05312C8.68924 5.62882 8.17917 5.41667 7.58333 5.41667C6.9875 5.41667 6.47743 5.62882 6.05313 6.05312C5.62882 6.47743 5.41667 6.9875 5.41667 7.58333C5.41667 8.17917 5.62882 8.68924 6.05313 9.11354C6.47743 9.53785 6.9875 9.75 7.58333 9.75Z" fill="#1D1D1D"/>
</svg>
