<svg width="9" height="9" viewBox="0 0 9 9" fill="none" xmlns="http://www.w3.org/2000/svg">
<path d="M8.3 9L5.15 5.85C4.9 6.05 4.6125 6.20833 4.2875 6.325C3.9625 6.44167 3.61667 6.5 3.25 6.5C2.34167 6.5 1.57292 6.18542 0.94375 5.55625C0.314583 4.92708 0 4.15833 0 3.25C0 2.34167 0.314583 1.57292 0.94375 0.94375C1.57292 0.314583 2.34167 0 3.25 0C4.15833 0 4.92708 0.314583 5.55625 0.94375C6.18542 1.57292 6.5 2.34167 6.5 3.25C6.5 3.61667 6.44167 3.9625 6.325 4.2875C6.20833 4.6125 6.05 4.9 5.85 5.15L9 8.3L8.3 9ZM3.25 5.5C3.875 5.5 4.40625 5.28125 4.84375 4.84375C5.28125 4.40625 5.5 3.875 5.5 3.25C5.5 2.625 5.28125 2.09375 4.84375 1.65625C4.40625 1.21875 3.875 1 3.25 1C2.625 1 2.09375 1.21875 1.65625 1.65625C1.21875 2.09375 1 2.625 1 3.25C1 3.875 1.21875 4.40625 1.65625 4.84375C2.09375 5.28125 2.625 5.5 3.25 5.5Z" fill="#006B4D"/>
</svg>
