<svg width="24" height="30" viewBox="0 0 24 30" fill="none" xmlns="http://www.w3.org/2000/svg">
<path d="M7.58913 10.3C7.58913 9.75345 7.69453 9.22642 7.90534 8.71892C8.11615 8.21142 8.41675 7.76247 8.80714 7.37208C9.33806 6.84116 9.95878 6.4859 10.6693 6.30633C11.3798 6.12675 12.0864 6.12675 12.7891 6.30633C13.4918 6.4859 14.1086 6.84116 14.6395 7.37208C15.0299 7.76247 15.3305 8.21142 15.5413 8.71892C15.7521 9.22642 15.8575 9.75345 15.8575 10.3C15.8575 10.8465 15.7521 11.3736 15.5413 11.8811C15.3305 12.3886 15.0299 12.8297 14.6395 13.2045C14.1086 13.7354 13.4879 14.0946 12.7774 14.2819C12.0669 14.4693 11.3603 14.4693 10.6576 14.2819C9.95487 14.0946 9.33806 13.7354 8.80714 13.2045C8.41675 12.8297 8.11615 12.3886 7.90534 11.8811C7.69453 11.3736 7.58913 10.8465 7.58913 10.3ZM11.735 4.79553C11.0011 4.79553 10.2945 4.93607 9.61524 5.21715C8.93596 5.49823 8.33867 5.89642 7.82336 6.41173C7.30805 6.92704 6.90985 7.52043 6.62878 8.1919C6.3477 8.86336 6.20716 9.56606 6.20716 10.3C6.20716 11.0339 6.3477 11.7366 6.62878 12.4081C6.90985 13.0795 7.30805 13.6729 7.82336 14.1882C8.52606 14.8909 9.34978 15.3672 10.2945 15.6171C11.2392 15.8669 12.1879 15.8669 13.1404 15.6171C14.093 15.3672 14.9206 14.8909 15.6233 14.1882C16.1386 13.6729 16.5368 13.0795 16.8179 12.4081C17.099 11.7366 17.2395 11.0339 17.2395 10.3C17.2395 9.56606 17.099 8.86336 16.8179 8.1919C16.5368 7.52043 16.1386 6.92704 15.6233 6.41173C15.108 5.89642 14.5107 5.49823 13.8314 5.21715C13.1521 4.93607 12.4455 4.79553 11.7116 4.79553H11.735ZM19.4179 20.208C20.2299 20.8014 20.8467 21.6056 21.2683 22.6206C21.7368 23.7293 22.0022 25.1425 22.0647 26.8602H1.38197C1.44443 25.1425 1.7099 23.7293 2.17836 22.6206C2.59998 21.6056 3.21679 20.8014 4.0288 20.208C4.8408 19.6146 5.90266 19.193 7.21436 18.9432C8.38552 18.7245 9.88851 18.6152 11.7233 18.6152C13.5581 18.6152 15.0611 18.7245 16.2323 18.9432C17.544 19.193 18.6059 19.6146 19.4179 20.208ZM11.735 17.2333C9.79872 17.2333 8.20594 17.3582 6.9567 17.608C5.442 17.8891 4.19276 18.3888 3.20898 19.1071C2.13151 19.8879 1.32732 20.9654 0.79639 22.3395C0.265463 23.7137 0 25.4548 0 27.5629V28.2422H23.4467V27.5629C23.4467 25.4548 23.1812 23.7137 22.6503 22.3395C22.1193 20.9654 21.3151 19.8879 20.2377 19.1071C19.2539 18.3888 18.0047 17.8891 16.49 17.608C15.2251 17.3582 13.6401 17.2333 11.735 17.2333Z" fill="#1D1D1D"/>
</svg>
