<svg width="27" height="24" viewBox="0 0 27 24" fill="none" xmlns="http://www.w3.org/2000/svg">
<path d="M6.35061 0.819546C5.67914 0.91324 5.0389 1.11624 4.4299 1.42855C3.7272 1.78771 3.11039 2.24836 2.57946 2.81052C1.93923 3.51322 1.46296 4.3057 1.15065 5.18798C0.838337 6.07026 0.709509 6.97595 0.764163 7.90508C0.818817 8.8342 1.06476 9.72038 1.502 10.5636C1.65815 10.8915 1.83773 11.1921 2.04073 11.4654C2.24373 11.7387 2.50919 12.0471 2.83712 12.3906C3.9302 13.5306 5.86653 15.5176 8.64608 18.3518C11.4256 21.1861 12.8388 22.6188 12.8857 22.65C13.0106 22.7125 13.1394 22.732 13.2722 22.7086C13.4049 22.6851 13.5337 22.6266 13.6587 22.5329C13.7367 22.4548 15.2007 20.9557 18.0505 18.0356C20.9003 15.1155 22.7234 13.2495 23.5198 12.4375C23.8634 12.0783 24.1367 11.7621 24.3397 11.4888C24.5427 11.2156 24.7222 10.9072 24.8784 10.5636C25.3156 9.73599 25.5655 8.84981 25.6279 7.90508C25.6904 6.96034 25.5577 6.05074 25.2297 5.17627C24.9799 4.47357 24.6246 3.82943 24.164 3.24385C23.7033 2.65827 23.1607 2.16248 22.5361 1.75648C22.1301 1.50663 21.7006 1.29582 21.2478 1.12405C20.4514 0.827354 19.5964 0.706335 18.6829 0.760988C17.7694 0.815643 16.9379 1.03036 16.1884 1.40513C15.7824 1.60813 15.431 1.82675 15.1343 2.06098C14.8376 2.29521 14.4394 2.66217 13.9397 3.16187L13.1902 3.93484L12.4406 3.16187C12.0971 2.80271 11.738 2.46698 11.3632 2.15467C10.4575 1.43636 9.43466 0.991318 8.29473 0.819546C7.6545 0.741468 7.00646 0.741468 6.35061 0.819546ZM8.34158 2.31863C9.02866 2.45917 9.6689 2.74025 10.2623 3.16187C10.4809 3.30241 10.965 3.75526 11.7145 4.52042C12.1674 4.97327 12.4719 5.26996 12.628 5.4105C12.8154 5.58227 12.9521 5.68768 13.0379 5.72672C13.1238 5.76575 13.2292 5.76185 13.3542 5.715C13.4166 5.69939 13.5376 5.6096 13.7172 5.44563C13.8968 5.28167 14.2052 4.98108 14.6424 4.54384C15.2671 3.91922 15.6965 3.50932 15.9307 3.31412C16.1649 3.11893 16.4382 2.94325 16.7505 2.7871C17.1565 2.56848 17.5235 2.42013 17.8514 2.34206C18.1793 2.26398 18.5853 2.22494 19.0694 2.22494C19.5067 2.22494 19.8424 2.24836 20.0766 2.29521C21.0292 2.51383 21.8568 2.96277 22.5595 3.64205C23.2622 4.32132 23.7385 5.12942 23.9883 6.06635C24.1288 6.64412 24.1796 7.22971 24.1406 7.82309C24.1015 8.41648 23.9727 8.98645 23.7541 9.53299C23.5823 9.92338 23.3988 10.2552 23.2036 10.5285C23.0084 10.8017 22.6766 11.1804 22.2081 11.6645C21.0682 12.8513 19.2841 14.6861 16.8559 17.169C14.4277 19.6518 13.2019 20.8933 13.1785 20.8933C13.1551 20.8933 11.5467 19.2497 8.35329 15.9627C5.15992 12.6756 3.49297 10.9462 3.35243 10.7744C2.83712 10.1342 2.49748 9.39635 2.33352 8.56093C2.16956 7.7255 2.18908 6.89397 2.39208 6.06635C2.65754 5.05134 3.18066 4.1964 3.96143 3.50151C4.74221 2.80662 5.6401 2.3889 6.65511 2.24836C7.21727 2.20152 7.77942 2.22494 8.34158 2.31863Z" fill="#1D1D1D"/>
</svg>
